<?xml version="1.0" standalone="no"?>
<!DOCTYPE svg PUBLIC "-//W3C//DTD SVG 1.1//EN" "http://www.w3.org/Graphics/SVG/1.1/DTD/svg11.dtd" >
<svg xmlns="http://www.w3.org/2000/svg">
<metadata>
Created by FontPrep 20130207 at Thu Jul  7 09:25:01 2016
 By Martin Greenwood
Copyright (c) 2004 by Tiro Typeworks. All rights reserved.
</metadata>
<defs>
<font id="640c4cb62fad496aa9796e5f466abd83" horiz-adv-x='1024' >
  <font-face 
    font-family="EuphemiaUCAS-Italic"
    font-weight="400"
    font-style="italic"
    font-stretch="normal"
    units-per-em="2048"
    panose-1="2 11 5 3 4 1 2 2 1 4"
    ascent="1638"
    descent="-410"
    x-height="1080"
    cap-height="1567"
    bbox="-445 -698 3151 2240"
    underline-thickness="50"
    underline-position="-50"
    slope="-11"
    unicode-range="U+0020-2212"
  />
<missing-glyph horiz-adv-x="1124" 
d="M560 344q28 0 46 -23t18 -50q0 -48 -33 -81t-68 -33t-56.5 22t-21.5 41q0 85 43.5 104.5t71.5 19.5zM810 1443q124 0 189 -65.5t65 -194.5q0 -241 -115 -330.5t-172 -129.5q-113 -80 -144 -250h-118l9 54q26 107 105 192t159 147q148 115 148 305q0 160 -171 160
q-92 0 -135 -33t-61 -48l-60 85q127 108 301 108zM36 8h1054l276 1563h-1054zM283 1607h1124l-288 -1634h-1123z" />
    <glyph glyph-name=".notdef" horiz-adv-x="1124" 
d="M560 344q28 0 46 -23t18 -50q0 -48 -33 -81t-68 -33t-56.5 22t-21.5 41q0 85 43.5 104.5t71.5 19.5zM810 1443q124 0 189 -65.5t65 -194.5q0 -241 -115 -330.5t-172 -129.5q-113 -80 -144 -250h-118l9 54q26 107 105 192t159 147q148 115 148 305q0 160 -171 160
q-92 0 -135 -33t-61 -48l-60 85q127 108 301 108zM36 8h1054l276 1563h-1054zM283 1607h1124l-288 -1634h-1123z" />
    <glyph glyph-name=".null" horiz-adv-x="0" 
 />
    <glyph glyph-name="nonmarkingreturn" horiz-adv-x="879" 
 />
    <glyph glyph-name="space" unicode=" " horiz-adv-x="1030" 
 />
    <glyph glyph-name="exclam" unicode="!" horiz-adv-x="467" 
d="M230 406l177 1158h203l-238 -1158h-142zM340 196q26 -28 26 -64q0 -64 -42 -106t-88 -42t-73.5 27.5t-27.5 69.5v32q0 32 45.5 71.5t89.5 39.5t70 -28z" />
    <glyph glyph-name="quotedbl" unicode="&#x22;" horiz-adv-x="772" 
d="M914 1608l-115 -416h-100l33 416h182zM601 1608l-115 -416h-100l33 416h182z" />
    <glyph glyph-name="numbersign" unicode="#" horiz-adv-x="1824" 
d="M1630 300h-347l-145 -456h-149l145 456h-495l-145 -456h-149l145 456h-347l48 148h346l206 648h-346l46 148h348l137 434h148l-137 -434h496l137 434h148l-137 -434h348l-46 -148h-349l-206 -648h348zM686 448h495l206 648h-495z" />
    <glyph glyph-name="dollar" unicode="$" horiz-adv-x="1193" 
d="M1142 514q0 -86 -22 -158.5t-75 -155.5t-170 -145.5t-241 -69.5l-29 -166h-84l29 167q-119 9 -212 60.5t-171 157.5l146 124q71 -94 132 -140.5t131 -54.5l107 616q-138 60 -229 145.5t-91 240.5q0 210 144.5 334t323.5 138l22 131h84l-22 -130q103 -6 175 -46.5
t137 -132.5l-118 -127q-55 72 -105.5 113t-113.5 49l-97 -559q61 -32 123 -64.5t112.5 -76.5t82 -104t31.5 -146zM960 472q0 111 -81.5 163.5t-119.5 72.5l-100 -577q112 6 206.5 84.5t94.5 256.5zM586 1043.5q48 -52.5 130 -97.5l90 519q-149 -15 -208.5 -109t-59.5 -177
t48 -135.5z" />
    <glyph glyph-name="percent" unicode="%" horiz-adv-x="1891" 
d="M279 -22l1553 1685l73 -57l-1543 -1681zM629 738q-265 0 -265 288q0 179 67.5 339t168.5 205.5t185 45.5q259 0 259 -296q0 -64 -12 -139q-38 -218 -136.5 -330.5t-266.5 -112.5zM510 1036q0 -170 141 -170q158 0 204 178.5t46 245.5q0 109 -31 152.5t-100 43.5
q-118 0 -175 -92t-71 -207.5t-14 -150.5zM1398 -25q-266 0 -266 286q0 180 88 386.5t334 206.5q261 0 261 -292q0 -66 -14 -144q-38 -217 -136 -330t-267 -113zM1420 103q110 0 166.5 97.5t69.5 212.5t13 148q0 162 -139 162q-155 0 -204.5 -175t-46.5 -275q0 -170 141 -170
z" />
    <glyph glyph-name="ampersand" unicode="&#x26;" horiz-adv-x="1519" 
d="M560 -29q-182 0 -295.5 93.5t-113.5 254.5q0 300 174 415t245 154q-117 148 -117 304q0 192 147 304t312 112q205 0 249 -91t44 -155t-17.5 -119t-61 -121t-130.5 -127.5t-218 -128.5q164 -233 366 -492q126 145 227 311h190q-108 -178 -335 -409l251 -276h-265l-119 155
q-152 -130 -300.5 -157t-232.5 -27zM992 1446q-43 38 -103 38q-115 0 -190 -75t-75 -192t96 -255q138 75 192 125t88.5 104t34.5 135q0 82 -43 120zM415.5 196.5q75.5 -74.5 224.5 -74.5t244.5 53.5t130.5 85.5q-78 96 -208.5 277.5t-179.5 246.5q-132 -84 -209.5 -170
t-77.5 -215t75.5 -203.5z" />
    <glyph glyph-name="quotesingle" unicode="'" horiz-adv-x="478" 
d="M609 1608l-115 -416h-100l33 416h182z" />
    <glyph glyph-name="parenleft" unicode="(" horiz-adv-x="629" 
d="M207 626q0 573 611 1099l49 -55q-392 -400 -475 -870q-19 -107 -19 -222q0 -349 185 -688l-67 -49q-284 387 -284 785z" />
    <glyph glyph-name="parenright" unicode=")" horiz-adv-x="627" 
d="M531 1026q0 336 -193 641l74 59q286 -364 286 -741q0 -557 -613 -1144l-55 51q501 554 501 1134z" />
    <glyph glyph-name="asterisk" unicode="*" horiz-adv-x="985" 
d="M1122 1559l-342 -245l255 -246l-84 -85l-210 222l-44 -285h-111l57 289l-294 -228l-56 85l339 247l-257 246l86 84l218 -226l44 293h111l-56 -289l287 223z" />
    <glyph glyph-name="plus" unicode="+" horiz-adv-x="1154" 
d="M816 1186l-55 -477h452l-14 -122h-452l-57 -493h-131l57 493h-450l14 122h450l55 477h131z" />
    <glyph glyph-name="comma" unicode="," horiz-adv-x="502" 
d="M137 67q0 52 41.5 92t85.5 40q74 0 107.5 -41t33.5 -98v-37q0 -37 -35.5 -100.5t-86.5 -113.5t-176 -113l-35 60q104 60 153 109t49 119q0 5 -0.5 11t-0.5 12q-24 -17 -62 -17q-74 0 -74 77z" />
    <glyph glyph-name="hyphen" unicode="-" horiz-adv-x="748" 
d="M793 788l-46 -123h-526l46 123h526z" />
    <glyph glyph-name="hyphen" unicode="&#xad;" horiz-adv-x="748" 
d="M793 788l-46 -123h-526l46 123h526z" />
    <glyph glyph-name="period" unicode="." horiz-adv-x="455" 
d="M319 26.5q-41 -42.5 -86 -42.5t-72 27.5t-27 77.5t44 90.5t89 40.5t69 -28.5t24 -75.5t-41 -89.5z" />
    <glyph glyph-name="slash" unicode="/" horiz-adv-x="1235" 
d="M35 -226l1348 1958l89 -52l-1344 -1959z" />
    <glyph glyph-name="zero" unicode="0" horiz-adv-x="1193" 
d="M884 1608q385 0 385 -483q0 -146 -34 -340q-73 -415 -240 -613t-407 -197q-196 0 -289.5 124t-93.5 371q0 150 34 344q63 358 227 576t418 218zM892 286q105 167 171 545q50 281 30 396.5t-60.5 176t-174.5 60.5q-192 0 -290 -178t-144 -444t-47 -380q0 -114 15 -173
t60 -114.5t190 -55.5t250 167z" />
    <glyph glyph-name="one" unicode="1" horiz-adv-x="1193" 
d="M556 137l221 1255l-322 -155l29 163l354 167h140l-252 -1430h298l-24 -137h-752l24 137h284z" />
    <glyph glyph-name="two" unicode="2" horiz-adv-x="1193" 
d="M902 1608q174 0 282 -90t108 -254q0 -287 -201 -457.5t-344 -266t-254.5 -187t-139.5 -207.5h728l-25 -146h-912l16 92q42 240 234 376t343 239t264 229t113 308q0 218 -254 218q-169 0 -309 -110l-74 121q186 135 425 135z" />
    <glyph glyph-name="three" unicode="3" horiz-adv-x="1193" 
d="M996 530q0 271 -365 271h-88l21 121h26q203 0 335 92.5t132 257.5q0 92 -66 145.5t-196 53.5t-215.5 -45t-107.5 -62l-71 128q122 76 240.5 96t192.5 20q171 0 286.5 -78.5t115.5 -235.5q0 -322 -371 -412q218 -35 264 -160.5t46 -235.5t-92.5 -310.5t-540.5 -200.5
q-174 0 -272.5 51t-123.5 73l93 117q134 -104 306 -104q225 0 338 101.5t113 316.5z" />
    <glyph glyph-name="four" unicode="4" horiz-adv-x="1193" 
d="M862 438h-688l16 100l894 1029h146l-174 -984h158l-24 -145h-158l-78 -438h-169zM372 582h515l131 742z" />
    <glyph glyph-name="five" unicode="5" horiz-adv-x="1193" 
d="M788 1036q267 0 329.5 -137.5t62.5 -265.5t-46 -253.5t-172.5 -265t-377.5 -139.5t-409 103l83 150q110 -61 175.5 -83t154.5 -22q176 0 294 140t118 357q0 278 -276 278q-136 0 -194 -37.5t-90 -64.5h-91l135 771h771l-26 -149h-611l-79 -443q91 61 249 61z" />
    <glyph glyph-name="six" unicode="6" horiz-adv-x="1193" 
d="M433 888q143 124 401 124q82 0 162 -29.5t155 -105t75 -231.5q0 -308 -163.5 -490t-450.5 -182q-410 0 -410 489q0 300 130.5 636.5t351 422.5t324.5 86q182 0 314 -62l-81 -139q-114 56 -224 56q-206 0 -370 -162t-214 -413zM1055 568q0 149 -62.5 224t-226.5 75
t-246.5 -52.5t-110.5 -81.5q-38 -85 -38 -298q0 -162 76 -240t180 -78t180.5 36.5t131.5 100.5t85.5 151t30.5 163z" />
    <glyph glyph-name="seven" unicode="7" horiz-adv-x="1193" 
d="M1168 1423h-820l26 144h986l-20 -113l-879 -1454h-167z" />
    <glyph glyph-name="eight" unicode="8" horiz-adv-x="1193" 
d="M891.5 25q-139.5 -50 -262.5 -50q-235 0 -357 89.5t-122 273.5q0 183 111.5 315t301.5 207q-112 63 -167.5 132.5t-55.5 162.5q0 92 23 153.5t80 132.5t184 119t233 48q201 0 319.5 -85t118.5 -241t-113.5 -271.5t-282.5 -157.5q154 -69 232.5 -153t78.5 -242
q0 -157 -91 -270t-230.5 -163zM1132 1260q0 107 -75 159t-169 52q-174 0 -279 -74.5t-105 -215.5t117.5 -197t163.5 -75q347 107 347 351zM321 379q0 -135 83.5 -200t241.5 -65t277.5 92.5t119.5 264.5q0 171 -134 228.5t-253 97.5q-232 -76 -283.5 -209.5t-51.5 -208.5z
" />
    <glyph glyph-name="nine" unicode="9" horiz-adv-x="1193" 
d="M498 120q118 0 267.5 74t269.5 489q-86 -74 -194.5 -93.5t-153.5 -19.5q-202 0 -311.5 102.5t-109.5 293.5q0 265 168.5 453.5t437.5 188.5q304 0 361 -164t57 -270t-32 -289q-32 -184 -167.5 -547t-629.5 -363q-162 0 -289 54l77 148q131 -57 249 -57zM730 715
q224 0 339 134q52 134 52 299q0 246 -106 281.5t-159 35.5t-98 -12t-90 -37t-87 -64t-93.5 -126t-51.5 -241q0 -270 294 -270z" />
    <glyph glyph-name="colon" unicode=":" horiz-adv-x="510" 
d="M513 849q-41 -42 -86 -42q-45 -1 -72 27t-27 78t44 91q44 40 89 40t69 -29t24 -75q0 -48 -41 -90zM371 26q-41 -42 -86 -42t-72 28t-27 77q0 50 44 91q44 40 89 40t69 -29t24 -75q0 -48 -41 -90z" />
    <glyph glyph-name="semicolon" unicode=";" horiz-adv-x="510" 
d="M167 67q0 52 41 92t86 40q74 0 107 -41q34 -41 34 -98v-15q1 -59 -35 -122q-36 -64 -87 -114t-176 -113l-35 60q104 60 136 92q66 66 66 136v11t-1 12q-24 -17 -62 -17q-74 0 -74 77zM513 860q-41 -42 -86 -42t-72 28t-27 77q0 50 44 91q44 40 89 40t69 -29t24 -75
q0 -48 -41 -90z" />
    <glyph glyph-name="less" unicode="&#x3c;" horiz-adv-x="989" 
d="M210 744l4 22l840 786l95 -106l-732 -679l-3 -14l493 -689l-126 -103z" />
    <glyph glyph-name="equal" unicode="=" horiz-adv-x="1207" 
d="M233 924h1033l-15 -122h-1033zM181 496h1032l-15 -122h-1032z" />
    <glyph glyph-name="greater" unicode="&#x3e;" horiz-adv-x="989" 
d="M195 -39l-90 103l731 689l3 14l-496 679l131 106l568 -786l-4 -22z" />
    <glyph glyph-name="question" unicode="?" horiz-adv-x="976" 
d="M451 27.5q-40 -43.5 -87 -43.5q-46 0 -72.5 28t-26.5 78t44.5 90t88.5 40q43 0 68 -26.5t25 -74.5t-40 -91.5zM346 1471q163 137 387 137t269.5 -120t45.5 -176q0 -302 -124.5 -418.5t-193 -164t-118.5 -89.5t-68 -90t-38 -167h-149q26 152 56 212.5t65.5 101t85.5 77.5
t87 63.5t86 67.5t90.5 113.5t49.5 148t8 105.5q0 82 -52 138t-174 56q-123 0 -237 -102z" />
    <glyph glyph-name="at" unicode="@" horiz-adv-x="2132" 
d="M1267 928q-190 0 -319.5 -138t-129.5 -383q0 -128 60 -213.5t168 -85.5t194 99t105 202l85 482q-72 37 -163 37zM1475 147q-1 -43 71 -43t125 33t118.5 115t118 261t52.5 345q0 304 -176.5 461t-436.5 157q-259 0 -481 -143.5t-351.5 -402.5t-129.5 -581t120 -493.5
t264.5 -215.5t260.5 -44t230 30l-24 -134q-76 -32 -200 -32t-225.5 19.5t-240 85.5t-245.5 260t-107 502q0 369 149.5 660.5t414 456t584.5 164.5t540 -188.5t220 -547.5t-180.5 -624t-506.5 -265q-118 0 -118 80q0 70 8 116q-105 -196 -321 -196q-153 0 -254 100t-101 297
q0 280 168 466.5t508 186.5q78 0 165.5 -15t107.5 -22l-106 -609q-21 -119 -21 -240z" />
    <glyph glyph-name="A" unicode="A" horiz-adv-x="1277" 
d="M838 1567h165l248 -1567h-188l-75 534h-529l-260 -534h-169zM515 655h459l-100 716z" />
    <glyph glyph-name="B" unicode="B" horiz-adv-x="1248" 
d="M1214 497q0 -208 -152 -352.5t-422 -144.5h-490l272 1567h449q293 0 348.5 -117t55.5 -187q0 -145 -87.5 -263t-256.5 -161q283 -73 283 -342zM611 130q211 0 319.5 101.5t108.5 257.5q0 188 -121.5 226.5t-209.5 38.5h-258l-108 -624h269zM677 884q158 0 292 81t134 265
q0 107 -81 158t-268 51h-185l-96 -555h204z" />
    <glyph glyph-name="C" unicode="C" horiz-adv-x="1388" 
d="M277 557q0 260 122.5 569.5t334.5 395.5t308 86q170 0 263.5 -32t197.5 -134l-123 -123q-90 84 -155 114.5t-171 30.5q-107 0 -189.5 -40.5t-176.5 -138t-161 -298.5t-67 -351q0 -256 105 -386.5t253 -130.5q201 0 292 74t133 121l111 -88q-131 -137 -251 -194t-322 -57
q-232 0 -368 161t-136 421z" />
    <glyph glyph-name="D" unicode="D" horiz-adv-x="1358" 
d="M757 1567q327 0 477.5 -153.5t150.5 -417.5q0 -189 -112 -521.5t-386 -403.5t-413 -71h-324l272 1567h335zM469 130q420 0 552 250.5t164 435.5q15 84 15 174q0 203 -120 325t-380 122h-131l-227 -1307h127z" />
    <glyph glyph-name="E" unicode="E" horiz-adv-x="1107" 
d="M1235 1429h-667l-93 -534h532l-23 -131h-532l-109 -626h697l-23 -138h-867l272 1567h837z" />
    <glyph glyph-name="F" unicode="F" horiz-adv-x="1053" 
d="M1235 1429h-667l-93 -534h531l-23 -131h-531l-132 -764h-170l272 1567h837z" />
    <glyph glyph-name="G" unicode="G" horiz-adv-x="1381" 
d="M365 148q-130 172 -130 436t99 497.5t287.5 380t444.5 146.5q157 0 224 -29t110.5 -63.5t94.5 -85.5l-133 -122q-116 129 -199.5 142t-150.5 13t-144 -30.5t-180.5 -116.5t-185 -278t-81.5 -414t102 -362t293 -140q134 0 204.5 16t112.5 29l102 586h170l-119 -685
q-212 -92 -502 -92q-289 0 -419 172z" />
    <glyph glyph-name="H" unicode="H" horiz-adv-x="1416" 
d="M422 1567h170l-122 -702h776l122 702h170l-272 -1567h-170l127 735h-776l-127 -735h-170z" />
    <glyph glyph-name="I" unicode="I" horiz-adv-x="470" 
d="M150 0l272 1567h170l-272 -1567h-170z" />
    <glyph glyph-name="J" unicode="J" horiz-adv-x="1064" 
d="M480 -24q-102 0 -232.5 37t-166.5 314l163 51q35 -209 119 -234.5t132 -25.5q113 0 204 74t119 236l198 1139h170l-194 -1114q-43 -240 -132.5 -326t-183.5 -118.5t-196 -32.5z" />
    <glyph glyph-name="K" unicode="K" horiz-adv-x="1246" 
d="M149 0l272 1567h170l-122 -674l732 674h212l-841 -762l629 -805h-215l-548 701l-119 -701h-170z" />
    <glyph glyph-name="L" unicode="L" horiz-adv-x="1058" 
d="M1026 0h-876l272 1567h170l-249 -1429h706z" />
    <glyph glyph-name="M" unicode="M" horiz-adv-x="1588" 
d="M875 0h-156l-192 1181l-205 -1181h-170l272 1567h176l227 -1392l705 1392h175l-272 -1567h-170l205 1181z" />
    <glyph glyph-name="N" unicode="N" horiz-adv-x="1419" 
d="M542 1287l-223 -1287h-169l271 1567h170l554 -1293l225 1293h170l-272 -1567h-163z" />
    <glyph glyph-name="O" unicode="O" horiz-adv-x="1643" 
d="M798 -25q-122 0 -228.5 41.5t-214.5 159.5t-108 401q0 284 118.5 521t316 373.5t443.5 136.5t396.5 -158.5t150.5 -438.5q0 -336 -182.5 -627t-376 -350t-315.5 -59zM1488 994q0 214 -104.5 342t-286.5 128q-183 0 -374 -138.5t-240.5 -361t-49.5 -340.5
q0 -235 104.5 -370t294.5 -135q226 0 441 235.5t215 639.5z" />
    <glyph glyph-name="P" unicode="P" horiz-adv-x="1159" 
d="M847 1567q329 0 381.5 -136.5t52.5 -200.5q1 -64 -7 -108t-26 -91.5t-74 -132t-202 -162t-368 -77.5h-170l-114 -659h-170l272 1567h425zM1105 1182q0 77 -35 166t-307 89h-194l-113 -649l166 1q212 2 310.5 81.5t135.5 157t37 154.5z" />
    <glyph glyph-name="Q" unicode="Q" horiz-adv-x="1643" 
d="M805 -25q-269 0 -413.5 160t-144.5 443t118.5 520t316 373.5t442.5 136.5t397 -157t152 -415q0 -259 -103.5 -502.5t-251 -359t-258.5 -155.5q52 -186 283 -326l-128 -136q-199 129 -264 244.5t-81 175.5q-36 -2 -65 -2zM1488 996q0 214 -104 341t-305 127
q-163 0 -354 -137.5t-242 -361t-51 -343.5q0 -234 106 -368.5t293 -134.5q229 0 443 238.5t214 638.5z" />
    <glyph glyph-name="R" unicode="R" horiz-adv-x="1212" 
d="M847 1567q329 0 381.5 -133t52.5 -197q0 -63 -8 -111q-20 -116 -117 -239.5t-281 -181.5l316 -705h-202l-288 672q-23 -4 -152 -4h-114l-115 -668h-170l272 1567h425zM621 797q216 0 350 108t134 303q0 113 -80 168.5t-267 55.5h-190l-109 -635h162z" />
    <glyph glyph-name="S" unicode="S" horiz-adv-x="1205" 
d="M493 1231q0 -77 25 -126t67.5 -87.5t100 -71.5t106.5 -60t92 -49.5t186 -111.5t143 -301q0 -219 -174.5 -334t-422.5 -115t-352.5 83t-155.5 140l134 131q99 -113 186.5 -161t184.5 -48q184 0 298.5 77.5t114.5 212.5t-218.5 256.5t-297.5 177.5t-142 128.5t-63 196.5
q0 218 171 328.5t391 110.5t311 -71t134 -124l-115 -118q-127 179 -334 179t-288.5 -83t-81.5 -160z" />
    <glyph glyph-name="T" unicode="T" horiz-adv-x="1206" 
d="M1421 1423h-487l-247 -1423h-170l247 1423h-485l25 144h1142z" />
    <glyph glyph-name="U" unicode="U" horiz-adv-x="1473" 
d="M751 128q339 0 406 141.5t84 235.5l185 1062h169l-183 -1051q-48 -271 -212.5 -404.5t-484.5 -133.5q-254 0 -372.5 93.5t-118.5 287.5q0 70 15 154l183 1054h170l-185 -1064q-12 -65 -10 -103q0 -135 84.5 -203.5t269.5 -68.5z" />
    <glyph glyph-name="V" unicode="V" horiz-adv-x="1235" 
d="M1296 1567h180l-786 -1567h-164l-224 1567h184l173 -1322z" />
    <glyph glyph-name="W" unicode="W" horiz-adv-x="1780" 
d="M493 1567v-1291l612 1291h134l97 -1291l504 1291h180l-644 -1567h-174l-82 1274l-540 -1274h-163l-107 1567h183z" />
    <glyph glyph-name="X" unicode="X" horiz-adv-x="1279" 
d="M862 857l385 -857h-185l-317 706l-537 -706h-176l656 830l-329 737h185l259 -593l487 593h177z" />
    <glyph glyph-name="Y" unicode="Y" horiz-adv-x="1193" 
d="M507 0l124 715l-312 852h184l241 -704l488 704h184l-610 -835l-127 -732h-172z" />
    <glyph glyph-name="Z" unicode="Z" horiz-adv-x="1109" 
d="M356 1567h950l-22 -125l-1029 -1282h816l-27 -160h-985l23 137l1036 1270h-790z" />
    <glyph glyph-name="bracketleft" unicode="[" horiz-adv-x="574" 
d="M449 1726h314l-14 -79h-174l-299 -1727h174l-14 -79h-314z" />
    <glyph glyph-name="backslash" unicode="\" horiz-adv-x="1245" 
d="M1027 -278l-666 1954l115 56l667 -1955z" />
    <glyph glyph-name="bracketright" unicode="]" horiz-adv-x="574" 
d="M396 -160h-314l14 80h174l299 1726h-174l14 79h314z" />
    <glyph glyph-name="asciicircum" unicode="^" horiz-adv-x="1307" 
d="M1378 759h-186l-276 686h-9l-526 -686h-183l739 919h31z" />
    <glyph glyph-name="underscore" unicode="_" horiz-adv-x="1023" 
d="M-47 -247h1032l-20 -111h-1032z" />
    <glyph glyph-name="grave" unicode="`" horiz-adv-x="0" 
d="M396 1207l-411 280l110 125l351 -345z" />
    <glyph glyph-name="a" unicode="a" horiz-adv-x="1202" 
d="M837 986q-195 0 -336 -146.5t-141 -406.5q0 -137 61.5 -227.5t170.5 -90.5t204.5 94t117.5 226l93 512q-76 39 -170 39zM889 0q-2 36 -2 85t9 107q-115 -209 -352 -209q-152 0 -254 110.5t-102 310.5q0 295 178 494t524 199q90 0 182.5 -16t114.5 -23l-117 -646
q-32 -192 -32 -282t7 -130h-156z" />
    <glyph glyph-name="b" unicode="b" horiz-adv-x="1194" 
d="M850 1097q72 0 198.5 -56.5t126.5 -317.5q0 -327 -178 -533.5t-450 -206.5q-184 0 -392 25l271 1559h158l-99 -575q146 105 365 105zM1003 663q0 214 -86.5 256.5t-140.5 42.5q-94 0 -180.5 -25.5t-131.5 -60.5l-125 -729q84 -44 205 -44q218 0 338.5 173t120.5 387z" />
    <glyph glyph-name="c" unicode="c" horiz-adv-x="1075" 
d="M571 -17q-86 0 -162.5 34t-149.5 120.5t-73 273.5q0 271 135 438t255 207.5t195 40.5q137 0 215 -32.5t135 -117.5l-119 -94q-47 70 -98.5 98.5t-128.5 28.5t-130.5 -21.5t-120 -77t-117 -179.5t-50.5 -224q0 -178 68.5 -277.5t180.5 -99.5t168 28t89 56.5t69 67.5
l97 -76q-132 -157 -252 -175.5t-206 -18.5z" />
    <glyph glyph-name="d" unicode="d" horiz-adv-x="1182" 
d="M1036 126q0 -89 11 -126h-144q-21 63 -21 138q-75 -83 -151.5 -119t-174.5 -36q-178 0 -273 119.5t-95 306.5q0 252 120.5 426.5t234.5 218t205 43.5q165 0 272 -78l94 548h158l-213 -1226q-23 -126 -23 -215zM747 959q-189 0 -287.5 -163.5t-98.5 -367.5t84.5 -258
t132.5 -54q180 0 301 134l120 649q-95 60 -252 60z" />
    <glyph glyph-name="e" unicode="e" horiz-adv-x="1046" 
d="M909 828q0 143 -184 143q-144 0 -240.5 -114.5t-126.5 -267.5q551 9 551 239zM171 399q0 283 161 490.5t425 207.5q142 0 227 -65t85 -187q0 -312 -322.5 -332.5t-405.5 -21.5q-4 -19 -4 -23v-33q0 -233 86 -277t147 -44q186 0 363 120l69 -112q-180 -139 -442 -139
q-189 0 -289 115.5t-100 300.5z" />
    <glyph glyph-name="f" unicode="f" horiz-adv-x="611" 
d="M195 -372.5q-94 -92.5 -224 -92.5t-200 49l66 145q35 -25 67 -44t74 -19q83 0 129 78t74 249l156 955h-146l18 95l156 37l20 111q36 210 161 313.5t299 103.5q132 0 203 -49l-92 -136q-70 54 -162 54q-91 0 -145.5 -39.5t-76.5 -113.5t-54 -244h215l-33 -132h-205
l-158 -942q-48 -286 -142 -378.5z" />
    <glyph glyph-name="g" unicode="g" horiz-adv-x="1201" 
d="M997 890q-78 69 -255 69t-280 -158t-103 -369q0 -212 82 -262.5t154 -50.5q155 0 285 95zM481 -350q207 0 274.5 116t85.5 207l22 114q-127 -104 -310 -104q-182 0 -273 123t-91 303t69.5 337.5t195 254t282.5 96.5t287 -82l15 65h161q-23 -68 -28 -100l-173 -1005
q-75 -440 -533 -440q-214 0 -375 142l107 121q141 -148 284 -148z" />
    <glyph glyph-name="h" unicode="h" horiz-adv-x="1156" 
d="M834 1097q151 0 228 -70t77 -204q0 -43 -8 -89l-127 -734h-158l126 725q6 36 6 67q0 176 -198 176q-115 0 -318 -87l-152 -881h-158l272 1567h158l-99 -570q200 100 351 100z" />
    <glyph glyph-name="i" unicode="i" horiz-adv-x="502" 
d="M355 1080h158l-187 -1080h-158zM518 1526q30 0 50.5 -22.5t20.5 -49.5q0 -50 -32.5 -84.5t-72.5 -34.5q-41 0 -63 24.5t-22 52.5t9 47.5t24.5 34.5t35.5 23.5t50 8.5z" />
    <glyph glyph-name="j" unicode="j" horiz-adv-x="475" 
d="M-78 -230q78 0 142.5 55.5t76.5 130.5l195 1124h158l-198 -1140q-26 -149 -139 -229.5t-256 -80.5h-15q-39 0 -54 3l38 139q16 -2 52 -2zM501 1526q31 0 51 -22.5t20 -49.5q0 -49 -33 -84t-73 -35t-62 24.5t-22 51.5t8.5 47t23.5 35t35.5 24t51.5 9z" />
    <glyph glyph-name="k" unicode="k" horiz-adv-x="1025" 
d="M416 665l505 415h211l-548 -443l381 -637h-187l-299 569l-88 -63l-87 -506h-158l272 1567h158z" />
    <glyph glyph-name="l" unicode="l" horiz-adv-x="507" 
d="M312 -17q-137 0 -137 140q0 27 6 60l241 1384h158l-234 -1346q-4 -20 -4 -50q0 -55 94 -55q23 0 55 4l7 -92q-107 -45 -186 -45z" />
    <glyph glyph-name="m" unicode="m" horiz-adv-x="1722" 
d="M1061 985q195 112 391 112q195 0 227 -97t32 -147t-7 -86l-133 -767h-158l130 752q2 16 4 30t2 28q0 81 -37.5 119.5t-101.5 38.5q-106 0 -174 -17t-148 -55q4 -18 4 -52t-8 -80l-132 -764h-158l130 750q6 34 6 64q0 79 -36 116.5t-118 37.5q-174 0 -309 -80l-154 -888
h-158l165 950q12 64 15 130h148q0 -47 -3 -92q95 71 195.5 90t154.5 19q167 0 231 -112z" />
    <glyph glyph-name="n" unicode="n" horiz-adv-x="1162" 
d="M868 1097q139 0 209.5 -69t70.5 -192q0 -44 -7 -81l-131 -755h-158l128 742q5 38 5 69q0 70 -44.5 113.5t-108.5 43.5q-115 0 -198 -25.5t-171 -74.5l-150 -868h-158l163 940q9 55 16 140h153q-2 -46 -6 -103q187 120 387 120z" />
    <glyph glyph-name="o" unicode="o" horiz-adv-x="1250" 
d="M202 406q0 277 172 484t448 207q192 0 298 -116.5t106 -310.5q0 -261 -169.5 -474t-435.5 -213q-203 0 -311 111t-108 312zM962 920q-100 50 -180 50t-158 -41.5t-167.5 -157t-89.5 -351.5q0 -130 80.5 -220t200.5 -90q179 0 296.5 169.5t117.5 379.5q0 211 -100 261z
" />
    <glyph glyph-name="p" unicode="p" horiz-adv-x="1178" 
d="M463 1003q168 94 346 94q179 0 264.5 -107t85.5 -268q0 -162 -39 -293.5t-110.5 -230.5t-173.5 -157t-223 -58t-188 37t-105 63l-95 -536h-158l238 1374q18 63 18 159h141v-30q0 -29 -1 -47zM340 212q102 -92 241 -92q140 0 252 104.5t135 249t23 206.5
q0 135 -52.5 208.5t-181.5 73.5t-193.5 -27t-106.5 -48z" />
    <glyph glyph-name="q" unicode="q" horiz-adv-x="1216" 
d="M189 399q0 303 143 465.5t251 197.5t181 35q164 0 289 -82l21 65h156q-19 -47 -28 -100l-249 -1433h-158l98 548q-135 -112 -325 -112t-284.5 113.5t-94.5 302.5zM1028 889q-90 70 -267 70t-289.5 -154t-112.5 -373t92.5 -266t168.5 -47q181 0 291 105z" />
    <glyph glyph-name="r" unicode="r" horiz-adv-x="714" 
d="M754 934q-121 0 -201 -52t-114 -125l-131 -757h-158l166 960q16 91 16 120h146v-18q0 -47 -16 -164q162 199 392 199q27 0 48 -6l-63 -165q-25 8 -85 8z" />
    <glyph glyph-name="s" unicode="s" horiz-adv-x="972" 
d="M679 157.5q79 50.5 79 140.5q0 104 -133 154l-28 10q-28 11 -51 20t-43.5 17t-41.5 16q-93 35 -161 90t-68 153q0 173 126 256t293 83q216 0 329 -127l-103 -102q-108 108 -224 108q-117 0 -191.5 -43.5t-74.5 -130.5q0 -98 167 -156q167 -59 263.5 -108t96.5 -194
q0 -178 -130.5 -269.5t-309.5 -91.5t-257 66.5t-114 108.5l117 104q65 -80 127.5 -117.5t157.5 -37.5t174 50.5z" />
    <glyph glyph-name="t" unicode="t" horiz-adv-x="733" 
d="M485 -17q-228 0 -228 194q0 48 10 101l115 665h-156l24 104l156 33l47 273h158l-47 -273h263l-41 -137h-246l-108 -624q-8 -44 -8 -95t21.5 -80.5t71.5 -29.5t103.5 11t64.5 15l-12 -127q-79 -30 -188 -30z" />
    <glyph glyph-name="u" unicode="u" horiz-adv-x="1161" 
d="M416 -17q-128 0 -194.5 69.5t-66.5 190.5q0 43 7 84l131 753h158l-129 -741q-4 -25 -4 -57q0 -70 47 -114t133 -44q174 0 344 114l146 842h158l-163 -939q-10 -55 -10 -141h-161l-1 15q0 44 8 97q-169 -100 -255 -114.5t-148 -14.5z" />
    <glyph glyph-name="v" unicode="v" horiz-adv-x="967" 
d="M459 160l438 920h170l-561 -1080h-155l-191 1080h170z" />
    <glyph glyph-name="w" unicode="w" horiz-adv-x="1381" 
d="M160 1080h170l73 -838l364 838h102l88 -835l354 835h170l-512 -1080h-111l-79 851l-364 -851h-111z" />
    <glyph glyph-name="x" unicode="x" horiz-adv-x="980" 
d="M23 0l473 555l-249 525h171l170 -421l331 421h170l-443 -519l267 -561h-171l-193 452l-355 -452h-171z" />
    <glyph glyph-name="y" unicode="y" horiz-adv-x="1008" 
d="M-10 -320q66 0 112 19.5t93 64.5t105 149.5t75 157.5l-231 1009h170l177 -864l434 864h171l-633 -1164q-54 -92 -102.5 -162.5t-132 -143.5t-256.5 -75q-76 0 -158 19l56 151q54 -25 120 -25z" />
    <glyph glyph-name="z" unicode="z" horiz-adv-x="985" 
d="M294 1080h785l-21 -124l-775 -809h648l-25 -147h-837l22 128l784 805h-606z" />
    <glyph glyph-name="braceleft" unicode="{" horiz-adv-x="682" 
d="M304 472q0 130 -84 130h-66l22 124h66q96 0 123.5 102t36.5 154l60 347q23 126 114 213t169 87h159l-20 -119h-106q-88 0 -119.5 -84.5t-37.5 -120.5l-62 -357q-41 -180 -107.5 -225.5t-87.5 -53.5l-2 -10q64 -24 81 -101.5t17 -121.5t-4 -84l-57 -328q-6 -33 -6 -64
q0 -64 22 -105.5t64 -41.5h110l-21 -119h-159q-78 0 -131 64.5t-53 169.5q0 33 6 69l58 336q15 81 15 139z" />
    <glyph glyph-name="bar" unicode="|" horiz-adv-x="1037" 
d="M850 1578l-353 -2030h-131l353 2030h131z" />
    <glyph glyph-name="braceright" unicode="}" horiz-adv-x="682" 
d="M518 1364q0 146 -90 146h-106l20 119h159q67 0 125.5 -68.5t58.5 -172.5q0 -22 -5 -59l-60 -347q-14 -82 -14 -129q0 -127 86 -127h66l-22 -124h-66q-98 0 -125.5 -107.5t-37.5 -161.5l-58 -336q-23 -130 -108 -216.5t-176 -86.5h-159l21 119h110q54 0 96 64.5t58 146.5
l57 328q28 131 87 210t113 97l2 10q-67 27 -85 95t-18 108t4 76l62 357q5 26 5 59z" />
    <glyph glyph-name="asciitilde" unicode="~" horiz-adv-x="1244" 
d="M940 449q-50 0 -88 10t-73 25t-68.5 33t-91 43t-127.5 25t-131.5 -36t-99.5 -101l-98 77q56 85 155 151.5t209 66.5q67 0 122 -21t105.5 -46.5t101 -46.5t96.5 -21q83 0 147.5 33t100.5 86l83 -82q-94 -133 -193.5 -164.5t-149.5 -31.5z" />
    <glyph glyph-name="nonbreakingspace" unicode="&#xa0;" horiz-adv-x="1030" 
 />
    <glyph glyph-name="exclamdown" unicode="&#xa1;" horiz-adv-x="493" 
d="M439 675l-178 -1157h-202l238 1157h142zM344.5 1054q41.5 43 88.5 43t74 -28t27 -81t-46.5 -92t-89.5 -39t-69 28t-26 77t41.5 92z" />
    <glyph glyph-name="cent" unicode="&#xa2;" horiz-adv-x="886" 
d="M401 364q38 -68 80 -93l207 698q-174 -5 -249.5 -154.5t-75.5 -266.5q0 -116 38 -184zM578 253h19q68 0 125 34.5t124 118.5l108 -95q-126 -159 -237 -178.5t-172 -19.5h-18l-42 -145l-90 13l42 144q-251 72 -251 370q0 243 149 425.5t385 182.5h8l39 132l90 -10
l-38 -128q2 -2 3 -2q141 -18 212 -151l-131 -104q-53 77 -79.5 93.5t-45.5 24.5l-208 -704q7 -1 8 -1z" />
    <glyph glyph-name="sterling" unicode="&#xa3;" horiz-adv-x="1152" 
d="M519 798q-36 185 -36 273q-1 88 11 152q12 65 57.5 139.5t150 160t280.5 85.5t285 -83l-108 -139q-59 47 -98.5 63t-105.5 16q-139 0 -222 -86.5t-83 -255.5q0 -80 14 -163.5t26 -161.5h327l-19 -108h-306q0 -34 -11 -102t-38 -125t-64.5 -109t-83 -102t-95.5 -105h629
l-25 -147h-833l8 94q54 58 107 113.5t142.5 169t89.5 290.5l-1 23h-248l19 108h231z" />
    <glyph glyph-name="currency" unicode="&#xa4;" horiz-adv-x="1370" 
d="M1174 754q0 50 -22 108t-85.5 127t-200.5 69q-177 0 -311 -140.5t-134 -319.5q0 -137 85.5 -232t232.5 -95t240.5 88.5t134 160.5t50.5 128t10 106zM899 1210q196 0 322 -139l205 174l58 -70l-208 -178q62 -103 62 -236q0 -252 -193 -445l152 -190l-88 -66l-146 184
q-165 -125 -356 -125q-192 0 -318 120l-213 -182l-57 70l212 182q-76 113 -76 257t55 253t125 181l-141 176l95 70l129 -174q185 138 381 138z" />
    <glyph glyph-name="yen" unicode="&#xa5;" horiz-adv-x="1193" 
d="M507 0l69 403h-361l19 108h361l26 149h-361l19 111h346l-306 796h184l244 -686l485 686h184l-589 -796h364l-19 -111h-379l-26 -150h379l-19 -107h-379l-69 -403h-172z" />
    <glyph glyph-name="brokenbar" unicode="&#xa6;" horiz-adv-x="1037" 
d="M366 -452l147 847h131l-147 -847h-131zM850 1578l-133 -762h-131l133 762h131z" />
    <glyph glyph-name="dieresis" unicode="&#xa8;" horiz-adv-x="0" 
d="M26 1500q28 0 49 -23t21 -51q0 -51 -33.5 -85.5t-75.5 -34.5q-41 0 -62 25.5t-21 47.5q0 23 2 35t12.5 29.5t26 30t34.5 19.5t47 7zM478 1500q40 0 60 -23t20 -51q0 -53 -35 -86.5t-75 -33.5t-61.5 25.5t-21.5 47.5q0 61 36.5 91t76.5 30z" />
    <glyph glyph-name="copyright" unicode="&#xa9;" horiz-adv-x="1794" 
d="M235 758q0 -137 52 -259t142 -214t210.5 -145.5t257.5 -53.5t257.5 53.5t210.5 145.5t142 214t52 259t-52 259t-142 214t-210.5 145.5t-257.5 53.5t-257.5 -53.5t-210.5 -145.5t-142 -214t-52 -259zM109 758q0 109 28 209.5t79.5 188t123.5 159.5t159.5 123.5t188 79.5
t209.5 28t209.5 -28t188 -79.5t159.5 -123.5t123.5 -159.5t79.5 -188t28 -209.5t-28 -209.5t-79.5 -188t-123.5 -159.5t-159.5 -123.5t-188 -79.5t-209.5 -28t-209.5 28t-188 79.5t-159.5 123.5t-123.5 159.5t-79.5 188t-28 209.5zM1225 456q-122 -147 -317 -147t-300 135.5
t-105 328.5q0 192 114 323t294 131q129 0 184.5 -34.5t87.5 -64.5l-73 -80q-93 81 -211 81t-187.5 -103.5t-69.5 -245.5q0 -141 66 -254t206 -113t231 112z" />
    <glyph glyph-name="ordfeminine" unicode="&#xaa;" horiz-adv-x="1232" 
d="M911 1508q-172 0 -296.5 -126t-124.5 -347q0 -115 54.5 -192t151.5 -77t175.5 89.5t99.5 181.5l80 440q-58 31 -140 31zM661 648q-144 0 -241.5 94t-97.5 268q0 253 164 425.5t479 172.5q80 0 160.5 -14.5t100.5 -21.5l-101 -555q-39 -232 -21 -356h-154q-1 16 -1 21v46
q0 55 3 80q-111 -160 -291 -160z" />
    <glyph glyph-name="guillemotleft" unicode="&#xab;" horiz-adv-x="1221" 
d="M659 533l2 12l467 437l75 -75l-352 -361l-1 -8l216 -360l-96 -75zM173 533l2 12l467 437l75 -75l-352 -361l-1 -8l216 -360l-96 -75z" />
    <glyph glyph-name="logicalnot" unicode="&#xac;" horiz-adv-x="1154" 
d="M1213 709l-71 -615h-131l57 493h-902l14 122h1033z" />
    <glyph glyph-name="registered" unicode="&#xae;" horiz-adv-x="1794" 
d="M235 758q0 -137 52 -259t142 -214t210.5 -145.5t257.5 -53.5t257.5 53.5t210.5 145.5t142 214t52 259t-52 259t-142 214t-210.5 145.5t-257.5 53.5t-257.5 -53.5t-210.5 -145.5t-142 -214t-52 -259zM109 758q0 109 28 209.5t79.5 188t123.5 159.5t159.5 123.5t188 79.5
t209.5 28t209.5 -28t188 -79.5t159.5 -123.5t123.5 -159.5t79.5 -188t28 -209.5t-28 -209.5t-79.5 -188t-123.5 -159.5t-159.5 -123.5t-188 -79.5t-209.5 -28t-209.5 28t-188 79.5t-159.5 123.5t-123.5 159.5t-79.5 188t-28 209.5zM880 1218q335 0 335 -259
q0 -109 -65.5 -161t-118.5 -67l216 -395h-146l-181 374h-170v-374h-129v882h259zM749 803h102q117 0 175 38.5t58 128.5t-58.5 121t-185.5 31h-91v-319z" />
    <glyph glyph-name="macron" unicode="&#xaf;" horiz-adv-x="0" 
d="M-40 1331h544l-22 -125h-544z" />
    <glyph glyph-name="degree" unicode="&#xb0;" horiz-adv-x="651" 
d="M766 1634q58 -58 58 -130q0 -127 -89 -213q-89 -87 -190 -87t-159 58t-57 136q-1 79 33 134t72 88q83 71 179 71q95 1 153 -57zM540 1290q77 0 126 58q50 58 50 124q0 65 -30 99t-71 34q-69 0 -123 -52q-55 -52 -55 -121q0 -70 30 -106q31 -36 73 -36z" />
    <glyph glyph-name="plusminus" unicode="&#xb1;" horiz-adv-x="1306" 
d="M1284 123l-14 -122h-1033l14 122h1033zM968 1328l-55 -477h452l-14 -122h-452l-57 -493h-131l57 493h-450l14 122h450l55 477h131z" />
    <glyph glyph-name="twosuperior" unicode="&#xb2;" horiz-adv-x="890" 
d="M729 1581q210 0 254 -89t44 -135t-17 -90t-56 -94.5t-113 -95.5t-151 -80q-144 -65 -201.5 -101.5t-62.5 -70.5h516l-24 -136h-709l18 100q74 145 196.5 206t184.5 91t108.5 57t77.5 56.5t46.5 57t15.5 65.5q0 65 -44 98.5t-104 33.5q-133 0 -264 -105l-66 99
q173 133 351 133z" />
    <glyph glyph-name="threesuperior" unicode="&#xb3;" horiz-adv-x="898" 
d="M999 959q0 -149 -126.5 -224t-332.5 -75q-205 0 -303 91l92 113q76 -76 210 -76q208 0 248.5 60.5t40.5 119.5t-70 87.5t-209 28.5h-19l21 116h22q292 0 292 152q0 46 -49.5 75t-157.5 29t-216 -83l-70 110q132 98 348 98q215 0 266 -73t51 -122q0 -92 -69.5 -149.5
t-176.5 -77.5q208 -22 208 -200z" />
    <glyph glyph-name="acute" unicode="&#xb4;" horiz-adv-x="0" 
d="M16 1267l366 345l95 -125l-411 -280z" />
    <glyph glyph-name="uni00B5" unicode="&#xb5;" horiz-adv-x="1169" 
d="M848 112q-218 -129 -388 -129q-101 0 -128.5 16.5t-35.5 19.5l-82 -472h-158l266 1533h158l-131 -752q-3 -20 -3 -48q0 -65 47.5 -110.5t134.5 -45.5q173 0 343 114l146 842h158l-163 -939q-10 -55 -10 -141h-161l-1 15q0 44 8 97z" />
    <glyph glyph-name="paragraph" unicode="&#xb6;" horiz-adv-x="1197" 
d="M1033 38q-82 -425 -452 -492l-23 62q155 50 247 152t131 311l261 1480l102 -12zM662 758q-254 0 -307.5 130.5t-53.5 229.5q0 209 161 329t449 120q40 0 130 -9l-270 -1558h-114l131 758h-126z" />
    <glyph glyph-name="periodcentered" unicode="&#xb7;" horiz-adv-x="457" 
d="M421 614q-41 -42 -86 -42t-72 28t-27 77q0 50 44 91q44 40 89 40t69 -29t24 -75q0 -48 -41 -90z" />
    <glyph glyph-name="cedilla" unicode="&#xb8;" horiz-adv-x="0" 
d="M20 -80q134 -42 134 -158t-83.5 -198.5t-200.5 -82.5q-79 0 -115 25.5t-58 43.5l90 103q29 -29 50 -45t47 -16q53 0 93.5 42.5t40.5 109.5t-42.5 89t-75.5 26l57 143h106z" />
    <glyph glyph-name="onesuperior" unicode="&#xb9;" horiz-adv-x="716" 
d="M434 818l101 583l-216 -128l29 169l254 139h128l-132 -763h170l-23 -129h-526l23 129h192z" />
    <glyph glyph-name="ordmasculine" unicode="&#xba;" horiz-adv-x="1075" 
d="M346 1019q0 236 149.5 412.5t384.5 176.5q169 0 262 -99t93 -266q0 -222 -146.5 -403.5t-377.5 -181.5q-175 0 -270 95t-95 266zM1006.5 953q68.5 101 68.5 280t-80.5 221t-146.5 42t-130 -35.5t-138 -132t-74 -297.5q0 -110 66 -185.5t176 -75.5q63 0 126.5 41t132 142z
" />
    <glyph glyph-name="guillemotright" unicode="&#xbb;" horiz-adv-x="1258" 
d="M803 103l-70 75l342 360l1 8l-226 361l101 75l315 -437l-2 -12zM290 103l-70 75l342 360l1 8l-226 361l101 75l315 -437l-2 -12z" />
    <glyph glyph-name="onequarter" unicode="&#xbc;" horiz-adv-x="1681" 
d="M1401 231h-425l9 49l546 592h150l-89 -513h158l-23 -128h-157l-41 -237h-169zM1171 359h253l60 347zM237 25l1564 1587l83 -60l-1564 -1588zM434 818l101 583l-216 -128l29 169l254 139h128l-132 -763h170l-23 -129h-526l23 129h192z" />
    <glyph glyph-name="onehalf" unicode="&#xbd;" horiz-adv-x="1894" 
d="M1856 849q82 -59 82 -155t-47 -166t-108 -119t-159 -92q-162 -72 -222 -110t-65 -72h516l-24 -136h-709l18 100q74 147 249 232t231 115.5t102.5 74t46.5 143.5q0 117 -169 117q-82 0 -147 -44.5t-92 -71.5l-70 110q171 133 351 133q134 0 216 -59zM234 23l1564 1587
l83 -60l-1564 -1588zM434 818l101 583l-216 -128l29 169l254 139h128l-132 -763h170l-23 -129h-526l23 129h192z" />
    <glyph glyph-name="threequarters" unicode="&#xbe;" horiz-adv-x="1840" 
d="M1561 234h-425l9 49l546 592h150l-89 -513h158l-23 -128h-157l-41 -237h-169zM1331 362h253l60 347zM416 23l1564 1587l83 -60l-1564 -1588zM828 972q0 77 -63.5 93t-234.5 19l21 116q219 0 266.5 59t47.5 107q0 90 -190 90q-125 0 -233 -83l-70 110q132 98 347 98
t266.5 -71t51.5 -117v-27q0 -28 -23.5 -70.5t-60.5 -73.5t-145 -64q191 -36 191 -182q0 -97 -46 -160t-135.5 -109.5t-293.5 -46.5t-295 84l100 120q76 -76 210 -76q289 0 289 184z" />
    <glyph glyph-name="questiondown" unicode="&#xbf;" horiz-adv-x="996" 
d="M143 -122q0 304 128 422t194 162t99 70q58 46 79.5 100.5t42.5 174.5h150q-28 -153 -58 -213t-65.5 -100t-95.5 -86t-111 -82.5t-108 -100.5t-84 -220q-6 -38 -6 -74q0 -207 215 -207q133 0 247 102l77 -106q-164 -138 -388 -138t-270 120t-46 176zM740.5 1163
q39.5 43 86.5 43t73.5 -27.5t26.5 -78.5t-44 -90t-88 -39q-43 0 -68.5 26t-25.5 75q0 48 39.5 91z" />
    <glyph glyph-name="Agrave" unicode="&#xc0;" horiz-adv-x="1277" 
d="M838 1567h165l248 -1567h-188l-75 534h-529l-260 -534h-169zM515 655h459l-100 716zM1022 1680l-411 280l110 125l351 -345z" />
    <glyph glyph-name="Aacute" unicode="&#xc1;" horiz-adv-x="1277" 
d="M838 1567h165l248 -1567h-188l-75 534h-529l-260 -534h-169zM515 655h459l-100 716zM820 1735l366 345l95 -125l-411 -280z" />
    <glyph glyph-name="Acircumflex" unicode="&#xc2;" horiz-adv-x="1277" 
d="M838 1567h165l248 -1567h-188l-75 534h-529l-260 -534h-169zM515 655h459l-100 716zM956 2023h68l238 -338l-71 -60l-231 223l-308 -223l-50 61z" />
    <glyph glyph-name="Atilde" unicode="&#xc3;" horiz-adv-x="1277" 
d="M838 1567h165l248 -1567h-188l-75 534h-529l-260 -534h-169zM515 655h459l-100 716zM1088 1809q99 0 159 109l72 -42q-65 -132 -173 -177q-38 -16 -80 -16t-72 18t-55 39t-51 39t-65 18t-84 -31t-72 -81l-75 39q33 76 108 137t137 61q63 0 97 -18t60 -38q26 -22 48 -40
t46 -17z" />
    <glyph glyph-name="Adieresis" unicode="&#xc4;" horiz-adv-x="1277" 
d="M838 1567h165l248 -1567h-188l-75 534h-529l-260 -534h-169zM515 655h459l-100 716zM732 1834q28 0 49 -23t21 -51q0 -51 -34 -85q-34 -35 -75 -35t-62 26t-21 47q0 23 2 35t12 30t26 30t34 19q20 7 48 7zM1184 1834q40 0 60 -23t20 -51q0 -53 -35 -86q-35 -34 -75 -34
t-62 26t-21 47q1 61 37 91t76 30z" />
    <glyph glyph-name="Aring" unicode="&#xc5;" horiz-adv-x="1277" 
d="M912 1594q77 0 127 58.5t50 123.5t-30 99t-71 34q-69 0 -123.5 -52t-54.5 -121t30 -105.5t72 -36.5zM515 655h459l-100 716zM1139.5 1937.5q57.5 -57.5 57.5 -129.5t-39.5 -153.5t-148.5 -125.5l242 -1529h-188l-75 534h-529l-260 -534h-169l787 1526q-70 31 -92.5 86.5
t-22.5 81.5q0 140 94 220.5t190 80.5t153.5 -57.5z" />
    <glyph glyph-name="AE" unicode="&#xc6;" horiz-adv-x="1936" 
d="M2098 1438h-677l-95 -548h541l-21 -122h-541l-111 -637h707l-22 -131h-877l93 536h-472l-379 -536h-183l1129 1569h931zM702 657h414l128 739h-14z" />
    <glyph glyph-name="Ccedilla" unicode="&#xc7;" horiz-adv-x="1358" 
d="M810 -80q134 -42 134 -158t-83.5 -198.5t-200.5 -82.5q-79 0 -115 25.5t-58 43.5l90 103q29 -29 50 -45t47 -16q53 0 93.5 42.5t40.5 109.5t-42.5 89t-75.5 26l47 118q-205 18 -332.5 169t-127.5 411t122.5 569.5t334.5 395.5t308 86q170 0 263.5 -32t197.5 -134
l-123 -123q-90 84 -155 114.5t-171 30.5q-107 0 -189.5 -40.5t-176.5 -138t-161 -298.5t-67 -351q0 -256 105 -386.5t253 -130.5q201 0 292 74t133 121l111 -88q-131 -137 -243 -190t-272 -60z" />
    <glyph glyph-name="Egrave" unicode="&#xc8;" horiz-adv-x="1107" 
d="M1235 1429h-667l-93 -534h532l-23 -131h-532l-109 -626h697l-23 -138h-867l272 1567h837zM1021 1675l-411 280l110 125l351 -345z" />
    <glyph glyph-name="Eacute" unicode="&#xc9;" horiz-adv-x="1107" 
d="M1235 1429h-667l-93 -534h532l-23 -131h-532l-109 -626h697l-23 -138h-867l272 1567h837zM685 1735l366 345l95 -125l-411 -280z" />
    <glyph glyph-name="Ecircumflex" unicode="&#xca;" horiz-adv-x="1107" 
d="M1235 1429h-667l-93 -534h532l-23 -131h-532l-109 -626h697l-23 -138h-867l272 1567h837zM891 2072h68l238 -338l-71 -60l-231 223l-308 -223l-50 61z" />
    <glyph glyph-name="Edieresis" unicode="&#xcb;" horiz-adv-x="1107" 
d="M1235 1429h-667l-93 -534h532l-23 -131h-532l-109 -626h697l-23 -138h-867l272 1567h837zM680 1969q28 0 49 -23q21 -22 21 -50q0 -51 -34 -86t-75 -35q-41 -1 -62 25t-21 48t2 34t12 30t26 30t34 20q20 7 48 7zM1132 1969q40 0 60 -23t20 -51q0 -53 -35 -86
q-35 -34 -75 -34q-40 -1 -62 25t-21 48q1 61 37 91t76 30z" />
    <glyph glyph-name="Igrave" unicode="&#xcc;" horiz-adv-x="474" 
d="M150 0l272 1567h170l-272 -1567h-170zM622 1675l-411 280l110 125l351 -345z" />
    <glyph glyph-name="Iacute" unicode="&#xcd;" horiz-adv-x="472" 
d="M150 0l272 1567h170l-272 -1567h-170zM401 1732l366 345l95 -125l-411 -280z" />
    <glyph glyph-name="Icircumflex" unicode="&#xce;" horiz-adv-x="474" 
d="M150 0l272 1567h170l-272 -1567h-170zM558 2029h68l238 -338l-71 -60l-231 223l-308 -223l-50 61z" />
    <glyph glyph-name="Idieresis" unicode="&#xcf;" horiz-adv-x="473" 
d="M150 0l272 1567h170l-272 -1567h-170zM344 1938q28 0 50 -23q21 -23 21 -51q0 -51 -34 -85q-34 -35 -75 -35t-62 26t-21 47q0 23 2 35q3 12 13 30t26 30t34 19t46 7zM796 1938q40 0 60 -23t21 -51q0 -53 -35 -86q-35 -34 -75 -34q-39 0 -61 26t-22 47q0 61 36 91t76 30z
" />
    <glyph glyph-name="Eth" unicode="&#xd0;" horiz-adv-x="1358" 
d="M757 1567q327 0 477.5 -153.5t150.5 -417.5q0 -189 -112 -521.5t-386 -403.5t-413 -71h-324l131 756h-130l23 131h130l118 680h335zM469 130q420 0 552 250.5t164 435.5q15 84 15 174q0 203 -120 325t-380 122h-131l-95 -550h349l-23 -131h-349l-109 -626h127z" />
    <glyph glyph-name="Ntilde" unicode="&#xd1;" horiz-adv-x="1419" 
d="M542 1287l-223 -1287h-169l271 1567h170l554 -1293l225 1293h170l-272 -1567h-163zM1173 1805q99 0 159 109l72 -42q-66 -132 -174 -177q-38 -16 -80 -16t-70 18q-30 18 -56 39t-52 39t-64 18q-39 0 -84 -31t-72 -81l-75 39q33 76 108 137t137 61q63 0 97 -18t60 -38
q26 -22 48 -40t46 -17z" />
    <glyph glyph-name="Ograve" unicode="&#xd2;" horiz-adv-x="1643" 
d="M798 -25q-122 -1 -228 41t-178 120q-144 158 -145 441q0 284 119 521t315 374q197 136 444 136q246 0 397 -159q150 -159 150 -438q0 -336 -180 -623q-185 -296 -476 -384q-96 -30 -218 -29zM1488 994q0 214 -104 342t-287 128t-331 -108q-233 -170 -308 -502
q-25 -112 -25 -230q0 -235 104 -370t295 -135q226 1 411 203q245 268 245 672zM1212 1675l-411 280l110 125l351 -345z" />
    <glyph glyph-name="Oacute" unicode="&#xd3;" horiz-adv-x="1643" 
d="M798 -25q-122 -1 -228 41t-178 120q-144 158 -145 441q0 284 119 521t315 374q197 136 444 136q246 0 397 -159q150 -159 150 -438q0 -336 -180 -623q-185 -296 -476 -384q-96 -30 -218 -29zM1488 994q0 214 -104 342t-287 128t-331 -108q-233 -170 -308 -502
q-25 -112 -25 -230q0 -235 104 -370t295 -135q226 1 411 203q245 268 245 672zM995 1735l366 345l95 -125l-411 -280z" />
    <glyph glyph-name="Ocircumflex" unicode="&#xd4;" horiz-adv-x="1643" 
d="M798 -25q-122 -1 -228 41t-178 120q-144 158 -145 441q0 284 119 521t315 374q197 136 444 136q246 0 397 -159q150 -159 150 -438q0 -336 -180 -623q-185 -296 -476 -384q-96 -30 -218 -29zM1488 994q0 214 -104 342t-287 128t-331 -108q-233 -170 -308 -502
q-25 -112 -25 -230q0 -235 104 -370t295 -135q226 1 411 203q245 268 245 672zM1145 2076h68l238 -338l-71 -60l-231 223l-308 -223l-50 61z" />
    <glyph glyph-name="Otilde" unicode="&#xd5;" horiz-adv-x="1643" 
d="M798 -25q-122 -1 -228 41t-178 120q-144 158 -145 441q0 284 119 521t315 374q197 136 444 136q246 0 397 -159q150 -159 150 -438q0 -336 -180 -623q-185 -296 -476 -384q-96 -30 -218 -29zM1488 994q0 214 -104 342t-287 128t-331 -108q-233 -170 -308 -502
q-25 -112 -25 -230q0 -235 104 -370t295 -135q226 1 411 203q245 268 245 672zM1258 1812q99 0 159 109l72 -42q-65 -132 -173 -177q-38 -16 -80 -16t-72 18t-55 39t-51 39t-65 18t-84 -31t-72 -81l-75 39q33 76 108 137t137 61q63 1 97 -17t60 -40t48 -38q22 -18 46 -18z
" />
    <glyph glyph-name="Odieresis" unicode="&#xd6;" horiz-adv-x="1643" 
d="M798 -25q-122 -1 -228 41t-178 120q-144 158 -145 441q0 284 119 521t315 374q197 136 444 136q246 0 397 -159q150 -159 150 -438q0 -336 -180 -623q-185 -296 -476 -384q-96 -30 -218 -29zM1488 994q0 214 -104 342t-287 128t-331 -108q-233 -170 -308 -502
q-25 -112 -25 -230q0 -235 104 -370t295 -135q226 1 411 203q245 268 245 672zM938 1966q28 0 49 -23t21 -51q0 -51 -34 -85q-34 -35 -75 -35t-62 26t-21 47q0 23 2 35t12 30t26 30t34 19q20 7 48 7zM1390 1966q40 0 60 -23t20 -51q0 -53 -35 -86q-35 -34 -75 -34t-62 26
t-21 47q1 61 37 91t76 30z" />
    <glyph glyph-name="multiply" unicode="&#xd7;" horiz-adv-x="1226" 
d="M111 66l505 491l-319 471l115 86l314 -457l469 455l92 -81l-487 -474l336 -494l-124 -89l-321 484l-495 -482z" />
    <glyph glyph-name="Oslash" unicode="&#xd8;" horiz-adv-x="1653" 
d="M243 551q0 169 32 302.5t118 307t284 310.5t426 137t377 -130l189 198l87 -81l-196 -207q101 -148 101 -371q0 -97 -19 -200q-62 -359 -294.5 -599t-523.5 -240t-440 167l-212 -222l-88 81l230 242q-71 136 -71 305zM1477 982q0 155 -53 263l-906 -958q105 -155 318 -155
q212 0 426.5 229.5t214.5 620.5zM429 626q0 -123 35 -222l891 942q-102 108 -284 108q-218 0 -412.5 -196t-212 -393t-17.5 -239z" />
    <glyph glyph-name="Ugrave" unicode="&#xd9;" horiz-adv-x="1473" 
d="M751 128q339 0 439 212q34 70 51 165l185 1062h169l-183 -1051q-48 -271 -213 -404q-165 -134 -484 -134q-255 0 -373 94t-118 287q0 70 15 154l183 1054h170l-185 -1064q-12 -65 -10 -103q1 -136 85 -204t269 -68zM1154 1650l-411 280l110 125l351 -345z" />
    <glyph glyph-name="Uacute" unicode="&#xda;" horiz-adv-x="1473" 
d="M751 128q339 0 439 212q34 70 51 165l185 1062h169l-183 -1051q-48 -271 -213 -404q-165 -134 -484 -134q-255 0 -373 94t-118 287q0 70 15 154l183 1054h170l-185 -1064q-12 -65 -10 -103q1 -136 85 -204t269 -68zM867 1706l366 345l95 -125l-411 -280z" />
    <glyph glyph-name="Ucircumflex" unicode="&#xdb;" horiz-adv-x="1473" 
d="M751 128q339 0 439 212q34 70 51 165l185 1062h169l-183 -1051q-48 -271 -213 -404q-165 -134 -484 -134q-255 0 -373 94t-118 287q0 70 15 154l183 1054h170l-185 -1064q-12 -65 -10 -103q1 -136 85 -204t269 -68zM1038 2052h68l238 -338l-71 -60l-231 223l-308 -223
l-50 61z" />
    <glyph glyph-name="Udieresis" unicode="&#xdc;" horiz-adv-x="1473" 
d="M751 128q339 0 439 212q34 70 51 165l185 1062h169l-183 -1051q-48 -271 -213 -404q-165 -134 -484 -134q-255 0 -373 94t-118 287q0 70 15 154l183 1054h170l-185 -1064q-12 -65 -10 -103q1 -136 85 -204t269 -68zM832 1934q28 0 50 -23q21 -23 21 -51q0 -51 -34 -85
q-34 -35 -75 -35t-62 26t-21 47q0 23 2 35q3 12 13 30t26 30t34 19t46 7zM1284 1934q40 0 60 -23t21 -51q0 -53 -35 -86q-35 -34 -75 -34q-39 0 -61 26t-22 47q0 61 36 91t76 30z" />
    <glyph glyph-name="Yacute" unicode="&#xdd;" horiz-adv-x="1193" 
d="M507 0l124 715l-312 852h184l241 -704l488 704h184l-610 -835l-127 -732h-172zM841 1662l366 345l95 -125l-411 -280z" />
    <glyph glyph-name="Thorn" unicode="&#xde;" horiz-adv-x="1159" 
d="M655 1260q362 0 421.5 -139.5t59.5 -204.5t-8 -110t-25.5 -93t-71 -130t-188 -155.5t-335.5 -73.5h-125l-61 -354h-170l272 1567h170l-54 -307h115zM960 887q0 248 -369 248h-72l-114 -655h136q191 0 305 121.5t114 285.5z" />
    <glyph glyph-name="germandbls" unicode="&#xdf;" horiz-adv-x="1142" 
d="M713 106q211 0 252 243q4 23 4 57t-20.5 71.5t-51.5 68t-67.5 57.5t-88 74.5t-51.5 116.5q0 109 73 178.5t151.5 133.5t78.5 176q0 78 -48.5 114.5t-124.5 36.5q-135 0 -209 -90t-99 -232l-192 -1111h-158l192 1111q35 196 167 326t318 130q222 0 267.5 -90.5
t45.5 -152.5t-20.5 -110t-50.5 -86t-64.5 -68t-60.5 -55t-48 -45t-49.5 -54t-27.5 -71t22 -61t54.5 -49t125.5 -92.5t93 -215.5q0 -119 -51 -209.5t-135 -157.5t-254 -67q-109 0 -174.5 26.5t-83.5 42.5l90 124q92 -70 195 -70z" />
    <glyph glyph-name="agrave" unicode="&#xe0;" horiz-adv-x="1202" 
d="M837 986q-195 0 -336 -147t-141 -406q0 -137 62 -228q62 -90 170 -90q109 0 205 94q95 94 117 226l93 512q-76 39 -170 39zM889 0q-2 36 -2 85t9 107q-115 -209 -352 -209q-152 0 -254 110t-102 311q0 294 168 482q188 210 534 211q90 0 182 -16q93 -16 115 -23
l-117 -646q-32 -192 -32 -282t7 -130h-156zM1025 1207l-411 280l110 125l351 -345z" />
    <glyph glyph-name="aacute" unicode="&#xe1;" horiz-adv-x="1202" 
d="M837 986q-195 0 -336 -147t-141 -406q0 -137 62 -228q62 -90 170 -90q109 0 205 94q95 94 117 226l93 512q-76 39 -170 39zM889 0q-2 36 -2 85t9 107q-115 -209 -352 -209q-152 0 -254 110t-102 311q0 294 168 482q188 210 534 211q90 0 182 -16q93 -16 115 -23
l-117 -646q-32 -192 -32 -282t7 -130h-156zM689 1267l366 345l95 -125l-411 -280z" />
    <glyph glyph-name="acircumflex" unicode="&#xe2;" horiz-adv-x="1202" 
d="M837 986q-195 0 -336 -147t-141 -406q0 -137 62 -228q62 -90 170 -90q109 0 205 94q95 94 117 226l93 512q-76 39 -170 39zM889 0q-2 36 -2 85t9 107q-115 -209 -352 -209q-152 0 -254 110t-102 311q0 294 168 482q188 210 534 211q90 0 182 -16q93 -16 115 -23
l-117 -646q-32 -192 -32 -282t7 -130h-156zM867 1604h68l238 -338l-71 -60l-231 223l-308 -223l-50 61z" />
    <glyph glyph-name="atilde" unicode="&#xe3;" horiz-adv-x="1202" 
d="M837 986q-195 0 -336 -147t-141 -406q0 -137 62 -228q62 -90 170 -90q109 0 205 94q95 94 117 226l93 512q-76 39 -170 39zM889 0q-2 36 -2 85t9 107q-115 -209 -352 -209q-152 0 -254 110t-102 311q0 294 168 482q188 210 534 211q90 0 182 -16q93 -16 115 -23
l-117 -646q-32 -192 -32 -282t7 -130h-156zM987 1340q99 0 159 109l72 -42q-66 -132 -174 -177q-38 -16 -80 -16t-70 18q-30 18 -56 39t-52 39t-64 18q-39 0 -84 -31t-72 -81l-75 39q33 76 108 137t137 61q63 1 97 -17t60 -40t48 -38q22 -18 46 -18z" />
    <glyph glyph-name="adieresis" unicode="&#xe4;" horiz-adv-x="1202" 
d="M837 986q-195 0 -336 -147t-141 -406q0 -137 62 -228q62 -90 170 -90q109 0 205 94q95 94 117 226l93 512q-76 39 -170 39zM889 0q-2 36 -2 85t9 107q-115 -209 -352 -209q-152 0 -254 110t-102 311q0 294 168 482q188 210 534 211q90 0 182 -16q93 -16 115 -23
l-117 -646q-32 -192 -32 -282t7 -130h-156zM700 1500q28 0 49 -23t21 -51q0 -51 -34 -85q-34 -35 -75 -35t-62 26t-21 47q0 23 2 35t12 30t26 30t34 19q20 7 48 7zM1152 1500q40 0 60 -23t20 -51q0 -53 -35 -86q-35 -34 -75 -34t-62 26t-21 47q1 61 37 91t76 30z" />
    <glyph glyph-name="aring" unicode="&#xe5;" horiz-adv-x="1202" 
d="M837 986q-195 0 -336 -147t-141 -406q0 -137 62 -228q62 -90 170 -90q109 0 205 94q95 94 117 226l93 512q-76 39 -170 39zM889 0q-2 36 -2 85t9 107q-115 -209 -352 -209q-152 0 -254 110t-102 311q0 294 168 482q188 210 534 211q90 0 182 -16q93 -16 115 -23
l-117 -646q-32 -192 -32 -282t7 -130h-156zM1106 1634q58 -58 57 -130q0 -127 -89 -213q-89 -87 -190 -87q-100 0 -158 58t-58 136q0 79 34 134t72 88q83 71 178 71q96 1 154 -57zM878 1290q77 0 127 58t50 124q0 65 -30 99t-71 34q-69 0 -123 -52q-55 -52 -55 -121
q0 -70 30 -106t72 -36z" />
    <glyph glyph-name="ae" unicode="&#xe6;" horiz-adv-x="1861" 
d="M1662 827q0 143 -184 143q-144 0 -241 -115.5t-126 -266.5q551 9 551 239zM846 986q-75 0 -164 -35.5t-205.5 -148.5t-116.5 -362q0 -145 64 -234t168 -89t195.5 82t136.5 208q0 145 50 279t136 232q-45 33 -75.5 44t-72 17.5t-116.5 6.5zM188 420q0 121 42.5 245
t130.5 221q195 210 553 210q168 0 352 -56q112 56 250 56t222 -64t84 -188q0 -312 -322.5 -332.5t-405.5 -21.5q-4 -36 -4 -49q0 -328 233 -328q180 0 363 120l69 -112q-183 -139 -442 -139q-214 0 -283.5 98t-86.5 161q-154 -258 -384 -258q-258 3 -314.5 159.5
t-56.5 277.5z" />
    <glyph glyph-name="ccedilla" unicode="&#xe7;" horiz-adv-x="1057" 
d="M608 -78q134 -42 134 -158t-83.5 -198.5t-200.5 -82.5q-79 0 -115 25.5t-58 43.5l90 103q29 -29 50 -45t47 -16q53 0 93.5 42.5t40.5 109.5t-42.5 89t-75.5 26l49 125q-161 13 -256 125.5t-95 299.5q0 271 135 438t255 207.5t195 40.5q137 0 215 -32.5t135 -117.5
l-119 -94q-47 70 -98.5 98.5t-128.5 28.5t-130.5 -21.5t-120 -77t-117 -179.5t-50.5 -224q0 -178 68.5 -277.5t180.5 -99.5t168 28t89 56.5t69 67.5l97 -76q-132 -157 -314 -185q-36 -5 -75 -8z" />
    <glyph glyph-name="egrave" unicode="&#xe8;" horiz-adv-x="1108" 
d="M944 828q0 143 -184 143q-144 0 -240 -115q-97 -115 -127 -267q551 9 551 239zM206 399q0 283 158 487q164 212 428 211q142 0 227 -65t85 -187q0 -311 -558 -347q-86 -6 -170 -7q-4 -19 -4 -36v-20q0 -233 128 -299q44 -22 105 -22q186 0 363 120l69 -112
q-180 -139 -442 -139q-189 0 -289 115q-100 116 -100 301zM898 1207l-411 280l110 125l351 -345z" />
    <glyph glyph-name="eacute" unicode="&#xe9;" horiz-adv-x="1108" 
d="M944 828q0 143 -184 143q-144 0 -240 -115q-97 -115 -127 -267q551 9 551 239zM206 399q0 283 158 487q164 212 428 211q142 0 227 -65t85 -187q0 -311 -558 -347q-86 -6 -170 -7q-4 -19 -4 -36v-20q0 -233 128 -299q44 -22 105 -22q186 0 363 120l69 -112
q-180 -139 -442 -139q-189 0 -289 115q-100 116 -100 301zM659 1267l366 345l95 -125l-411 -280z" />
    <glyph glyph-name="ecircumflex" unicode="&#xea;" horiz-adv-x="1108" 
d="M944 828q0 143 -184 143q-144 0 -240 -115q-97 -115 -127 -267q551 9 551 239zM206 399q0 283 158 487q164 212 428 211q142 0 227 -65t85 -187q0 -311 -558 -347q-86 -6 -170 -7q-4 -19 -4 -36v-20q0 -233 128 -299q44 -22 105 -22q186 0 363 120l69 -112
q-180 -139 -442 -139q-189 0 -289 115q-100 116 -100 301zM806 1578h68l238 -338l-71 -60l-231 223l-308 -223l-50 61z" />
    <glyph glyph-name="edieresis" unicode="&#xeb;" horiz-adv-x="1108" 
d="M944 828q0 143 -184 143q-144 0 -240 -115q-97 -115 -127 -267q551 9 551 239zM206 399q0 283 158 487q164 212 428 211q142 0 227 -65t85 -187q0 -311 -558 -347q-86 -6 -170 -7q-4 -19 -4 -36v-20q0 -233 128 -299q44 -22 105 -22q186 0 363 120l69 -112
q-180 -139 -442 -139q-189 0 -289 115q-100 116 -100 301zM622 1500q28 0 49 -23t21 -51q0 -51 -34 -85q-34 -35 -75 -35t-62 26t-21 47q0 23 2 35t12 30t26 30t34 19q20 7 48 7zM1074 1500q40 0 60 -23t20 -51q0 -53 -35 -86q-35 -34 -75 -34t-62 26t-21 47q1 61 37 91
t76 30z" />
    <glyph glyph-name="igrave" unicode="&#xec;" horiz-adv-x="502" 
d="M355 1080h158l-187 -1080h-158zM553 1207l-411 280l110 125l351 -345z" />
    <glyph glyph-name="iacute" unicode="&#xed;" horiz-adv-x="502" 
d="M355 1080h158l-187 -1080h-158zM228 1267l366 345l95 -125l-411 -280z" />
    <glyph glyph-name="icircumflex" unicode="&#xee;" horiz-adv-x="502" 
d="M355 1080h158l-187 -1080h-158zM486 1604h68l238 -338l-71 -60l-231 223l-308 -223l-50 61z" />
    <glyph glyph-name="idieresis" unicode="&#xef;" horiz-adv-x="502" 
d="M355 1080h158l-187 -1080h-158zM278 1500q28 0 49 -23t21 -51q0 -51 -34 -85q-34 -35 -75 -35t-62 26t-21 47q0 23 2 35t12 30t26 30t34 19q20 7 48 7zM730 1500q40 0 60 -23t20 -51q0 -53 -35 -86q-35 -34 -75 -34t-62 26t-21 47q1 61 37 91t76 30z" />
    <glyph glyph-name="eth" unicode="&#xf0;" horiz-adv-x="1210" 
d="M1195 851q1 -134 -25 -279q-50 -283 -200.5 -437.5t-355.5 -154.5t-317 115t-112 313q0 64 18 166t74 201t171 195.5t325 96.5q93 0 148 -20t110 -77q0 99 -25.5 178.5t-97.5 164.5l-256 -138l-41 84l233 119q-38 36 -76 54.5t-90 36.5l75 118q135 -55 227 -138l202 109
l37 -86l-185 -93q161 -196 161 -528zM1009 662q0 38 -16 90t-66.5 117t-169.5 65q-164 0 -279 -121t-122 -375q0 -234 102 -281.5t168 -47.5t127.5 33t110.5 93t97 174.5t48 252.5z" />
    <glyph glyph-name="ntilde" unicode="&#xf1;" horiz-adv-x="1129" 
d="M868 1097q140 0 210 -69t70 -192q0 -44 -7 -81l-131 -755h-158l128 742q5 38 5 69q0 70 -45 113q-45 44 -108 44q-115 0 -198 -26t-171 -74l-150 -868h-158l163 940q9 55 16 140h153q-2 -46 -6 -103q187 120 387 120zM944 1340q99 0 159 109l72 -42q-65 -132 -173 -177
q-38 -16 -80 -16t-72 18t-55 39t-51 39t-65 18t-84 -31t-72 -81l-75 39q33 76 108 137t137 61q63 1 97 -17t60 -40t48 -38q22 -18 46 -18z" />
    <glyph glyph-name="ograve" unicode="&#xf2;" horiz-adv-x="1250" 
d="M202 406q0 277 168 479q176 212 452 212q192 0 298 -117t106 -310q0 -261 -169 -474t-436 -213q-203 0 -311 111t-108 312zM914 944q-50 26 -132 26q-80 0 -158 -42t-135 -114q-122 -157 -122 -394q0 -130 80 -220q81 -90 201 -90q178 0 300 176q114 163 114 373
t-148 285zM923 1207l-411 280l110 125l351 -345z" />
    <glyph glyph-name="oacute" unicode="&#xf3;" horiz-adv-x="1250" 
d="M202 406q0 277 168 479q176 212 452 212q192 0 298 -117t106 -310q0 -261 -169 -474t-436 -213q-203 0 -311 111t-108 312zM914 944q-50 26 -132 26q-80 0 -158 -42t-135 -114q-122 -157 -122 -394q0 -130 80 -220q81 -90 201 -90q178 0 300 176q114 163 114 373
t-148 285zM714 1267l366 345l95 -125l-411 -280z" />
    <glyph glyph-name="ocircumflex" unicode="&#xf4;" horiz-adv-x="1250" 
d="M202 406q0 277 168 479q176 212 452 212q192 0 298 -117t106 -310q0 -261 -169 -474t-436 -213q-203 0 -311 111t-108 312zM914 944q-50 26 -132 26q-80 0 -158 -42t-135 -114q-122 -157 -122 -394q0 -130 80 -220q81 -90 201 -90q178 0 300 176q114 163 114 373
t-148 285zM867 1567h68l238 -338l-71 -60l-231 223l-308 -223l-50 61z" />
    <glyph glyph-name="otilde" unicode="&#xf5;" horiz-adv-x="1250" 
d="M202 406q0 277 168 479q176 212 452 212q192 0 298 -117t106 -310q0 -261 -169 -474t-436 -213q-203 0 -311 111t-108 312zM914 944q-50 26 -132 26q-80 0 -158 -42t-135 -114q-122 -157 -122 -394q0 -130 80 -220q81 -90 201 -90q178 0 300 176q114 163 114 373
t-148 285zM983 1340q99 0 159 109l72 -42q-66 -132 -174 -177q-38 -16 -80 -16t-70 18q-30 18 -56 39t-52 39t-64 18q-39 0 -84 -31t-72 -81l-75 39q33 76 108 137t137 61q63 1 97 -17t60 -40t48 -38q22 -18 46 -18z" />
    <glyph glyph-name="odieresis" unicode="&#xf6;" horiz-adv-x="1250" 
d="M202 406q0 277 168 479q176 212 452 212q192 0 298 -117t106 -310q0 -261 -169 -474t-436 -213q-203 0 -311 111t-108 312zM914 944q-50 26 -132 26q-80 0 -158 -42t-135 -114q-122 -157 -122 -394q0 -130 80 -220q81 -90 201 -90q178 0 300 176q114 163 114 373
t-148 285zM716 1500q28 0 50 -23q21 -23 21 -51q0 -51 -34 -85q-34 -35 -75 -35t-62 26t-21 47q0 23 2 35q3 12 13 30t26 30t34 19t46 7zM1168 1500q40 0 60 -23t21 -51q0 -53 -35 -86q-35 -34 -75 -34q-39 0 -61 26t-22 47q0 61 36 91t76 30z" />
    <glyph glyph-name="divide" unicode="&#xf7;" horiz-adv-x="1154" 
d="M1213 709l-14 -122h-1033l14 122h1033zM826 889.5q-40 -43.5 -87 -43.5q-46 0 -72.5 28t-26.5 78t44.5 90t88.5 40q43 0 68 -26.5t25 -74.5t-40 -91.5zM715.5 253q-39.5 -43 -87.5 -43q-47 0 -73 28t-26 79t44 90t89 39q44 0 68.5 -27t24.5 -75t-39.5 -91z" />
    <glyph glyph-name="oslash" unicode="&#xf8;" horiz-adv-x="1250" 
d="M807 970q-196 0 -318 -157t-122 -393q0 -71 24 -129l590 603q-69 76 -174 76zM1062 653q0 78 -23 144l-589 -601q79 -87 195 -87q181 0 299 169.5t118 374.5zM819 1097q166 0 273 -90l109 112l78 -76l-117 -119q64 -107 64 -255q0 -261 -136 -432t-253.5 -213t-206.5 -42
q-192 0 -299 92l-134 -137l-78 76l142 145q-59 98 -59 248q0 277 139 444.5t261.5 207t216.5 39.5z" />
    <glyph glyph-name="ugrave" unicode="&#xf9;" horiz-adv-x="1127" 
d="M416 -17q-128 0 -194 70q-67 70 -67 190q0 43 7 84l131 753h158l-129 -741q-4 -25 -4 -57q0 -70 47 -114t133 -44q174 0 344 114l146 842h158l-163 -939q-10 -55 -10 -141h-161l-1 15q0 44 8 97q-169 -100 -293 -121q-48 -8 -110 -8zM930 1207l-411 280l110 125l351 -345
z" />
    <glyph glyph-name="uacute" unicode="&#xfa;" horiz-adv-x="1127" 
d="M416 -17q-128 0 -194 70q-67 70 -67 190q0 43 7 84l131 753h158l-129 -741q-4 -25 -4 -57q0 -70 47 -114t133 -44q174 0 344 114l146 842h158l-163 -939q-10 -55 -10 -141h-161l-1 15q0 44 8 97q-169 -100 -293 -121q-48 -8 -110 -8zM556 1267l366 345l95 -125l-411 -280
z" />
    <glyph glyph-name="ucircumflex" unicode="&#xfb;" horiz-adv-x="1127" 
d="M416 -17q-128 0 -194 70q-67 70 -67 190q0 43 7 84l131 753h158l-129 -741q-4 -25 -4 -57q0 -70 47 -114t133 -44q174 0 344 114l146 842h158l-163 -939q-10 -55 -10 -141h-161l-1 15q0 44 8 97q-169 -100 -293 -121q-48 -8 -110 -8zM783 1604h68l238 -338l-71 -60
l-231 223l-308 -223l-50 61z" />
    <glyph glyph-name="udieresis" unicode="&#xfc;" horiz-adv-x="1127" 
d="M416 -17q-128 0 -194 70q-67 70 -67 190q0 43 7 84l131 753h158l-129 -741q-4 -25 -4 -57q0 -70 47 -114t133 -44q174 0 344 114l146 842h158l-163 -939q-10 -55 -10 -141h-161l-1 15q0 44 8 97q-169 -100 -293 -121q-48 -8 -110 -8zM584 1500q28 0 49 -23t21 -51
q0 -51 -34 -85q-34 -35 -75 -35t-62 26t-21 47q0 23 2 35t12 30t26 30t34 19q20 7 48 7zM1036 1500q40 0 60 -23t20 -51q0 -53 -35 -86q-35 -34 -75 -34t-62 26t-21 47q1 61 37 91t76 30z" />
    <glyph glyph-name="yacute" unicode="&#xfd;" horiz-adv-x="1020" 
d="M-10 -320q66 0 112 20t84 56q55 53 114 158q58 105 75 157l-231 1009h170l177 -864l434 864h171l-633 -1164q-55 -92 -103 -162t-104 -120q-112 -98 -284 -99q-76 0 -158 19l56 151q54 -25 120 -25zM578 1267l366 345l95 -125l-411 -280z" />
    <glyph glyph-name="thorn" unicode="&#xfe;" horiz-adv-x="1129" 
d="M841 1097q65 0 190.5 -57t125.5 -331t-122 -455t-231.5 -226.5t-175.5 -45.5q-117 0 -178 16t-135 62l-89 -513h-159l351 2020h158l-96 -552q161 64 228.5 73t132.5 9zM989 681q1 281 -239 281q-156 0 -291 -68l-120 -692q97 -84 287 -84q162 0 262.5 174t100.5 389z" />
    <glyph glyph-name="ydieresis" unicode="&#xff;" horiz-adv-x="1039" 
d="M-10 -320q66 0 112 20t84 56q55 53 114 158q58 105 75 157l-231 1009h170l177 -864l434 864h171l-633 -1164q-55 -92 -103 -162t-104 -120q-112 -98 -284 -99q-76 0 -158 19l56 151q54 -25 120 -25zM548 1500q28 0 49 -23t21 -51q0 -51 -34 -85q-34 -35 -75 -35t-62 26
t-21 47q0 23 2 35t12 30t26 30t34 19q20 7 48 7zM1000 1500q40 0 60 -23t20 -51q0 -53 -35 -86q-35 -34 -75 -34t-62 26t-21 47q1 61 37 91t76 30z" />
    <glyph glyph-name="dotlessi" unicode="&#x131;" horiz-adv-x="502" 
d="M355 1080h158l-187 -1080h-158z" />
    <glyph glyph-name="OE" unicode="&#x152;" horiz-adv-x="1990" 
d="M801 -20q-271 0 -413 155.5t-142 437.5t117.5 520.5t315 376.5t424.5 138q119 0 238 -41h829l-24 -138h-680l-94 -539h544l-23 -131h-544l-108 -621h709l-23 -138h-861q-127 -20 -265 -20zM431 622q0 -235 105.5 -367.5t292.5 -132.5q147 0 247 43l218 1253
q-109 46 -204 46q-96 0 -175 -28t-189.5 -108.5t-202.5 -275.5t-92 -430z" />
    <glyph glyph-name="oe" unicode="&#x153;" horiz-adv-x="1979" 
d="M1780 828q0 143 -184 143q-144 0 -241 -115.5t-126 -266.5q551 9 551 239zM1062 619.5q0 171.5 -68 261t-201 89.5q-182 0 -304 -156t-122 -394q0 -151 78.5 -231t202.5 -80q179 0 296.5 169.5t117.5 341zM202 400q0 291 171 494t444 203t361 -229q122 163 246 196
t190 33q326 0 326 -252q0 -312 -322.5 -332.5t-405.5 -21.5q-4 -22 -4 -57q0 -321 233 -321q180 0 363 120l69 -112q-183 -139 -451 -139q-269 0 -344 267q-48 -107 -174 -187t-274 -80q-198 0 -313 113.5t-115 304.5z" />
    <glyph glyph-name="Scaron" unicode="&#x160;" horiz-adv-x="1204" 
d="M493 1231q0 -77 25 -126q26 -49 68 -87t100 -72q58 -33 106 -60q49 -28 92 -50t88 -50q241 -150 241 -362q1 -219 -185 -341q-164 -108 -412 -108t-404 124q-53 42 -104 99l134 131q99 -113 164 -149q109 -60 207 -60q184 0 299 78q114 78 114 212q0 135 -219 257
t-297 177q-79 56 -122 106q-83 96 -83 219q0 217 182 335q160 104 380 104q221 0 355 -105q48 -37 90 -90l-115 -118q-127 179 -334 179t-309 -104q-60 -62 -61 -139zM633 2007l76 62l227 -226l308 226l52 -62l-350 -331h-78z" />
    <glyph glyph-name="scaron" unicode="&#x161;" horiz-adv-x="992" 
d="M699 157q79 50 79 141q0 104 -133 154l-36 14q-20 8 -43 16q-24 9 -44 17t-41 16q-93 35 -143 75q-86 70 -86 168q0 173 126 256t293 83q216 0 329 -127l-103 -102q-108 108 -224 108q-117 0 -191 -43q-75 -43 -75 -131q0 -98 167 -156q167 -59 214 -83q146 -74 146 -219
q0 -178 -130 -269q-130 -92 -310 -92q-179 1 -297 101q-38 32 -74 74l117 104q65 -80 111 -107q79 -48 174 -48t174 50zM418 1537l76 62l227 -226l308 226l52 -62l-350 -331h-78z" />
    <glyph glyph-name="Ydieresis" unicode="&#x178;" horiz-adv-x="1193" 
d="M507 0l124 715l-312 852h184l241 -704l488 704h184l-610 -835l-127 -732h-172zM694 1945q28 0 49 -23q21 -22 21 -50q0 -51 -34 -86t-75 -35q-41 -1 -62 25t-21 48t2 34t12 30t26 30t34 20q20 7 48 7zM1146 1945q40 0 60 -23t20 -51q0 -53 -35 -86q-35 -34 -75 -34
q-40 -1 -62 25t-21 48q1 61 37 91t76 30z" />
    <glyph glyph-name="Zcaron" unicode="&#x17d;" horiz-adv-x="1109" 
d="M356 1567h950l-22 -125l-1029 -1282h816l-27 -160h-985l23 137l1036 1270h-790zM611 2008l76 62l227 -226l308 226l52 -62l-350 -331h-78z" />
    <glyph glyph-name="zcaron" unicode="&#x17e;" horiz-adv-x="985" 
d="M294 1080h785l-21 -124l-775 -809h648l-25 -147h-837l22 128l784 805h-606zM451 1537l76 62l227 -226l308 226l52 -62l-350 -331h-78z" />
    <glyph glyph-name="florin" unicode="&#x192;" horiz-adv-x="669" 
d="M-47 -320q92 0 144 61.5t75 193.5l176 1013h-144l24 137h144l12 72q38 215 161 319.5t294 104.5q126 0 191 -50l-87 -139q-93 56 -142 56q-206 0 -251 -260l-18 -103h258l-42 -137h-240l-179 -1030q-50 -277 -191 -325.5t-206 -48.5q-116 0 -191 52l89 140
q81 -56 123 -56z" />
    <glyph glyph-name="circumflex" unicode="&#x2c6;" horiz-adv-x="0" 
d="M244 1604h68l238 -338l-71 -60l-231 223l-308 -223l-50 61z" />
    <glyph glyph-name="caron" unicode="&#x2c7;" horiz-adv-x="0" 
d="M-65 1537l76 62l227 -226l308 226l52 -62l-350 -331h-78z" />
    <glyph glyph-name="breve" unicode="&#x2d8;" horiz-adv-x="0" 
d="M403.5 1426q85.5 49 157.5 160l80 -40q-79 -163 -201 -251t-234 -88t-207.5 89.5t-114.5 247.5l96 42q29 -111 102.5 -160t154.5 -49t166.5 49z" />
    <glyph glyph-name="dotaccent" unicode="&#x2d9;" horiz-adv-x="1037" 
d="M903 1845.5q-43 -43.5 -95 -43.5t-79 28.5t-27 78.5t46 91.5t95 41.5q48 0 75.5 -29.5t27.5 -76.5t-43 -90.5z" />
    <glyph glyph-name="ring" unicode="&#x2da;" horiz-adv-x="0" 
d="M441.5 1633.5q57.5 -57.5 57.5 -129.5q0 -127 -89 -213.5t-190 -86.5t-158.5 57.5t-57.5 136.5t33.5 134t94 107t156.5 52t153.5 -57.5zM214 1290q77 0 127 58.5t50 123.5t-30 99t-71 34q-69 0 -123.5 -52t-54.5 -121t30 -105.5t72 -36.5z" />
    <glyph glyph-name="ogonek" unicode="&#x2db;" horiz-adv-x="0" 
d="M-103 -245q0 -79 78 -79q56 0 118 24l18 -84q-111 -69 -193 -69q-118 0 -143 57t-25 106q0 97 64 180.5t145 129.5h118l-4 -19q-47 -17 -102.5 -78.5t-64.5 -103.5t-9 -64z" />
    <glyph glyph-name="tilde" unicode="&#x2dc;" horiz-adv-x="0" 
d="M360 1340q99 0 159 109l72 -42q-66 -132 -138.5 -162.5t-114.5 -30.5t-71.5 18t-55.5 39t-51.5 39t-64.5 18t-84 -31t-72 -81l-75 39q33 76 108 137t137 61q63 0 97 -17.5t60 -39t48 -39t46 -17.5z" />
    <glyph glyph-name="uni0307" unicode="&#x307;" horiz-adv-x="0" 
d="M312.5 1251.5q-42.5 -44.5 -94.5 -44.5q-53 0 -80 28.5t-27 78.5t46 91.5t95 41.5q48 0 75.5 -28.5t27.5 -75.5t-42.5 -91.5z" />
    <glyph glyph-name="uni1401" unicode="&#x1401;" horiz-adv-x="1624" 
d="M1570 1423h-1005l-3 -16l295 -1140h9l702 1145zM327 1547l4 20h1514l-3 -17l-1018 -1565h-35z" />
    <glyph glyph-name="uni1402" unicode="&#x1402;" horiz-adv-x="1624" 
d="M328 144h1007l3 15l-296 1140h-8l-704 -1145zM1572 20l-3 -20h-1514l3 18l1016 1563h36zM1348 2182q58 -58 57 -130q0 -127 -89 -213q-89 -87 -190 -87q-100 0 -158 58t-58 136q0 79 34 134t72 88q83 71 178 71q96 1 154 -57zM1120 1838q77 0 127 58t50 124q0 65 -30 99
t-71 34q-69 0 -123 -52q-55 -52 -55 -121q0 -70 30 -106t72 -36z" />
    <glyph glyph-name="uni1403" unicode="&#x1403;" horiz-adv-x="1624" 
d="M328 144h1007l3 15l-296 1140h-8l-704 -1145zM1572 20l-3 -20h-1514l3 18l1016 1563h36z" />
    <glyph glyph-name="uni1404" unicode="&#x1404;" horiz-adv-x="1624" 
d="M328 144h1007l3 15l-296 1140h-8l-704 -1145zM1572 20l-3 -20h-1514l3 18l1016 1563h36zM1218 1798q-42 -45 -95 -45q-53 1 -80 29t-27 78t46 92q46 41 95 41q47 -1 75 -29t28 -75q0 -46 -42 -91z" />
    <glyph glyph-name="uni1405" unicode="&#x1405;" horiz-adv-x="1527" 
d="M556 1304l-182 -1034h16l950 518l3 12l-776 504h-11zM189 -12h-23l281 1593h21l1149 -775l-7 -36z" />
    <glyph glyph-name="uni1406" unicode="&#x1406;" horiz-adv-x="1527" 
d="M556 1304l-182 -1034h16l950 518l3 12l-776 504h-11zM189 -12h-23l281 1593h21l1149 -775l-7 -36zM668 1798q-42 -45 -95 -45q-53 1 -80 29t-27 78t46 92q46 41 95 41q47 -1 75 -29t28 -75q0 -46 -42 -91z" />
    <glyph glyph-name="uni1407" unicode="&#x1407;" horiz-adv-x="1527" 
d="M556 1304l-182 -1034h16l950 518l3 12l-776 504h-11zM189 -12h-23l281 1593h21l1149 -775l-7 -36zM668 1798q-42 -45 -95 -45q-53 1 -80 29t-27 78t46 92q46 41 95 41q47 -1 75 -29t28 -75q0 -46 -42 -91zM1245 1798q-42 -45 -95 -45q-53 1 -80 29t-27 78t46 92
q46 41 95 41q48 -1 76 -29t27 -75q0 -46 -42 -91z" />
    <glyph glyph-name="uni1408" unicode="&#x1408;" horiz-adv-x="1527" 
d="M556 1304l-182 -1034h16l950 518l3 12l-776 504h-11zM189 -12h-23l281 1593h21l1149 -775l-7 -36zM815 980l-66 -378h-158l66 378h158z" />
    <glyph glyph-name="uni1409" unicode="&#x1409;" horiz-adv-x="1527" 
d="M556 1304l-182 -1034h16l950 518l3 12l-776 504h-11zM189 -12h-23l281 1593h21l1149 -775l-7 -36zM830 713q-42 -45 -95 -45t-80 28t-27 79q0 50 46 92q46 41 95 41q47 0 75 -28t28 -76q0 -46 -42 -91z" />
    <glyph glyph-name="uni140A" unicode="&#x140a;" horiz-adv-x="1532" 
d="M1252 270l182 1034h-11l-952 -504l-3 -12l768 -518h16zM1620 1581h21l-281 -1593h-23l-1145 782l7 36z" />
    <glyph glyph-name="uni140B" unicode="&#x140b;" horiz-adv-x="1527" 
d="M1679 1798q-42 -45 -95 -45q-53 1 -80 29t-27 78t46 92q46 41 95 41q48 -1 76 -29t27 -75q0 -46 -42 -91zM1248 270l182 1034h-11l-952 -504l-3 -12l768 -518h16zM1616 1581h21l-281 -1593h-23l-1145 782l7 36z" />
    <glyph glyph-name="uni140C" unicode="&#x140c;" horiz-adv-x="1644" 
d="M1589 1423h-1005l-3 -16l295 -1140h9l702 1145zM346 1547l4 20h1514l-3 -17l-1018 -1565h-35zM384 713q-42 -45 -95 -45t-80 28t-27 79q0 50 46 92q46 41 95 41q47 0 75 -28t28 -76q0 -46 -42 -91z" />
    <glyph glyph-name="uni140D" unicode="&#x140d;" horiz-adv-x="1643" 
d="M1570 1423h-1005l-3 -16l295 -1140h9l702 1145zM327 1547l4 20h1514l-3 -17l-1018 -1565h-35zM1696 713q-42 -45 -95 -45t-80 28t-27 79q0 50 46 92q46 41 95 41q47 0 75 -28t28 -76q0 -46 -42 -91z" />
    <glyph glyph-name="uni140E" unicode="&#x140e;" horiz-adv-x="1643" 
d="M347 144h1007l3 15l-296 1140h-8l-704 -1145zM1591 20l-3 -20h-1514l3 18l1016 1563h36zM384 713q-42 -45 -95 -45t-80 28t-27 79q0 50 46 92q46 41 95 41q47 0 75 -28t28 -76q0 -46 -42 -91z" />
    <glyph glyph-name="uni140F" unicode="&#x140f;" horiz-adv-x="1644" 
d="M328 144h1007l3 15l-296 1140h-8l-704 -1145zM1572 20l-3 -20h-1514l3 18l1016 1563h36zM1697 714q-42 -45 -95 -45q-53 1 -80 29t-27 78t46 92q46 41 95 41q48 -1 76 -29t27 -75q0 -46 -42 -91z" />
    <glyph glyph-name="uni1410" unicode="&#x1410;" horiz-adv-x="1644" 
d="M348 144h1007l3 15l-296 1140h-8l-704 -1145zM1592 20l-3 -20h-1514l3 18l1016 1563h36zM1240 1798q-42 -45 -95 -45q-53 1 -80 29t-27 78t46 92q46 41 95 41q47 -1 75 -29t28 -75q0 -46 -42 -91zM385 714q-42 -45 -95 -45q-53 1 -80 29t-27 78t46 92q46 41 95 41
q48 -1 76 -29t27 -75q0 -46 -42 -91z" />
    <glyph glyph-name="uni1411" unicode="&#x1411;" horiz-adv-x="1643" 
d="M328 144h1007l3 15l-296 1140h-8l-704 -1145zM1572 20l-3 -20h-1514l3 18l1016 1563h36zM1696 714q-42 -45 -95 -45q-53 1 -80 29t-27 78t46 92q46 41 95 41q47 -1 75 -29t28 -75q0 -46 -42 -91zM1220 1798q-42 -45 -95 -45q-53 1 -80 29t-27 78t46 92q46 41 95 41
q47 -1 75 -29t28 -75q0 -46 -42 -91z" />
    <glyph glyph-name="uni1412" unicode="&#x1412;" horiz-adv-x="1810" 
d="M839 1304l-182 -1034h16l950 518l3 12l-776 504h-11zM472 -12h-23l281 1593h21l1149 -775l-7 -36zM384 713q-42 -45 -95 -45t-80 28t-27 79q0 50 46 92q46 41 95 41q47 0 75 -28t28 -76q0 -46 -42 -91z" />
    <glyph glyph-name="uni1413" unicode="&#x1413;" horiz-adv-x="1914" 
d="M556 1304l-182 -1034h16l950 518l3 12l-776 504h-11zM189 -12h-23l281 1593h21l1149 -775l-7 -36zM1967 713q-42 -45 -95 -45t-80 28t-27 79q0 50 46 92q46 41 95 41q48 0 76 -28t27 -76q0 -46 -42 -91z" />
    <glyph glyph-name="uni1414" unicode="&#x1414;" horiz-adv-x="1810" 
d="M839 1304l-182 -1034h16l950 518l3 12l-776 504h-11zM472 -12h-23l281 1593h21l1149 -775l-7 -36zM384 713q-42 -45 -95 -45t-80 28t-27 79q0 50 46 92q46 41 95 41q47 0 75 -28t28 -76q0 -46 -42 -91zM945 1798q-42 -45 -95 -45q-53 1 -80 29t-27 78t46 92q46 41 95 41
q48 -1 76 -29t27 -75q0 -46 -42 -91z" />
    <glyph glyph-name="uni1415" unicode="&#x1415;" horiz-adv-x="1914" 
d="M556 1304l-182 -1034h16l950 518l3 12l-776 504h-11zM189 -12h-23l281 1593h21l1149 -775l-7 -36zM662 1798q-42 -45 -95 -45q-53 1 -80 29t-27 78t46 92q46 41 95 41q47 -1 75 -29t28 -75q0 -46 -42 -91zM1967 713q-42 -45 -95 -45t-80 28t-27 79q0 50 46 92
q46 41 95 41q48 0 76 -28t27 -76q0 -46 -42 -91z" />
    <glyph glyph-name="uni1416" unicode="&#x1416;" horiz-adv-x="1527" 
d="M556 1304l-182 -1034h16l950 518l3 12l-776 504h-11zM189 -12h-23l281 1593h21l1149 -775l-7 -36zM662 1798q-42 -45 -95 -45q-53 1 -80 29t-27 78t46 92q46 41 95 41q47 -1 75 -29t28 -75q0 -46 -42 -91zM1414 1396q-42 -45 -95 -45q-53 1 -80 29t-27 78t46 92
q46 41 95 41q47 -1 75 -29t28 -75q0 -46 -42 -91z" />
    <glyph glyph-name="uni1417" unicode="&#x1417;" horiz-adv-x="1913" 
d="M384 713q-42 -45 -95 -45t-80 28t-27 79q0 50 46 92q46 41 95 41q47 0 75 -28t28 -76q0 -46 -42 -91zM1633 270l182 1034h-11l-952 -504l-3 -12l768 -518h16zM2001 1581h21l-281 -1593h-23l-1145 782l7 36z" />
    <glyph glyph-name="uni1418" unicode="&#x1418;" horiz-adv-x="1809" 
d="M1862 713q-42 -45 -95 -45t-80 28t-27 79q0 50 46 92q46 41 95 41q47 0 75 -28t28 -76q0 -46 -42 -91zM1248 270l182 1034h-11l-952 -504l-3 -12l768 -518h16zM1616 1581h21l-281 -1593h-23l-1145 782l7 36z" />
    <glyph glyph-name="uni1419" unicode="&#x1419;" horiz-adv-x="1914" 
d="M2064 1798q-42 -45 -95 -45q-53 1 -80 29t-27 78t46 92q46 41 95 41q47 -1 75 -29t28 -75q0 -46 -42 -91zM384 713q-42 -45 -95 -45t-80 28t-27 79q0 50 46 92q46 41 95 41q47 0 75 -28t28 -76q0 -46 -42 -91zM1634 270l182 1034h-11l-952 -504l-3 -12l768 -518h16z
M2002 1581h21l-281 -1593h-23l-1145 782l7 36z" />
    <glyph glyph-name="uni141A" unicode="&#x141a;" horiz-adv-x="1809" 
d="M1684 1798q-42 -45 -95 -45q-53 1 -80 29t-27 78t46 92q46 41 95 41q47 -1 75 -29t28 -75q0 -46 -42 -91zM1862 714q-42 -45 -95 -45q-53 1 -80 29t-27 78t46 92q46 41 95 41q47 -1 75 -29t28 -75q0 -46 -42 -91zM1248 270l182 1034h-11l-952 -504l-3 -12l768 -518h16z
M1616 1581h21l-281 -1593h-23l-1145 782l7 36z" />
    <glyph glyph-name="uni141B" unicode="&#x141b;" horiz-adv-x="1527" 
d="M1684 1798q-42 -45 -95 -45q-53 1 -80 29t-27 78t46 92q46 41 95 41q47 -1 75 -29t28 -75q0 -46 -42 -91zM769 1396q-42 -45 -95 -45q-53 1 -80 29t-27 78t46 92q46 41 95 41q48 -1 76 -29t27 -75q0 -46 -42 -91zM1248 270l182 1034h-11l-952 -504l-3 -12l768 -518h16z
M1616 1581h21l-281 -1593h-23l-1145 782l7 36z" />
    <glyph glyph-name="uni141C" unicode="&#x141c;" horiz-adv-x="1362" 
d="M1079 668q-171 0 -245 191q-149 -191 -302 -191q-183 0 -224.5 114.5t-41.5 194.5t18 181l72 409h135l-74 -418q-14 -79 -14 -160t47 -137t122 -56q76 0 142 74t109 320l67 377h135l-67 -377q-21 -118 -21 -184q0 -115 43 -162.5t100 -47.5q107 0 173 93t103 301l67 377
h135l-72 -405q-48 -270 -166 -382t-241 -112z" />
    <glyph glyph-name="uni141D" unicode="&#x141d;" horiz-adv-x="1211" 
d="M1314 1520q60 -60 60 -128q0 -124 -89.5 -214t-190.5 -90t-160 56.5t-59 142.5q0 123 93.5 208t189.5 85t156 -60zM1037.5 1234.5q27.5 -27.5 57.5 -27.5q56 0 100 46t44 98t-25.5 81t-59.5 29t-56 -10t-39.5 -27.5t-33 -47t-15.5 -72.5q0 -42 27.5 -69.5zM670 1100.5
q61 -59.5 61 -127.5q0 -122 -88 -213.5t-192 -91.5t-162 57t-58 144q0 120 94 205.5t189 85.5t156 -59.5zM393.5 815q28.5 -28 58.5 -28q56 0 102 46.5t46 100.5t-26 83.5t-60 29.5t-56.5 -10.5t-40.5 -28t-35 -48t-17 -74.5q0 -43 28.5 -71z" />
    <glyph glyph-name="uni141E" unicode="&#x141e;" horiz-adv-x="1014" 
d="M382 798h530l2 9l-172 530h-4l-355 -533zM1116 694l-5 -26h-974l5 25l634 888h18z" />
    <glyph glyph-name="uni141F" unicode="&#x141f;" horiz-adv-x="654" 
d="M147 668l592 899h164l-596 -899h-160z" />
    <glyph glyph-name="uni1420" unicode="&#x1420;" horiz-adv-x="654" 
d="M466 1567l278 -899h-164l-274 899h160z" />
    <glyph glyph-name="uni1421" unicode="&#x1421;" horiz-adv-x="940" 
d="M627 925q-303 0 -303 297q0 79 20 193l27 152h135l-29 -161q-15 -81 -15 -149q0 -121 45.5 -162.5t126.5 -41.5q82 0 132.5 18t105 83.5t93.5 292.5l21 120h135l-26 -148q-48 -264 -149.5 -379t-318.5 -115z" />
    <glyph glyph-name="uni1422" unicode="&#x1422;" horiz-adv-x="940" 
d="M917 1244q0 120 -44.5 164t-156.5 44t-185.5 -79t-107.5 -274l-28 -161h-135l27 152q52 297 174 393q121 97 281 97q225 0 269 -107.5t44 -194.5t-19 -192l-26 -148h-135l21 120q21 120 21 186z" />
    <glyph glyph-name="uni1423" unicode="&#x1423;" horiz-adv-x="699" 
d="M274 798q180 0 281.5 81t113.5 205t12 165q0 96 -71.5 142t-224.5 46h-64l23 130h82q205 0 301 -78.5t96 -235.5q0 -227 -72 -334t-110 -140q-128 -111 -405 -111h-52l23 130h67z" />
    <glyph glyph-name="uni1424" unicode="&#x1424;" horiz-adv-x="986" 
d="M438.5 549q55.5 -50 128.5 -50q132 0 212 85.5t80 182.5t-52.5 149.5t-124.5 52.5t-118 -18t-82 -50t-67.5 -88t-31.5 -135t55.5 -129zM921.5 1012.5q79.5 -84.5 79.5 -213.5q0 -172 -130 -300t-313 -128q-145 0 -230.5 81.5t-85.5 199.5t47.5 199.5t139 163.5t252.5 82
t240.5 -84.5z" />
    <glyph glyph-name="uni1425" unicode="&#x1425;" horiz-adv-x="1023" 
d="M522 668l592 899h164l-596 -899h-160zM147 668l592 899h164l-596 -899h-160z" />
    <glyph glyph-name="uni1426" unicode="&#x1426;" horiz-adv-x="652" 
d="M830 1567l-159 -899h-135l159 899h135zM486 1567l-159 -899h-135l159 899h135z" />
    <glyph glyph-name="uni1427" unicode="&#x1427;" horiz-adv-x="426" 
d="M435 713q-42 -45 -95 -45t-80 28t-27 79q0 50 46 92q46 41 95 41q48 0 76 -28t27 -76q0 -46 -42 -91z" />
    <glyph glyph-name="uni1428" unicode="&#x1428;" horiz-adv-x="820" 
d="M227 1174h780l-23 -130h-780z" />
    <glyph glyph-name="uni1429" unicode="&#x1429;" horiz-adv-x="845" 
d="M236 1171h325l70 396h135l-70 -396h325l-23 -130h-325l-66 -373h-135l66 373h-325z" />
    <glyph glyph-name="uni142A" unicode="&#x142a;" horiz-adv-x="817" 
d="M306 1567h757l-23 -130h-311l-136 -769h-135l136 769h-311z" />
    <glyph glyph-name="uni142B" unicode="&#x142b;" horiz-adv-x="2273" 
d="M1570 1423h-1005l-3 -16l295 -1140h9l702 1145zM327 1547l4 20h1514l-3 -17l-1018 -1565h-35zM2068 1567l278 -899h-164l-274 899h160z" />
    <glyph glyph-name="uni142C" unicode="&#x142c;" horiz-adv-x="1822" 
d="M328 144h1007l3 15l-296 1140h-8l-704 -1145zM1572 20l-3 -20h-1514l3 18l1016 1563h36zM1617 1567l278 -899h-164l-274 899h160z" />
    <glyph glyph-name="uni142D" unicode="&#x142d;" horiz-adv-x="1961" 
d="M556 1304l-182 -1034h16l950 518l3 12l-776 504h-11zM189 -12h-23l281 1593h21l1149 -775l-7 -36zM1756 1567l278 -899h-164l-274 899h160z" />
    <glyph glyph-name="uni142E" unicode="&#x142e;" horiz-adv-x="2146" 
d="M1941 1567l278 -899h-164l-274 899h160zM1248 270l182 1034h-11l-952 -504l-3 -12l768 -518h16zM1616 1581h21l-281 -1593h-23l-1145 782l7 36z" />
    <glyph glyph-name="uni142F" unicode="&#x142f;" horiz-adv-x="1702" 
d="M865 -15h-33l-501 1572l2 10h188l374 -1287h7l831 1287h188l-2 -11z" />
    <glyph glyph-name="uni1430" unicode="&#x1430;" horiz-adv-x="1698" 
d="M1644 11l-1 -11h-188l-378 1287h-7l-827 -1287h-188l1 10l1055 1572h33zM1388 2182q58 -58 57 -130q0 -127 -89 -213q-89 -87 -190 -87q-100 0 -158 58t-58 136q0 79 34 134t72 88q83 71 178 71q96 1 154 -57zM1160 1838q77 0 127 58t50 124q0 65 -30 99t-71 34
q-69 0 -123 -52q-55 -52 -55 -121q0 -70 30 -106t72 -36z" />
    <glyph glyph-name="uni1431" unicode="&#x1431;" horiz-adv-x="1698" 
d="M1644 11l-1 -11h-188l-378 1287h-7l-827 -1287h-188l1 10l1055 1572h33z" />
    <glyph glyph-name="uni1432" unicode="&#x1432;" horiz-adv-x="1698" 
d="M1254 1798q-42 -45 -95 -45q-53 1 -80 29t-27 78t46 92q46 41 95 41q47 -1 75 -29t28 -75q0 -46 -42 -91zM1644 11l-1 -11h-188l-378 1287h-7l-827 -1287h-188l1 10l1055 1572h33z" />
    <glyph glyph-name="uni1433" unicode="&#x1433;" horiz-adv-x="1555" 
d="M156 -15h-18l29 167l1204 631l1 9l-983 620l30 169h18l1202 -777l-6 -37z" />
    <glyph glyph-name="uni1434" unicode="&#x1434;" horiz-adv-x="1555" 
d="M625 1798q-42 -45 -95 -45q-53 1 -80 29t-27 78t46 92q46 41 95 41q48 -1 76 -29t27 -75q0 -46 -42 -91zM156 -15h-18l29 167l1204 631l1 9l-983 620l30 169h18l1202 -777l-6 -37z" />
    <glyph glyph-name="uni1435" unicode="&#x1435;" horiz-adv-x="1555" 
d="M156 -15h-18l29 167l1204 631l1 9l-983 620l30 169h18l1202 -777l-6 -37zM625 1798q-42 -45 -95 -45q-53 1 -80 29t-27 78t46 92q46 41 95 41q48 -1 76 -29t27 -75q0 -46 -42 -91zM1145 1798q-42 -45 -95 -45q-53 1 -80 29t-27 78t46 92q46 41 95 41q48 -1 76 -29t27 -75
q0 -46 -42 -91z" />
    <glyph glyph-name="uni1436" unicode="&#x1436;" horiz-adv-x="1555" 
d="M156 -15h-18l29 167l1204 631l1 9l-983 620l30 169h18l1202 -777l-6 -37zM815 980l-66 -378h-158l66 378h158z" />
    <glyph glyph-name="uni1437" unicode="&#x1437;" horiz-adv-x="1555" 
d="M156 -15h-18l29 167l1204 631l1 9l-983 620l30 169h18l1202 -777l-6 -37zM711 714q-42 -45 -95 -45q-53 1 -80 29t-27 78t46 92q46 41 95 41q48 -1 76 -29t27 -75q0 -46 -42 -91z" />
    <glyph glyph-name="uni1438" unicode="&#x1438;" horiz-adv-x="1557" 
d="M1692 1581l-29 -167l-1200 -620l-2 -10l979 -632l-29 -167h-18l-1200 788l6 37l1474 771h19z" />
    <glyph glyph-name="uni1439" unicode="&#x1439;" horiz-adv-x="1557" 
d="M1692 1581l-29 -167l-1200 -620l-2 -10l979 -632l-29 -167h-18l-1200 788l6 37l1474 771h19zM1748 1798q-42 -45 -95 -45q-53 1 -80 29t-27 78t46 92q46 41 95 41q47 -1 75 -29t28 -75q0 -46 -42 -91z" />
    <glyph glyph-name="uni143A" unicode="&#x143a;" horiz-adv-x="1718" 
d="M883 -15h-33l-501 1572l2 10h188l374 -1287h7l831 1287h188l-2 -11zM384 713q-42 -45 -95 -45t-80 28t-27 79q0 50 46 92q46 41 95 41q47 0 75 -28t28 -76q0 -46 -42 -91z" />
    <glyph glyph-name="uni143B" unicode="&#x143b;" horiz-adv-x="1718" 
d="M864 -15h-33l-501 1572l2 10h188l374 -1287h7l831 1287h188l-2 -11zM1771 713q-42 -45 -95 -45t-80 28t-27 79q0 50 46 92q46 41 95 41q48 0 76 -28t27 -76q0 -46 -42 -91z" />
    <glyph glyph-name="uni143C" unicode="&#x143c;" horiz-adv-x="1718" 
d="M1664 11l-1 -11h-188l-378 1287h-7l-827 -1287h-188l1 10l1055 1572h33zM384 713q-42 -45 -95 -45t-80 28t-27 79q0 50 46 92q46 41 95 41q47 0 75 -28t28 -76q0 -46 -42 -91z" />
    <glyph glyph-name="uni143D" unicode="&#x143d;" horiz-adv-x="1746" 
d="M1646 11l-1 -11h-188l-378 1287h-7l-827 -1287h-188l1 10l1055 1572h33zM1799 713q-42 -45 -95 -45t-80 28t-27 79q0 50 46 92q46 41 95 41q48 0 76 -28t27 -76q0 -46 -42 -91z" />
    <glyph glyph-name="uni143E" unicode="&#x143e;" horiz-adv-x="1718" 
d="M1664 11l-1 -11h-188l-378 1287h-7l-827 -1287h-188l1 10l1055 1572h33zM384 713q-42 -45 -95 -45t-80 28t-27 79q0 50 46 92q46 41 95 41q47 0 75 -28t28 -76q0 -46 -42 -91zM1278 1798q-42 -45 -95 -45q-53 1 -80 29t-27 78t46 92q46 41 95 41q47 -1 75 -29t28 -75
q0 -46 -42 -91z" />
    <glyph glyph-name="uni143F" unicode="&#x143f;" horiz-adv-x="1701" 
d="M1646 11l-1 -11h-188l-378 1287h-7l-827 -1287h-188l1 10l1055 1572h33zM1260 1798q-42 -45 -95 -45q-53 1 -80 29t-27 78t46 92q46 41 95 41q47 -1 75 -29t28 -75q0 -46 -42 -91zM1754 713q-42 -45 -95 -45t-80 28t-27 79q0 50 46 92q46 41 95 41q47 0 75 -28t28 -76
q0 -46 -42 -91z" />
    <glyph glyph-name="uni1440" unicode="&#x1440;" horiz-adv-x="1764" 
d="M365 -15h-18l29 167l1204 631l1 9l-983 620l30 169h18l1202 -777l-6 -37zM384 713q-42 -45 -95 -45t-80 28t-27 79q0 50 46 92q46 41 95 41q47 0 75 -28t28 -76q0 -46 -42 -91z" />
    <glyph glyph-name="uni1441" unicode="&#x1441;" horiz-adv-x="1892" 
d="M156 -15h-18l29 167l1204 631l1 9l-983 620l30 169h18l1202 -777l-6 -37zM1945 715q-42 -45 -95 -45t-80 28t-27 79q0 50 46 92q46 41 95 41q48 0 76 -28t27 -76q0 -46 -42 -91z" />
    <glyph glyph-name="uni1442" unicode="&#x1442;" horiz-adv-x="1764" 
d="M365 -15h-18l29 167l1204 631l1 9l-983 620l30 169h18l1202 -777l-6 -37zM385 715q-42 -45 -95 -45t-80 28t-27 79q0 50 46 92q46 41 95 41q48 0 76 -28t27 -76q0 -46 -42 -91zM860 1798q-42 -45 -95 -45q-53 1 -80 29t-27 78t46 92q46 41 95 41q47 -1 75 -29t28 -75
q0 -46 -42 -91z" />
    <glyph glyph-name="uni1443" unicode="&#x1443;" horiz-adv-x="1892" 
d="M156 -15h-18l29 167l1204 631l1 9l-983 620l30 169h18l1202 -777l-6 -37zM625 1798q-42 -45 -95 -45q-53 1 -80 29t-27 78t46 92q46 41 95 41q48 -1 76 -29t27 -75q0 -46 -42 -91zM1945 715q-42 -45 -95 -45t-80 28t-27 79q0 50 46 92q46 41 95 41q48 0 76 -28t27 -76
q0 -46 -42 -91z" />
    <glyph glyph-name="uni1444" unicode="&#x1444;" horiz-adv-x="1904" 
d="M2039 1581l-29 -167l-1200 -620l-2 -10l979 -632l-29 -167h-18l-1200 788l6 37l1474 771h19zM385 715q-42 -45 -95 -45t-80 28t-27 79q0 50 46 92q46 41 95 41q48 0 76 -28t27 -76q0 -46 -42 -91z" />
    <glyph glyph-name="uni1445" unicode="&#x1445;" horiz-adv-x="1764" 
d="M1692 1581l-29 -167l-1200 -620l-2 -10l979 -632l-29 -167h-18l-1200 788l6 37l1474 771h19zM1817 715q-42 -45 -95 -45t-80 28t-27 79q0 50 46 92q46 41 95 41q48 0 76 -28t27 -76q0 -46 -42 -91z" />
    <glyph glyph-name="uni1446" unicode="&#x1446;" horiz-adv-x="1916" 
d="M2051 1581l-29 -167l-1200 -620l-2 -10l979 -632l-29 -167h-18l-1200 788l6 37l1474 771h19zM385 714q-42 -45 -95 -45q-53 1 -80 29t-27 78t46 92q46 41 95 41q48 -1 76 -29t27 -75q0 -46 -42 -91zM2107 1797q-42 -45 -95 -45t-80 28t-27 79q0 50 46 92q46 41 95 41
q48 0 76 -28t27 -76q0 -46 -42 -91z" />
    <glyph glyph-name="uni1447" unicode="&#x1447;" horiz-adv-x="1764" 
d="M1692 1581l-29 -167l-1200 -620l-2 -10l979 -632l-29 -167h-18l-1200 788l6 37l1474 771h19zM1748 1798q-42 -45 -95 -45q-53 1 -80 29t-27 78t46 92q46 41 95 41q47 -1 75 -29t28 -75q0 -46 -42 -91zM1817 714q-42 -45 -95 -45q-53 1 -80 29t-27 78t46 92q46 41 95 41
q48 -1 76 -29t27 -75q0 -46 -42 -91z" />
    <glyph glyph-name="uni1448" unicode="&#x1448;" horiz-adv-x="1557" 
d="M1692 1581l-29 -167l-1200 -620l-2 -10l979 -632l-29 -167h-18l-1200 788l6 37l1474 771h19zM1268 1798q-42 -45 -95 -45q-53 1 -80 29t-27 78t46 92q46 41 95 41q47 -1 75 -29t28 -75q0 -46 -42 -91zM1748 1798q-42 -45 -95 -45q-53 1 -80 29t-27 78t46 92q46 41 95 41
q47 -1 75 -29t28 -75q0 -46 -42 -91z" />
    <glyph glyph-name="uni1449" unicode="&#x1449;" horiz-adv-x="859" 
d="M242 1108l5 27l785 445h8l-27 -153l-548 -300l-2 -11l442 -301l-28 -162h-11z" />
    <glyph glyph-name="uni144A" unicode="&#x144a;" horiz-adv-x="285" 
d="M486 1567l-159 -899h-135l159 899h135z" />
    <glyph glyph-name="uni144B" unicode="&#x144b;" horiz-adv-x="754" 
d="M790.5 1252.5q60.5 -44.5 60.5 -124.5q0 -22 -4 -44l-74 -416h-135l68 383q5 27 5 66t-29.5 54.5t-97.5 15.5t-149 -36l-85 -483h-135l159 899h135l-55 -312q96 42 186 42t150.5 -44.5z" />
    <glyph glyph-name="uni144C" unicode="&#x144c;" horiz-adv-x="1672" 
d="M826 -25q-292 0 -415.5 145.5t-122.5 441.5t66 657l62 348h158l-56 -316q-72 -405 -72 -653t97.5 -360.5t310.5 -112.5q296 0 458 220t283 909l55 313h158l-62 -351q-124 -700 -326 -970t-594 -271z" />
    <glyph glyph-name="uni144D" unicode="&#x144d;" horiz-adv-x="1672" 
d="M1426 297q75 432 75 634t-34 292q-85 219 -377 219t-454 -220t-286 -922l-52 -300h-158l58 332q123 699 321 980q199 280 592 280q296 0 422 -144t126 -469q0 -254 -68 -644l-59 -335h-158zM1390 2182q58 -58 58 -130q0 -127 -89 -213q-89 -87 -190 -87t-159 58t-57 136
q-1 79 33 134t72 88q83 71 179 71q95 1 153 -57zM1164 1838q77 0 126 58q50 58 50 124q0 65 -30 99t-71 34q-69 0 -123 -52q-55 -52 -55 -121q0 -70 30 -106q31 -36 73 -36z" />
    <glyph glyph-name="uni144E" unicode="&#x144e;" horiz-adv-x="1672" 
d="M1426 297q75 432 75 634t-34 292q-85 219 -377 219t-454 -220t-286 -922l-52 -300h-158l58 332q123 699 321 980q199 280 592 280q296 0 422 -143.5t126 -469.5q0 -254 -68 -644l-59 -335h-158z" />
    <glyph glyph-name="uni144F" unicode="&#x144f;" horiz-adv-x="1672" 
d="M1278 1798q-42 -45 -95 -45q-53 1 -80 29t-27 78t46 92q46 41 95 41q47 -1 75 -29t28 -75q0 -46 -42 -91zM1426 297q75 432 75 634t-34 292q-85 219 -377 219t-454 -220t-286 -922l-52 -300h-158l58 332q123 699 321 980q199 280 592 280q296 0 422 -144t126 -469
q0 -254 -68 -644l-59 -335h-158z" />
    <glyph glyph-name="uni1450" unicode="&#x1450;" horiz-adv-x="1437" 
d="M653 1567q468 0 612 -99t187.5 -209t43.5 -267q0 -542 -279 -767t-842 -225h-260l26 153h235q491 0 715.5 183.5t224.5 636.5q0 169 -77 285.5t-288 136t-354 19.5h-233l27 153h262z" />
    <glyph glyph-name="uni1451" unicode="&#x1451;" horiz-adv-x="1437" 
d="M653 1567q468 0 657 -130q98 -68 142 -178t44 -267q0 -542 -292 -778q-266 -214 -829 -214h-260l26 153h235q491 1 707 177q233 190 233 643q0 169 -60 259q-96 143 -408 172q-108 10 -251 10h-233l27 153h262zM858 1798q-42 -45 -95 -45q-53 1 -80 29t-27 78t46 92
q46 41 95 41q47 -1 75 -29t28 -75q0 -46 -42 -91z" />
    <glyph glyph-name="uni1452" unicode="&#x1452;" horiz-adv-x="1437" 
d="M653 1567q468 0 657 -130q98 -68 142 -178t44 -267q0 -542 -292 -778q-266 -214 -829 -214h-260l26 153h235q491 1 707 177q233 190 233 643q0 169 -60 259q-96 143 -408 172q-108 10 -251 10h-233l27 153h262zM858 1798q-42 -45 -95 -45q-53 1 -80 29t-27 78t46 92
q46 41 95 41q47 -1 75 -29t28 -75q0 -46 -42 -91zM1324 1797q-42 -45 -95 -45t-80 28t-27 79q0 50 46 92q46 41 95 41q47 0 75 -28t28 -76q0 -46 -42 -91z" />
    <glyph glyph-name="uni1453" unicode="&#x1453;" horiz-adv-x="1437" 
d="M653 1567q468 0 612 -99t187.5 -209t43.5 -267q0 -542 -279 -767t-842 -225h-260l26 153h235q491 0 715.5 183.5t224.5 636.5q0 169 -77 285.5t-288 136t-354 19.5h-233l27 153h262zM634 508h-157l96 543h157z" />
    <glyph glyph-name="uni1454" unicode="&#x1454;" horiz-adv-x="1437" 
d="M653 1567q468 0 657 -130q98 -68 142 -178t44 -267q0 -542 -292 -778q-266 -214 -829 -214h-260l26 153h235q491 1 707 177q233 190 233 643q0 169 -60 259q-96 143 -408 172q-108 10 -251 10h-233l27 153h262zM709 713q-42 -45 -95 -45t-80 28t-27 79q0 50 46 92
q46 41 95 41q48 0 76 -28t27 -76q0 -46 -42 -91z" />
    <glyph glyph-name="uni1455" unicode="&#x1455;" horiz-adv-x="1437" 
d="M1338 1414q-492 0 -676 -140q-217 -164 -241.5 -404t-24.5 -322t32.5 -165t149 -156.5t535.5 -73.5h235l-26 -153h-260q-527 0 -714 170q-126 116 -128 377q0 116 26 260q74 415 312 587t778 173h262l-27 -153h-233z" />
    <glyph glyph-name="uni1456" unicode="&#x1456;" horiz-adv-x="1437" 
d="M1338 1414q-492 0 -676 -140q-217 -164 -261 -594q-5 -50 -5 -132t32 -166q32 -82 114 -133q152 -96 571 -96h235l-26 -153h-260q-527 0 -714 170q-126 116 -128 377q0 116 26 260q74 415 312 587t778 173h262l-27 -153h-233zM1443 1798q-42 -45 -95 -45q-53 1 -80 29
t-27 78t46 92q46 41 95 41q48 -1 76 -29t27 -75q0 -46 -42 -91z" />
    <glyph glyph-name="uni1457" unicode="&#x1457;" horiz-adv-x="1983" 
d="M1137 -25q-292 0 -416 146q-123 146 -122 441q1 296 66 657l62 348h158l-56 -316q-72 -405 -72 -653t97 -360q97 -113 311 -113q297 0 459 220t282 909l55 313h158l-62 -351q-123 -700 -325 -970t-595 -271zM385 715q-42 -45 -95 -45t-80 28t-27 79q0 50 46 92
q46 41 95 41q48 0 76 -28t27 -76q0 -46 -42 -91z" />
    <glyph glyph-name="uni1458" unicode="&#x1458;" horiz-adv-x="1923" 
d="M1976 715q-42 -45 -95 -45t-80 28t-27 79q0 50 46 92q46 41 95 41q47 0 75 -28t28 -76q0 -46 -42 -91zM826 -25q-292 0 -416 146q-123 146 -122 441q1 296 66 657l62 348h158l-56 -316q-72 -405 -72 -653t97 -360q97 -113 311 -113q296 0 458 220t283 909l55 313h158
l-62 -351q-124 -700 -326 -970t-594 -271z" />
    <glyph glyph-name="uni1459" unicode="&#x1459;" horiz-adv-x="1921" 
d="M1675 297q75 432 75 634t-34 292q-84 219 -376 219t-454 -220t-287 -922l-52 -300h-158l58 332q123 699 321 980q199 280 592 280q296 0 422 -144t126 -469q0 -254 -68 -644l-59 -335h-158zM385 715q-42 -45 -95 -45t-80 28t-27 79q0 50 46 92q46 41 95 41q48 0 76 -28
t27 -76q0 -46 -42 -91z" />
    <glyph glyph-name="uni145A" unicode="&#x145a;" horiz-adv-x="1985" 
d="M1426 297q75 432 75 634t-34 292q-85 219 -377 219t-454 -220t-286 -922l-52 -300h-158l58 332q123 699 321 980q199 280 592 280q296 0 422 -144t126 -469q0 -254 -68 -644l-59 -335h-158zM2038 714q-42 -45 -95 -45q-53 1 -80 29t-27 78t46 92q46 41 95 41
q47 -1 75 -29t28 -75q0 -46 -42 -91z" />
    <glyph glyph-name="uni145B" unicode="&#x145b;" horiz-adv-x="1921" 
d="M1675 297q75 432 75 634t-34 292q-84 219 -376 219t-454 -220t-287 -922l-52 -300h-158l58 332q123 699 321 980q199 280 592 280q296 0 422 -144t126 -469q0 -254 -68 -644l-59 -335h-158zM1494 1798q-42 -45 -95 -45q-53 1 -80 29t-27 78t46 92q46 41 95 41
q47 -1 75 -29t28 -75q0 -46 -42 -91zM385 714q-42 -45 -95 -45q-53 1 -80 29t-27 78t46 92q46 41 95 41q48 -1 76 -29t27 -75q0 -46 -42 -91z" />
    <glyph glyph-name="uni145C" unicode="&#x145c;" horiz-adv-x="1985" 
d="M1426 297q75 432 75 634t-34 292q-85 219 -377 219t-454 -220t-286 -922l-52 -300h-158l58 332q123 699 321 980q199 280 592 280q296 0 422 -144t126 -469q0 -254 -68 -644l-59 -335h-158zM1245 1799q-42 -45 -95 -45t-80 28t-27 79q0 50 46 92q46 41 95 41q48 0 76 -28
t27 -76q0 -46 -42 -91zM2038 714q-42 -45 -95 -45q-53 1 -80 29t-27 78t46 92q46 41 95 41q47 -1 75 -29t28 -75q0 -46 -42 -91z" />
    <glyph glyph-name="uni145D" unicode="&#x145d;" horiz-adv-x="1686" 
d="M902 1567q468 0 657 -130q99 -68 143 -178t43 -267q0 -542 -292 -778q-266 -215 -829 -214h-260l26 153h235q491 1 707 177q233 190 233 643q1 169 -59 259q-94 143 -408 172q-108 10 -252 10h-233l27 153h262zM384 713q-42 -45 -95 -45t-80 28t-27 79q0 50 46 92
q46 41 95 41q47 0 75 -28t28 -76q0 -46 -42 -91z" />
    <glyph glyph-name="uni145E" unicode="&#x145e;" horiz-adv-x="1721" 
d="M653 1567q468 0 657 -130q98 -68 142 -178t44 -267q0 -542 -292 -778q-266 -214 -829 -214h-260l26 153h235q491 1 707 177q233 190 233 643q0 169 -60 259q-96 143 -408 172q-108 10 -251 10h-233l27 153h262zM1774 714q-42 -45 -95 -45q-53 1 -80 29t-27 78t46 92
q46 41 95 41q47 -1 75 -29t28 -75q0 -46 -42 -91z" />
    <glyph glyph-name="uni145F" unicode="&#x145f;" horiz-adv-x="1686" 
d="M902 1567q468 0 657 -130q99 -68 143 -178t43 -267q0 -542 -292 -778q-266 -215 -829 -214h-260l26 153h235q491 1 707 177q233 190 233 643q1 169 -59 259q-94 143 -408 172q-108 10 -252 10h-233l27 153h262zM1105 1798q-42 -45 -95 -45q-53 1 -80 29t-27 78t46 92
q46 41 95 41q48 -1 76 -29t27 -75q0 -46 -42 -91zM385 714q-42 -45 -95 -45q-53 1 -80 29t-27 78t46 92q46 41 95 41q48 -1 76 -29t27 -75q0 -46 -42 -91z" />
    <glyph glyph-name="uni1460" unicode="&#x1460;" horiz-adv-x="1721" 
d="M653 1567q468 0 657 -130q98 -68 142 -178t44 -267q0 -542 -292 -778q-266 -214 -829 -214h-260l26 153h235q491 1 707 177q233 190 233 643q0 169 -60 259q-96 143 -408 172q-108 10 -251 10h-233l27 153h262zM858 1798q-42 -45 -95 -45q-53 1 -80 29t-27 78t46 92
q46 41 95 41q47 -1 75 -29t28 -75q0 -46 -42 -91zM1774 715q-42 -45 -95 -45t-80 28t-27 79q0 50 46 92q46 41 95 41q47 0 75 -28t28 -76q0 -46 -42 -91z" />
    <glyph glyph-name="uni1461" unicode="&#x1461;" horiz-adv-x="1722" 
d="M1634 1414q-492 0 -676 -140q-217 -164 -261 -594q-5 -50 -5 -132t32 -166q32 -82 114 -133q152 -96 571 -96h235l-26 -153h-260q-527 0 -714 170q-126 116 -128 377q0 116 26 260q74 415 312 587t778 173h262l-27 -153h-233zM385 714q-42 -45 -95 -45q-53 1 -80 29
t-27 78t46 92q46 41 95 41q48 -1 76 -29t27 -75q0 -46 -42 -91z" />
    <glyph glyph-name="uni1462" unicode="&#x1462;" horiz-adv-x="1686" 
d="M1349 1414q-493 0 -677 -140q-217 -164 -260 -594q-5 -50 -5 -132q1 -82 33 -166q32 -82 113 -133q152 -96 571 -96h235l-26 -153h-260q-527 0 -714 170q-126 116 -128 377q0 116 26 260q73 415 311 587t779 173h262l-27 -153h-233zM1739 715q-42 -45 -95 -45t-80 28
t-27 79q0 50 46 92q46 41 95 41q48 0 76 -28t27 -76q0 -46 -42 -91z" />
    <glyph glyph-name="uni1463" unicode="&#x1463;" horiz-adv-x="1721" 
d="M1633 1414q-493 0 -677 -140q-217 -164 -260 -594q-5 -50 -5 -132q1 -82 33 -166q32 -82 113 -133q152 -96 571 -96h235l-26 -153h-260q-527 0 -714 170q-126 116 -128 377q0 116 26 260q73 415 311 587t779 173h262l-27 -153h-233zM1738 1798q-42 -45 -95 -45
q-53 1 -80 29t-27 78t46 92q46 41 95 41q47 -1 75 -29t28 -75q0 -46 -42 -91zM384 713q-42 -45 -95 -45t-80 28t-27 79q0 50 46 92q46 41 95 41q47 0 75 -28t28 -76q0 -46 -42 -91z" />
    <glyph glyph-name="uni1464" unicode="&#x1464;" horiz-adv-x="1686" 
d="M1349 1414q-493 0 -677 -140q-217 -164 -260 -594q-5 -50 -5 -132q1 -82 33 -166q32 -82 113 -133q152 -96 571 -96h235l-26 -153h-260q-527 0 -714 170q-126 116 -128 377q0 116 26 260q73 415 311 587t779 173h262l-27 -153h-233zM1454 1798q-42 -45 -95 -45
q-53 1 -80 29t-27 78t46 92q46 41 95 41q47 -1 75 -29t28 -75q0 -46 -42 -91zM1739 714q-42 -45 -95 -45q-53 1 -80 29t-27 78t46 92q46 41 95 41q48 -1 76 -29t27 -75q0 -46 -42 -91z" />
    <glyph glyph-name="uni1465" unicode="&#x1465;" horiz-adv-x="1723" 
d="M1635 1414q-493 0 -677 -140q-217 -164 -260 -594q-5 -50 -5 -132q1 -82 33 -166q32 -82 113 -133q152 -96 571 -96h235l-26 -153h-260q-527 0 -714 170q-126 116 -128 377q0 116 26 260q73 415 311 587t779 173h262l-27 -153h-233zM438 998q-42 -45 -95 -45
q-53 1 -80 29t-27 78t46 92q46 41 95 41q47 -1 75 -29t28 -75q0 -46 -42 -91zM337 447q-42 -45 -95 -45t-80 28t-27 79q0 50 46 92q46 41 95 41q48 0 76 -28t27 -76q0 -46 -42 -91z" />
    <glyph glyph-name="uni1466" unicode="&#x1466;" horiz-adv-x="699" 
d="M697 668q-330 0 -378 138t-48 238t33.5 201.5t139.5 211.5t381 110h82l-23 -130h-64q-198 0 -302 -100.5t-104 -281.5q0 -132 72 -194.5t219 -62.5h67l-23 -130h-52z" />
    <glyph glyph-name="uni1467" unicode="&#x1467;" horiz-adv-x="1962" 
d="M826 -25q-292 0 -416 146q-123 146 -122 441q1 296 66 657l62 348h158l-56 -316q-72 -405 -72 -653t97 -360q97 -113 311 -113q296 0 458 220t283 909l55 313h158l-62 -351q-124 -700 -326 -970t-594 -271zM2098 1567l-159 -899h-135l159 899h135z" />
    <glyph glyph-name="uni1468" unicode="&#x1468;" horiz-adv-x="2025" 
d="M1426 297q75 432 75 634t-34 292q-85 219 -377 219t-454 -220t-286 -922l-52 -300h-158l58 332q123 699 321 980q199 280 592 280q296 0 422 -144t126 -469q0 -254 -68 -644l-59 -335h-158zM2161 1567l-159 -899h-135l159 899h135z" />
    <glyph glyph-name="uni1469" unicode="&#x1469;" horiz-adv-x="1787" 
d="M653 1567q468 0 657 -130q98 -68 142 -178t44 -267q0 -542 -292 -778q-266 -214 -829 -214h-260l26 153h235q491 1 707 177q233 190 233 643q0 169 -60 259q-96 143 -408 172q-108 10 -251 10h-233l27 153h262zM1923 1567l-159 -899h-135l159 899h135z" />
    <glyph glyph-name="uni146A" unicode="&#x146a;" horiz-adv-x="1787" 
d="M1349 1414q-493 0 -677 -140q-217 -164 -260 -594q-5 -50 -5 -132q1 -82 33 -166q32 -82 113 -133q152 -96 571 -96h235l-26 -153h-260q-527 0 -714 170q-126 116 -128 377q0 116 26 260q73 415 311 587t779 173h262l-27 -153h-233zM1923 1567l-159 -899h-135l159 899
h135z" />
    <glyph glyph-name="uni146B" unicode="&#x146b;" 
d="M815 677q126 0 260 31l48 271q16 92 16 166q0 154 -64.5 225.5t-220.5 71.5t-275 -133.5t-119 -339.5t114.5 -249t240.5 -43zM745 530q-219 0 -337.5 107.5t-118.5 313.5q0 268 167 454.5t442 186.5q181 0 292.5 -106t111.5 -310q0 -74 -17 -174l-176 -1002h-158l102 583
q-191 -53 -308 -53z" />
    <glyph glyph-name="uni146C" unicode="&#x146c;" 
d="M716 677q138 1 220 39t140 104q121 139 121 350q0 126 -72 199t-195 73q-172 0 -278 -111t-150 -352l-48 -271q124 -31 262 -31zM1364 1184q0 -279 -174 -466q-174 -188 -443 -188q-142 0 -315 53l-102 -583h-158l176 1002q53 298 217 444t368 146t317 -111
q114 -110 114 -297zM1226 2182q58 -58 58 -130q0 -127 -89 -213q-89 -87 -190 -87t-159 58t-57 136q-1 79 33 134t72 88q83 71 179 71q95 1 153 -57zM1000 1838q77 0 126 58q50 58 50 124q0 65 -30 99t-71 34q-69 0 -123 -52q-55 -52 -55 -121q0 -70 30 -106q31 -36 73 -36z
" />
    <glyph glyph-name="uni146D" unicode="&#x146d;" 
d="M716 677q138 0 220 38.5t171.5 141t89.5 313.5q0 126 -71.5 199t-195.5 73q-172 0 -278.5 -111t-149.5 -352l-48 -271q124 -31 262 -31zM1364 1184q0 -279 -174 -466.5t-443 -187.5q-142 0 -315 53l-102 -583h-158l176 1002q53 298 217 444t368 146t317.5 -110.5
t113.5 -297.5z" />
    <glyph glyph-name="uni146E" unicode="&#x146e;" 
d="M1097 1798q-42 -45 -95 -45q-53 1 -80 29t-27 78t46 92q46 41 95 41q48 -1 76 -29t27 -75q0 -46 -42 -91zM716 677q138 1 220 39t140 104q121 139 121 350q0 126 -72 199t-195 73q-172 0 -278 -111t-150 -352l-48 -271q124 -31 262 -31zM1364 1184q0 -279 -174 -466
q-174 -188 -443 -188q-142 0 -315 53l-102 -583h-158l176 1002q53 298 217 444t368 146t317 -111q114 -110 114 -297z" />
    <glyph glyph-name="uni146F" unicode="&#x146f;" 
d="M360 401q0 -276 289 -276q173 0 267.5 108t131.5 322l62 348q-129 47 -261 47q-237 0 -363 -153t-126 -396zM613 -25q-301 0 -360.5 164.5t-59.5 290.5t45 252.5t176.5 270.5t425.5 144q128 0 293 -61l94 531h158l-183 -1035q-50 -286 -196 -421.5t-393 -135.5z" />
    <glyph glyph-name="uni1470" unicode="&#x1470;" 
d="M404 401q0 -276 289 -276q173 0 267 108q95 108 132 322l62 348q-129 47 -261 47q-237 0 -363 -153t-126 -396zM657 -25q-301 1 -391 249q-29 80 -29 206t45 253q45 126 129 218q179 196 473 196q128 0 293 -61l94 531h158l-183 -1035q-50 -286 -196 -422t-393 -135z
M1469 1798q-42 -45 -95 -45q-53 1 -80 29t-27 78t46 92q46 41 95 41q48 -1 76 -29t27 -75q0 -46 -42 -91z" />
    <glyph glyph-name="uni1471" unicode="&#x1471;" 
d="M404 401q0 -276 289 -276q173 0 267 108q95 108 132 322l62 348q-129 47 -261 47q-237 0 -363 -153t-126 -396zM657 -25q-301 1 -391 249q-29 80 -29 206t45 253q45 126 129 218q179 196 473 196q128 0 293 -61l94 531h158l-183 -1035q-50 -286 -196 -422t-393 -135z
M1467 1797q-42 -45 -95 -45t-80 28t-27 79q0 50 46 92q46 41 95 41q48 0 76 -28t27 -76q0 -46 -42 -91zM966 1798q-42 -45 -95 -45q-53 1 -80 29t-27 78t46 92q46 41 95 41q47 -1 75 -29t28 -75q0 -46 -42 -91z" />
    <glyph glyph-name="uni1472" unicode="&#x1472;" 
d="M1103 649q0 301 -312 301q-156 0 -302 -47l-62 -348q-17 -96 -17 -170q0 -142 70.5 -201t217.5 -59q179 0 292 150t113 374zM810 1097q215 0 339 -106.5t124 -321.5q0 -296 -165 -495t-451 -199t-346.5 147.5t-60.5 235.5t15 174l183 1035h158l-94 -531q188 61 298 61z
" />
    <glyph glyph-name="uni1473" unicode="&#x1473;" 
d="M1103 649q0 301 -312 301q-156 0 -302 -47l-62 -348q-17 -96 -17 -170q0 -142 71 -201t217 -59q179 0 292 150t113 374zM810 1097q215 0 339 -107t124 -321q0 -296 -165 -495t-451 -199q-287 1 -377 221q-30 74 -30 162t15 174l183 1035h158l-94 -531q188 61 298 61z
M669 1798q-42 -45 -95 -45q-53 1 -80 29t-27 78t46 92q46 41 95 41q48 -1 76 -29t27 -75q0 -46 -42 -91z" />
    <glyph glyph-name="uni1474" unicode="&#x1474;" horiz-adv-x="1566" 
d="M1100 677q126 0 260 31l48 271q16 92 16 166q0 153 -64 225t-221 72q-156 0 -275 -133t-119 -340q-1 -207 171 -271q58 -22 184 -21zM1030 530q-219 0 -337 107q-119 107 -119 314q0 268 167 455q167 186 442 186q181 0 293 -106q111 -106 111 -310q0 -74 -17 -174
l-176 -1002h-158l102 583q-191 -53 -308 -53zM355 715q-42 -45 -95 -45t-80 28t-27 79q0 50 46 92q46 41 95 41q48 0 76 -28t27 -76q0 -46 -42 -91z" />
    <glyph glyph-name="uni1475" unicode="&#x1475;" horiz-adv-x="1636" 
d="M815 677q126 0 260 31l48 271q16 92 16 166q-1 153 -65 225t-220 72t-275 -133t-119 -340t172 -271q58 -22 183 -21zM745 530q-219 0 -337 107q-119 107 -119 314q0 268 167 455q167 186 442 186q181 0 293 -106q111 -106 111 -310q0 -74 -17 -174l-176 -1002h-158
l102 583q-191 -53 -308 -53zM1689 714q-42 -45 -95 -45q-53 1 -80 29t-27 78t46 92q46 41 95 41q48 -1 76 -29t27 -75q0 -46 -42 -91z" />
    <glyph glyph-name="uni1476" unicode="&#x1476;" horiz-adv-x="1549" 
d="M984 677q138 1 220 39t140 104q121 139 121 350q0 126 -72 199t-195 73q-172 0 -278 -111t-150 -352l-48 -271q124 -31 262 -31zM1632 1184q0 -279 -174 -466q-174 -188 -443 -188q-142 0 -315 53l-102 -583h-158l176 1002q53 298 217 444t368 146t317 -111
q114 -110 114 -297zM355 714q-42 -45 -95 -45q-53 1 -80 29t-27 78t46 92q46 41 95 41q48 -1 76 -29t27 -75q0 -46 -42 -91z" />
    <glyph glyph-name="uni1477" unicode="&#x1477;" horiz-adv-x="1623" 
d="M716 677q138 1 220 39t140 104q121 139 121 350q0 126 -72 199t-195 73q-172 0 -278 -111t-150 -352l-48 -271q124 -31 262 -31zM1364 1184q0 -279 -174 -466q-174 -188 -443 -188q-142 0 -315 53l-102 -583h-158l176 1002q53 298 217 444t368 146t317 -111
q114 -110 114 -297zM1675 713q-42 -45 -95 -45t-80 28t-27 79q0 50 46 92q46 41 95 41q48 0 76 -28t27 -76q0 -46 -42 -91z" />
    <glyph glyph-name="uni1478" unicode="&#x1478;" horiz-adv-x="1548" 
d="M984 677q138 1 219 39q82 38 140 104q121 139 121 350q0 126 -72 199t-195 73q-173 0 -279 -111t-149 -352l-48 -271q125 -31 263 -31zM1631 1184q0 -279 -174 -466q-174 -188 -443 -188q-142 0 -315 53l-102 -583h-158l176 1002q53 298 217 444t368 146t317 -111
q114 -110 114 -297zM1403 1798q-42 -45 -95 -45q-53 1 -80 29t-27 78t46 92q46 41 95 41q48 -1 76 -29t27 -75q0 -46 -42 -91zM355 714q-42 -45 -95 -45q-53 1 -80 29t-27 78t46 92q46 41 95 41q48 -1 76 -29t27 -75q0 -46 -42 -91z" />
    <glyph glyph-name="uni1479" unicode="&#x1479;" horiz-adv-x="1623" 
d="M716 677q138 1 220 39t140 104q121 139 121 350q0 126 -72 199t-195 73q-172 0 -278 -111t-150 -352l-48 -271q124 -31 262 -31zM1364 1184q0 -279 -174 -466q-174 -188 -443 -188q-142 0 -315 53l-102 -583h-158l176 1002q53 298 217 444t368 146t317 -111
q114 -110 114 -297zM1157 1798q-42 -45 -95 -45q-53 1 -80 29t-27 78t46 92q46 41 95 41q48 -1 76 -29t27 -75q0 -46 -42 -91zM1675 713q-42 -45 -95 -45t-80 28t-27 79q0 50 46 92q46 41 95 41q48 0 76 -28t27 -76q0 -46 -42 -91z" />
    <glyph glyph-name="uni147A" unicode="&#x147a;" horiz-adv-x="1536" 
d="M659 401q0 -276 289 -276q173 0 267 108q95 108 132 322l62 348q-129 47 -261 47q-237 0 -363 -153t-126 -396zM912 -25q-301 1 -391 249q-29 80 -29 206t45 253q45 126 129 218q179 196 473 196q128 0 293 -61l94 531h158l-183 -1035q-50 -286 -196 -422t-393 -135z
M355 714q-42 -45 -95 -45q-53 1 -80 29t-27 78t46 92q46 41 95 41q48 -1 76 -29t27 -75q0 -46 -42 -91z" />
    <glyph glyph-name="uni147B" unicode="&#x147b;" horiz-adv-x="1636" 
d="M404 401q0 -276 289 -276q173 0 267 108q95 108 132 322l62 348q-129 47 -261 47q-237 0 -363 -153t-126 -396zM657 -25q-301 1 -391 249q-29 80 -29 206t45 253q45 126 129 218q179 196 473 196q128 0 293 -61l94 531h158l-183 -1035q-50 -286 -196 -422t-393 -135z
M1689 714q-42 -45 -95 -45q-53 1 -80 29t-27 78t46 92q46 41 95 41q48 -1 76 -29t27 -75q0 -46 -42 -91z" />
    <glyph glyph-name="uni147C" unicode="&#x147c;" horiz-adv-x="1537" 
d="M660 401q0 -276 289 -276q173 0 267 108q95 108 132 322l62 348q-129 47 -261 47q-237 0 -363 -153t-126 -396zM913 -25q-301 1 -391 249q-29 80 -29 206t45 253q45 126 129 218q179 196 473 196q128 0 293 -61l94 531h158l-183 -1035q-50 -286 -196 -422t-393 -135z
M1726 1798q-42 -45 -95 -45q-53 1 -80 29t-27 78t46 92q46 41 95 41q47 -1 75 -29t28 -75q0 -46 -42 -91zM355 713q-42 -45 -95 -45t-80 28t-27 79q0 50 46 92q46 41 95 41q48 0 76 -28t27 -76q0 -46 -42 -91z" />
    <glyph glyph-name="uni147D" unicode="&#x147d;" horiz-adv-x="1636" 
d="M404 401q0 -276 289 -276q173 0 267 108q95 108 132 322l62 348q-129 47 -261 47q-237 0 -363 -153t-126 -396zM657 -25q-301 1 -391 249q-29 80 -29 206t45 253q45 126 129 218q179 196 473 196q128 0 293 -61l94 531h158l-183 -1035q-50 -286 -196 -422t-393 -135z
M1471 1798q-42 -45 -95 -45q-53 1 -80 29t-27 78t46 92q46 41 95 41q48 -1 76 -29t27 -75q0 -46 -42 -91zM1689 714q-42 -45 -95 -45q-53 1 -80 29t-27 78t46 92q46 41 95 41q48 -1 76 -29t27 -75q0 -46 -42 -91z" />
    <glyph glyph-name="uni147E" unicode="&#x147e;" horiz-adv-x="1536" 
d="M1358 649q0 301 -312 301q-156 0 -302 -47l-62 -348q-17 -96 -17 -170q0 -142 71 -201t217 -59q179 0 292 150t113 374zM1064 1097q215 0 340 -107q124 -107 124 -321q0 -296 -165 -495t-451 -199q-286 1 -376 221q-30 74 -31 162q0 88 15 174l183 1035h158l-94 -531
q187 61 297 61zM355 714q-42 -45 -95 -45q-53 1 -80 29t-27 78t46 92q46 41 95 41q48 -1 76 -29t27 -75q0 -46 -42 -91z" />
    <glyph glyph-name="uni147F" unicode="&#x147f;" horiz-adv-x="1636" 
d="M1103 649q0 301 -312 301q-156 0 -302 -47l-62 -348q-17 -96 -17 -170q0 -142 71 -201t217 -59q179 0 292 150t113 374zM810 1097q215 0 339 -107t124 -321q0 -296 -165 -495t-451 -199q-287 1 -377 221q-30 74 -30 162t15 174l183 1035h158l-94 -531q188 61 298 61z
M1689 714q-42 -45 -95 -45q-53 1 -80 29t-27 78t46 92q46 41 95 41q48 -1 76 -29t27 -75q0 -46 -42 -91z" />
    <glyph glyph-name="uni1480" unicode="&#x1480;" horiz-adv-x="1536" 
d="M1358 649q0 301 -312 301q-156 0 -302 -47l-62 -348q-17 -96 -17 -170q0 -142 71 -201t217 -59q179 0 292 150t113 374zM1064 1097q215 0 340 -107q124 -107 124 -321q0 -296 -165 -495t-451 -199q-286 1 -376 221q-30 74 -31 162q0 88 15 174l183 1035h158l-94 -531
q187 61 297 61zM912 1798q-42 -45 -95 -45q-53 1 -80 29t-27 78t46 92q46 41 95 41q47 -1 75 -29t28 -75q0 -46 -42 -91zM355 714q-42 -45 -95 -45q-53 1 -80 29t-27 78t46 92q46 41 95 41q48 -1 76 -29t27 -75q0 -46 -42 -91z" />
    <glyph glyph-name="uni1481" unicode="&#x1481;" horiz-adv-x="1566" 
d="M1103 649q0 301 -312 301q-156 0 -302 -47l-62 -348q-17 -96 -17 -170q0 -142 71 -201t217 -59q179 0 292 150t113 374zM810 1097q215 0 339 -107t124 -321q0 -296 -165 -495t-451 -199q-287 1 -377 221q-30 74 -30 162t15 174l183 1035h158l-94 -531q188 61 298 61z
M652 1798q-42 -45 -95 -45q-53 1 -80 29t-27 78t46 92q46 41 95 41q47 -1 75 -29t28 -75q0 -46 -42 -91zM1618 713q-42 -45 -95 -45t-80 28t-27 79q0 50 46 92q46 41 95 41q47 0 75 -28t28 -76q0 -46 -42 -91z" />
    <glyph glyph-name="uni1482" unicode="&#x1482;" horiz-adv-x="1584" 
d="M452 998q-42 -45 -95 -45q-53 1 -80 29t-27 78t46 92q46 41 95 41q47 -1 75 -29t28 -75q0 -46 -42 -91zM1406 649q0 301 -312 301q-156 0 -302 -47l-62 -348q-17 -96 -17 -170q0 -142 71 -201t217 -59q179 0 292 150t113 374zM1112 1097q215 0 340 -107
q124 -107 124 -321q0 -296 -165 -495t-451 -199q-286 1 -376 221q-30 74 -31 162q0 88 15 174l183 1035h158l-94 -531q187 61 297 61zM355 447q-42 -45 -95 -45t-80 28t-27 79q0 50 46 92q46 41 95 41q48 0 76 -28t27 -76q0 -46 -42 -91z" />
    <glyph glyph-name="uni1483" unicode="&#x1483;" horiz-adv-x="792" 
d="M624 1281q130 0 204.5 -61.5t74.5 -157.5q0 -178 -110.5 -286t-272.5 -108q-196 0 -236.5 83.5t-40.5 135.5t9 102l102 578h135l-57 -321q111 35 192 35zM763 1032q0 132 -169 132q-82 0 -180 -22l-21 -117q-8 -46 -8 -81q0 -148 155 -148t189 90t34 146z" />
    <glyph glyph-name="uni1484" unicode="&#x1484;" horiz-adv-x="792" 
d="M233 899q0 181 108.5 281.5t276.5 100.5q81 0 180 -35l57 321h135l-102 -578q-58 -321 -378 -321q-130 0 -203.5 66.5t-73.5 164.5zM618 1164q-244 0 -243 -231q0 -137 155 -137q192 0 229 229l21 117q-93 22 -162 22z" />
    <glyph glyph-name="uni1485" unicode="&#x1485;" horiz-adv-x="1607" 
d="M815 677q126 0 260 31l48 271q16 92 16 166q-1 153 -65 225t-220 72t-275 -133t-119 -340t172 -271q58 -22 183 -21zM745 530q-219 0 -337 107q-119 107 -119 314q0 268 167 455q167 186 442 186q181 0 293 -106q111 -106 111 -310q0 -74 -17 -174l-176 -1002h-158
l102 583q-191 -53 -308 -53zM1711 1567l-159 -899h-135l159 899h135z" />
    <glyph glyph-name="uni1486" unicode="&#x1486;" horiz-adv-x="1645" 
d="M716 677q138 1 220 39t140 104q121 139 121 350q0 126 -72 199t-195 73q-172 0 -278 -111t-150 -352l-48 -271q124 -31 262 -31zM1364 1184q0 -279 -174 -466q-174 -188 -443 -188q-142 0 -315 53l-102 -583h-158l176 1002q53 298 217 444t368 146t317 -111
q114 -110 114 -297zM1749 1567l-159 -899h-135l159 899h135z" />
    <glyph glyph-name="uni1487" unicode="&#x1487;" horiz-adv-x="1661" 
d="M404 401q0 -276 289 -276q173 0 267 108q95 108 132 322l62 348q-129 47 -261 47q-237 0 -363 -153t-126 -396zM657 -25q-301 1 -391 249q-29 80 -29 206t45 253q45 126 129 218q179 196 473 196q128 0 293 -61l94 531h158l-183 -1035q-50 -286 -196 -422t-393 -135z
M1749 1567l-159 -899h-135l159 899h135z" />
    <glyph glyph-name="uni1488" unicode="&#x1488;" horiz-adv-x="1611" 
d="M1103 649q0 301 -312 301q-156 0 -302 -47l-62 -348q-17 -96 -17 -170q0 -142 71 -201t217 -59q179 0 292 150t113 374zM810 1097q215 0 339 -107t124 -321q0 -296 -165 -495t-451 -199q-287 1 -377 221q-30 74 -30 162t15 174l183 1035h158l-94 -531q188 61 298 61z
M1692 1567l-159 -899h-135l159 899h135z" />
    <glyph glyph-name="uni1489" unicode="&#x1489;" horiz-adv-x="1333" 
d="M1198 1172q0 141 -75.5 205.5t-251.5 64.5t-284 -101.5t-147 -323.5l-15 -86h-158l16 93q49 284 223 426t399 142q224 0 338 -93.5t114 -299.5q0 -82 -18 -184l-178 -1015h-158l181 1032q14 78 14 140z" />
    <glyph glyph-name="uni148A" unicode="&#x148a;" horiz-adv-x="1333" 
d="M989 1592q193 0 314 -107t121 -308q0 -69 -14 -153l-16 -93h-158l15 86q14 78 14 141q1 148 -75 216t-228 68q-205 0 -309 -97t-142 -313l-181 -1032h-158l178 1015q54 307 211 442t428 135zM1240 2182q58 -58 58 -130q0 -127 -89 -213q-89 -87 -190 -87t-159 58t-57 136
q-1 79 33 134t72 88q83 71 179 71q95 1 153 -57zM1014 1838q77 0 126 58q50 58 50 124q0 65 -30 99t-71 34q-69 0 -123 -52q-55 -52 -55 -121q0 -70 30 -106q31 -36 73 -36z" />
    <glyph glyph-name="uni148B" unicode="&#x148b;" horiz-adv-x="1333" 
d="M989 1592q193 0 314 -106.5t121 -308.5q0 -69 -14 -153l-16 -93h-158l15 86q14 78 14 141q0 148 -75.5 216t-227.5 68q-205 0 -309 -97t-142 -313l-181 -1032h-158l178 1015q54 307 211 442t428 135z" />
    <glyph glyph-name="uni148C" unicode="&#x148c;" horiz-adv-x="1333" 
d="M989 1592q193 0 314 -107t121 -308q0 -69 -14 -153l-16 -93h-158l15 86q14 78 14 141q1 148 -75 216t-228 68q-205 0 -309 -97t-142 -313l-181 -1032h-158l178 1015q54 307 211 442t428 135zM1116 1797q-42 -45 -95 -45t-80 28t-27 79q0 50 46 92q46 41 95 41
q47 0 75 -28t28 -76q0 -46 -42 -91z" />
    <glyph glyph-name="uni148D" unicode="&#x148d;" horiz-adv-x="1333" 
d="M619 -25q-195 0 -315 107t-120 308q0 80 14 153l17 93h158l-16 -86q-11 -55 -14 -140q0 -148 76 -216.5t228 -68.5q204 0 308 96q103 97 142 314l182 1032h158l-179 -1015q-54 -306 -211 -442q-158 -135 -428 -135z" />
    <glyph glyph-name="uni148E" unicode="&#x148e;" horiz-adv-x="1333" 
d="M619 -25q-195 0 -315 107t-120 308q0 80 14 153l17 93h158l-16 -86q-11 -55 -14 -140q0 -148 76 -216t228 -69q204 0 308 96q103 97 142 314l182 1032h158l-179 -1015q-54 -306 -211 -442q-158 -135 -428 -135zM1492 1798q-42 -45 -95 -45q-53 1 -80 29t-27 78t46 92
q46 41 95 41q47 -1 75 -29t28 -75q0 -46 -42 -91z" />
    <glyph glyph-name="uni148F" unicode="&#x148f;" horiz-adv-x="1333" 
d="M619 -25q-195 0 -315 107t-120 308q0 80 14 153l17 93h158l-16 -86q-11 -55 -14 -140q0 -148 76 -216t228 -69q204 0 308 96q103 97 142 314l182 1032h158l-179 -1015q-54 -306 -211 -442q-158 -135 -428 -135zM1485 1798q-42 -45 -95 -45q-53 1 -80 29t-27 78t46 92
q46 41 95 41q48 -1 76 -29t27 -75q0 -46 -42 -91zM1015 1798q-42 -45 -95 -45q-53 1 -80 29t-27 78t46 92q46 41 95 41q48 -1 76 -29t27 -75q0 -46 -42 -91z" />
    <glyph glyph-name="uni1490" unicode="&#x1490;" horiz-adv-x="1333" 
d="M411 395q0 -141 75 -205.5t252 -64.5q176 0 283.5 101.5t146.5 323.5l16 86h158l-17 -93q-52 -288 -225.5 -428t-397.5 -140q-225 0 -338 93.5t-113 298.5q0 83 18 185l179 1015h158l-182 -1032q-13 -70 -13 -140z" />
    <glyph glyph-name="uni1491" unicode="&#x1491;" horiz-adv-x="1333" 
d="M411 395q0 -141 75 -206q75 -64 252 -64q176 -1 284 101t146 324l16 86h158l-17 -93q-52 -288 -225 -428t-398 -140q-225 -1 -338 93t-113 299q0 83 18 185l179 1015h158l-182 -1032q-13 -70 -13 -140zM667 1798q-42 -45 -95 -45q-53 1 -80 29t-27 78t46 92q46 41 95 41
q48 -1 76 -29t27 -75q0 -46 -42 -91z" />
    <glyph glyph-name="uni1492" unicode="&#x1492;" horiz-adv-x="1588" 
d="M1453 1172q1 142 -75 206t-252 64t-284 -102t-147 -323l-15 -86h-158l16 93q50 284 224 426t398 142t338 -94t114 -299q0 -82 -18 -184l-178 -1015h-158l181 1032q14 78 14 140zM355 714q-42 -45 -95 -45q-53 1 -80 29t-27 78t46 92q46 41 95 41q48 -1 76 -29t27 -75
q0 -46 -42 -91z" />
    <glyph glyph-name="uni1493" unicode="&#x1493;" horiz-adv-x="1688" 
d="M1198 1172q0 142 -76 206t-251 64q-176 0 -284 -102t-147 -323l-15 -86h-158l16 93q49 284 223 426t399 142q224 0 338 -94t114 -299q0 -82 -18 -184l-178 -1015h-158l181 1032q14 78 14 140zM1741 714q-42 -45 -95 -45q-53 1 -80 29t-27 78t46 92q46 41 95 41
q48 -1 76 -29t27 -75q0 -46 -42 -91z" />
    <glyph glyph-name="uni1494" unicode="&#x1494;" horiz-adv-x="1639" 
d="M1295 1592q193 0 314 -107t121 -308q0 -69 -14 -153l-16 -93h-158l15 86q14 78 14 141q1 148 -75 216t-228 68q-205 0 -309 -97t-142 -313l-181 -1032h-158l178 1015q54 307 211 442t428 135zM355 713q-42 -45 -95 -45t-80 28t-27 79q0 50 46 92q46 41 95 41q48 0 76 -28
t27 -76q0 -46 -42 -91z" />
    <glyph glyph-name="uni1495" unicode="&#x1495;" horiz-adv-x="1333" 
d="M989 1592q193 0 314 -107t121 -308q0 -69 -14 -153l-16 -93h-158l15 86q14 78 14 141q1 148 -75 216t-228 68q-205 0 -309 -97t-142 -313l-181 -1032h-158l178 1015q54 307 211 442t428 135zM1671 714q-42 -45 -95 -45q-53 1 -80 29t-27 78t46 92q46 41 95 41
q48 -1 76 -29t27 -75q0 -46 -42 -91z" />
    <glyph glyph-name="uni1496" unicode="&#x1496;" horiz-adv-x="1639" 
d="M1295 1592q193 0 314 -107t121 -308q0 -69 -14 -153l-16 -93h-158l15 86q14 78 14 141q1 148 -75 216t-228 68q-205 0 -309 -97t-142 -313l-181 -1032h-158l178 1015q54 307 211 442t428 135zM1438 1797q-42 -45 -95 -45t-80 28t-27 79q0 50 46 92q46 41 95 41
q47 0 75 -28t28 -76q0 -46 -42 -91zM355 713q-42 -45 -95 -45t-80 28t-27 79q0 50 46 92q46 41 95 41q48 0 76 -28t27 -76q0 -46 -42 -91z" />
    <glyph glyph-name="uni1497" unicode="&#x1497;" horiz-adv-x="1618" 
d="M989 1592q193 0 314 -107t121 -308q0 -69 -14 -153l-16 -93h-158l15 86q14 78 14 141q1 148 -75 216t-228 68q-205 0 -309 -97t-142 -313l-181 -1032h-158l178 1015q54 307 211 442t428 135zM1113 1798q-42 -45 -95 -45q-53 1 -80 29t-27 78t46 92q46 41 95 41
q48 -1 76 -29t27 -75q0 -46 -42 -91zM1671 714q-42 -45 -95 -45q-53 1 -80 29t-27 78t46 92q46 41 95 41q48 -1 76 -29t27 -75q0 -46 -42 -91z" />
    <glyph glyph-name="uni1498" unicode="&#x1498;" horiz-adv-x="1588" 
d="M874 -25q-195 0 -315 107t-120 308q0 80 14 153l17 93h158l-16 -86q-11 -55 -14 -140q0 -148 76 -216t228 -69q204 0 308 96q103 97 142 314l182 1032h158l-179 -1015q-54 -306 -211 -442q-158 -135 -428 -135zM355 714q-42 -45 -95 -45q-53 1 -80 29t-27 78t46 92
q46 41 95 41q48 -1 76 -29t27 -75q0 -46 -42 -91z" />
    <glyph glyph-name="uni1499" unicode="&#x1499;" horiz-adv-x="1688" 
d="M619 -25q-195 0 -315 107t-120 308q0 80 14 153l17 93h158l-16 -86q-11 -55 -14 -140q0 -148 76 -216t228 -69q204 0 308 96q103 97 142 314l182 1032h158l-179 -1015q-54 -306 -211 -442q-158 -135 -428 -135zM1741 714q-42 -45 -95 -45q-53 1 -80 29t-27 78t46 92
q46 41 95 41q48 -1 76 -29t27 -75q0 -46 -42 -91z" />
    <glyph glyph-name="uni149A" unicode="&#x149a;" horiz-adv-x="1588" 
d="M874 -25q-195 0 -315 107t-120 308q0 80 14 153l17 93h158l-16 -86q-11 -55 -14 -140q0 -148 76 -216t228 -69q204 0 308 96q103 97 142 314l182 1032h158l-179 -1015q-54 -306 -211 -442q-158 -135 -428 -135zM355 714q-42 -45 -95 -45q-53 1 -80 29t-27 78t46 92
q46 41 95 41q48 -1 76 -29t27 -75q0 -46 -42 -91zM1742 1798q-42 -45 -95 -45q-53 1 -80 29t-27 78t46 92q46 41 95 41q47 -1 75 -29t28 -75q0 -46 -42 -91z" />
    <glyph glyph-name="uni149B" unicode="&#x149b;" horiz-adv-x="1688" 
d="M619 -25q-195 0 -315 107t-120 308q0 80 14 153l17 93h158l-16 -86q-11 -55 -14 -140q0 -148 76 -216t228 -69q204 0 308 96q103 97 142 314l182 1032h158l-179 -1015q-54 -306 -211 -442q-158 -135 -428 -135zM1741 714q-42 -45 -95 -45q-53 1 -80 29t-27 78t46 92
q46 41 95 41q48 -1 76 -29t27 -75q0 -46 -42 -91zM1488 1798q-42 -45 -95 -45q-53 1 -80 29t-27 78t46 92q46 41 95 41q47 -1 75 -29t28 -75q0 -46 -42 -91z" />
    <glyph glyph-name="uni149C" unicode="&#x149c;" horiz-adv-x="1638" 
d="M716 395q0 -141 75 -206q75 -64 252 -64q175 -1 283 101t147 324l16 86h158l-17 -93q-52 -288 -225 -428t-398 -140q-225 -1 -338 93t-113 299q0 83 18 185l179 1015h158l-182 -1032q-13 -70 -13 -140zM355 714q-42 -45 -95 -45q-53 1 -80 29t-27 78t46 92q46 41 95 41
q48 -1 76 -29t27 -75q0 -46 -42 -91z" />
    <glyph glyph-name="uni149D" unicode="&#x149d;" horiz-adv-x="1618" 
d="M411 395q0 -141 75 -206q75 -64 252 -64q176 -1 284 101t146 324l16 86h158l-17 -93q-52 -288 -225 -428t-398 -140q-225 -1 -338 93t-113 299q0 83 18 185l179 1015h158l-182 -1032q-13 -70 -13 -140zM1671 714q-42 -45 -95 -45q-53 1 -80 29t-27 78t46 92q46 41 95 41
q48 -1 76 -29t27 -75q0 -46 -42 -91z" />
    <glyph glyph-name="uni149E" unicode="&#x149e;" horiz-adv-x="1638" 
d="M716 395q0 -141 75 -206q75 -64 252 -64q175 -1 283 101t147 324l16 86h158l-17 -93q-52 -288 -225 -428t-398 -140q-225 -1 -338 93t-113 299q0 83 18 185l179 1015h158l-182 -1032q-13 -70 -13 -140zM966 1801q-42 -45 -95 -45t-80 28t-27 79q0 50 46 92q46 41 95 41
q47 0 75 -28t28 -76q0 -46 -42 -91zM355 714q-42 -45 -95 -45q-53 1 -80 29t-27 78t46 92q46 41 95 41q48 -1 76 -29t27 -75q0 -46 -42 -91z" />
    <glyph glyph-name="uni149F" unicode="&#x149f;" horiz-adv-x="1618" 
d="M411 395q0 -141 75 -206q75 -64 252 -64q176 -1 284 101t146 324l16 86h158l-17 -93q-52 -288 -225 -428t-398 -140q-225 -1 -338 93t-113 299q0 83 18 185l179 1015h158l-182 -1032q-13 -70 -13 -140zM670 1798q-42 -45 -95 -45q-53 1 -80 29t-27 78t46 92q46 41 95 41
q47 -1 75 -29t28 -75q0 -46 -42 -91zM1671 714q-42 -45 -95 -45q-53 1 -80 29t-27 78t46 92q46 41 95 41q48 -1 76 -29t27 -75q0 -46 -42 -91z" />
    <glyph glyph-name="uni14A0" unicode="&#x14a0;" horiz-adv-x="1686" 
d="M764 395q0 -141 75 -206q75 -64 252 -64q175 -1 283 101t147 324l16 86h158l-17 -93q-52 -288 -225 -428t-398 -140q-225 -1 -338 93t-113 299q0 83 18 185l179 1015h158l-182 -1032q-13 -70 -13 -140zM453 998q-42 -45 -95 -45q-53 1 -80 29t-27 78t46 92q46 41 95 41
q48 -1 76 -29t27 -75q0 -46 -42 -91zM355 447q-42 -45 -95 -45t-80 28t-27 79q0 50 46 92q46 41 95 41q48 0 76 -28t27 -76q0 -46 -42 -91z" />
    <glyph glyph-name="uni14A1" unicode="&#x14a1;" horiz-adv-x="765" 
d="M515 668q-252 0 -252 231q3 61 9 90l102 578h135l-101 -573q-6 -38 -6 -66q0 -72 36 -102t108 -30t119.5 46.5t62.5 130.5l18 99h135l-20 -113q-37 -211 -155.5 -251t-190.5 -40z" />
    <glyph glyph-name="uni14A2" unicode="&#x14a2;" horiz-adv-x="765" 
d="M374 923q0 -127 132 -127q79 0 130 44.5t71 153.5l101 573h135l-102 -578q-58 -321 -357 -321q-125 0 -187 58t-62 161q0 37 7 72l20 113h135l-18 -99q-5 -35 -5 -50z" />
    <glyph glyph-name="uni14A3" unicode="&#x14a3;" horiz-adv-x="1317" 
d="M1145 0h-158l248 1410h-875l28 157h1033z" />
    <glyph glyph-name="uni14A4" unicode="&#x14a4;" horiz-adv-x="1274" 
d="M448 1567h1033l-27 -152h-875l-249 -1415h-158zM1244 2182q58 -58 58 -130q0 -127 -89 -213q-89 -87 -190 -87t-159 58t-57 136q-1 79 33 134t72 88q83 71 179 71q95 1 153 -57zM1018 1838q77 0 126 58q50 58 50 124q0 65 -30 99t-71 34q-69 0 -123 -52q-55 -52 -55 -121
q0 -70 30 -106q31 -36 73 -36z" />
    <glyph glyph-name="uni14A5" unicode="&#x14a5;" horiz-adv-x="1274" 
d="M448 1567h1033l-27 -152h-875l-249 -1415h-158z" />
    <glyph glyph-name="uni14A6" unicode="&#x14a6;" horiz-adv-x="1274" 
d="M448 1567h1033l-27 -152h-875l-249 -1415h-158zM1089 1798q-42 -45 -95 -45q-53 1 -80 29t-27 78t46 92q46 41 95 41q48 -1 76 -29t27 -75q0 -46 -42 -91z" />
    <glyph glyph-name="uni14A7" unicode="&#x14a7;" horiz-adv-x="1274" 
d="M1102 0h-1033l26 153h875l250 1414h158z" />
    <glyph glyph-name="uni14A8" unicode="&#x14a8;" horiz-adv-x="1274" 
d="M1102 0h-1033l26 153h875l250 1414h158zM1428 1798q-42 -45 -95 -45q-53 1 -80 29t-27 78t46 92q46 41 95 41q47 -1 75 -29t28 -75q0 -46 -42 -91z" />
    <glyph glyph-name="uni14A9" unicode="&#x14a9;" horiz-adv-x="1274" 
d="M1102 0h-1033l26 153h875l250 1414h158zM1438 1798q-42 -45 -95 -45q-53 1 -80 29t-27 78t46 92q46 41 95 41q47 -1 75 -29t28 -75q0 -46 -42 -91zM940 1798q-42 -45 -95 -45q-53 1 -80 29t-27 78t46 92q46 41 95 41q47 -1 75 -29t28 -75q0 -46 -42 -91z" />
    <glyph glyph-name="uni14AA" unicode="&#x14aa;" horiz-adv-x="1274" 
d="M448 1567h158l-250 -1414h875l-26 -153h-1033z" />
    <glyph glyph-name="uni14AB" unicode="&#x14ab;" horiz-adv-x="1274" 
d="M448 1567h158l-250 -1414h875l-26 -153h-1033zM666 1798q-42 -45 -95 -45q-53 1 -80 29t-27 78t46 92q46 41 95 41q47 -1 75 -29t28 -75q0 -46 -42 -91z" />
    <glyph glyph-name="uni14AC" unicode="&#x14ac;" horiz-adv-x="1452" 
d="M1280 0h-158l248 1410h-875l28 157h1033zM355 714q-42 -45 -95 -45q-53 1 -80 29t-27 78t46 92q46 41 95 41q48 -1 76 -29t27 -75q0 -46 -42 -91z" />
    <glyph glyph-name="uni14AD" unicode="&#x14ad;" horiz-adv-x="1672" 
d="M1145 0h-158l248 1410h-875l28 157h1033zM1725 714q-42 -45 -95 -45q-53 1 -80 29t-27 78t46 92q46 41 95 41q48 -1 76 -29t27 -75q0 -46 -42 -91z" />
    <glyph glyph-name="uni14AE" unicode="&#x14ae;" horiz-adv-x="1579" 
d="M753 1567h1033l-27 -152h-875l-249 -1415h-158zM355 714q-42 -45 -95 -45q-53 1 -80 29t-27 78t46 92q46 41 95 41q48 -1 76 -29t27 -75q0 -46 -42 -91z" />
    <glyph glyph-name="uni14AF" unicode="&#x14af;" horiz-adv-x="1439" 
d="M448 1567h1033l-27 -152h-875l-249 -1415h-158zM1492 714q-42 -45 -95 -45q-53 1 -80 29t-27 78t46 92q46 41 95 41q47 -1 75 -29t28 -75q0 -46 -42 -91z" />
    <glyph glyph-name="uni14B0" unicode="&#x14b0;" horiz-adv-x="1579" 
d="M753 1567h1033l-27 -152h-875l-249 -1415h-158zM1394 1798q-42 -45 -95 -45q-53 1 -80 29t-27 78t46 92q46 41 95 41q47 -1 75 -29t28 -75q0 -46 -42 -91zM355 714q-42 -45 -95 -45q-53 1 -80 29t-27 78t46 92q46 41 95 41q48 -1 76 -29t27 -75q0 -46 -42 -91z" />
    <glyph glyph-name="uni14B1" unicode="&#x14b1;" horiz-adv-x="1439" 
d="M448 1567h1033l-27 -152h-875l-249 -1415h-158zM1089 1797q-42 -45 -95 -45t-80 28t-27 79q0 50 46 92q46 41 95 41q48 0 76 -28t27 -76q0 -46 -42 -91zM1492 714q-42 -45 -95 -45q-53 1 -80 29t-27 78t46 92q46 41 95 41q47 -1 75 -29t28 -75q0 -46 -42 -91z" />
    <glyph glyph-name="uni14B2" unicode="&#x14b2;" horiz-adv-x="1409" 
d="M1237 0h-1033l26 153h875l250 1414h158zM355 714q-42 -45 -95 -45q-53 1 -80 29t-27 78t46 92q46 41 95 41q48 -1 76 -29t27 -75q0 -46 -42 -91z" />
    <glyph glyph-name="uni14B3" unicode="&#x14b3;" horiz-adv-x="1629" 
d="M1102 0h-1033l26 153h875l250 1414h158zM1682 714q-42 -45 -95 -45q-53 1 -80 29t-27 78t46 92q46 41 95 41q47 -1 75 -29t28 -75q0 -46 -42 -91z" />
    <glyph glyph-name="uni14B4" unicode="&#x14b4;" horiz-adv-x="1409" 
d="M1237 0h-1033l26 153h875l250 1414h158zM1569 1798q-42 -45 -95 -45q-53 1 -80 29t-27 78t46 92q46 41 95 41q48 -1 76 -29t27 -75q0 -46 -42 -91zM355 714q-42 -45 -95 -45q-53 1 -80 29t-27 78t46 92q46 41 95 41q48 -1 76 -29t27 -75q0 -46 -42 -91z" />
    <glyph glyph-name="uni14B5" unicode="&#x14b5;" horiz-adv-x="1629" 
d="M1102 0h-1033l26 153h875l250 1414h158zM1433 1798q-42 -45 -95 -45q-53 1 -80 29t-27 78t46 92q46 41 95 41q48 -1 76 -29t27 -75q0 -46 -42 -91zM1682 714q-42 -45 -95 -45q-53 1 -80 29t-27 78t46 92q46 41 95 41q47 -1 75 -29t28 -75q0 -46 -42 -91z" />
    <glyph glyph-name="uni14B6" unicode="&#x14b6;" horiz-adv-x="1579" 
d="M753 1567h158l-250 -1414h875l-26 -153h-1033zM355 714q-42 -45 -95 -45q-53 1 -80 29t-27 78t46 92q46 41 95 41q48 -1 76 -29t27 -75q0 -46 -42 -91z" />
    <glyph glyph-name="uni14B7" unicode="&#x14b7;" horiz-adv-x="1439" 
d="M448 1567h158l-250 -1414h875l-26 -153h-1033zM1492 714q-42 -45 -95 -45q-53 1 -80 29t-27 78t46 92q46 41 95 41q47 -1 75 -29t28 -75q0 -46 -42 -91z" />
    <glyph glyph-name="uni14B8" unicode="&#x14b8;" horiz-adv-x="1580" 
d="M754 1567h158l-250 -1414h875l-26 -153h-1033zM355 713q-42 -45 -95 -45t-80 28t-27 79q0 50 46 92q46 41 95 41q48 0 76 -28t27 -76q0 -46 -42 -91zM970 1798q-42 -45 -95 -45q-53 1 -80 29t-27 78t46 92q46 41 95 41q47 -1 75 -29t28 -75q0 -46 -42 -91z" />
    <glyph glyph-name="uni14B9" unicode="&#x14b9;" horiz-adv-x="1439" 
d="M448 1567h158l-250 -1414h875l-26 -153h-1033zM662 1798q-42 -45 -95 -45q-53 1 -80 29t-27 78t46 92q46 41 95 41q47 -1 75 -29t28 -75q0 -46 -42 -91zM1492 714q-42 -45 -95 -45q-53 1 -80 29t-27 78t46 92q46 41 95 41q47 -1 75 -29t28 -75q0 -46 -42 -91z" />
    <glyph glyph-name="uni14BA" unicode="&#x14ba;" horiz-adv-x="1603" 
d="M801 1567h158l-250 -1414h875l-26 -153h-1033zM355 447q-42 -45 -95 -45t-80 28t-27 79q0 50 46 92q46 41 95 41q48 0 76 -28t27 -76q0 -46 -42 -91zM453 998q-42 -45 -95 -45q-53 1 -80 29t-27 78t46 92q46 41 95 41q48 -1 76 -29t27 -75q0 -46 -42 -91z" />
    <glyph glyph-name="uni14BB" unicode="&#x14bb;" horiz-adv-x="713" 
d="M358 1567h135l-136 -769h446l-23 -130h-581z" />
    <glyph glyph-name="uni14BC" unicode="&#x14bc;" horiz-adv-x="699" 
d="M697 668q-233 0 -329.5 76.5t-96.5 244.5q0 65 13 139q38 219 168 329t373 110h82l-23 -130h-64q-183 0 -294.5 -80.5t-111.5 -354.5q0 -105 73.5 -154.5t260.5 -49.5h24l-23 -130h-52z" />
    <glyph glyph-name="uni14BD" unicode="&#x14bd;" horiz-adv-x="713" 
d="M748 668h-581l23 130h446l136 769h135z" />
    <glyph glyph-name="uni14BE" unicode="&#x14be;" horiz-adv-x="882" 
d="M832 1303q0 69 -38 109t-134 40q-97 0 -152 -41t-67 -110h-135q21 127 129 203t248 76q141 0 217.5 -63t76.5 -169q0 -205 -166 -355q-128 -115 -290 -195h361l-23 -130h-648l15 82q8 4 48.5 23.5t145.5 71.5t258 181q154 128 154 277z" />
    <glyph glyph-name="uni14BF" unicode="&#x14bf;" horiz-adv-x="1240" 
d="M1150 1151q0 291 -282 291q-139 0 -226 -57t-106 -163h-158q21 175 166 272.5t355 97.5t319.5 -104t109.5 -282q0 -332 -240 -600q-214 -240 -665 -453h728l-26 -153h-970l24 141q546 258 758.5 520t212.5 490z" />
    <glyph glyph-name="uni14C0" unicode="&#x14c0;" horiz-adv-x="1879" 
d="M1367 1080q505 0 505 -400q0 -64 -14 -143q-46 -259 -212 -411t-432 -151q-217 0 -334.5 112t-117.5 303q0 190 87 371q52 105 105 166h-722l27 153h1108zM925 415q0 -290 314 -290q190 0 314 112t138 245t14 160q0 285 -342 285h-241q-197 -242 -197 -512z" />
    <glyph glyph-name="uni14C1" unicode="&#x14c1;" horiz-adv-x="1879" 
d="M1304 667q0 -64 -12 -133q-46 -250 -212 -404t-425 -155q-340 1 -430 245q-29 78 -29 162t13 155q97 543 683 543h1108l-27 -153h-722q53 -106 53 -260zM359 421q-1 -296 337 -296q174 0 286 103t147 304q12 69 12 131q0 142 -58 264h-241q-308 1 -418 -227
q-64 -134 -65 -279zM1172 1634q58 -58 57 -130q0 -127 -89 -213q-89 -87 -190 -87q-100 0 -158 58t-58 136q0 79 34 134t72 88q83 71 178 71q96 1 154 -57zM944 1290q77 0 127 58t50 124q0 65 -30 99t-71 34q-69 0 -123 -52q-55 -52 -55 -121q0 -70 30 -106t72 -36z" />
    <glyph glyph-name="uni14C2" unicode="&#x14c2;" horiz-adv-x="1879" 
d="M1304 667q0 -64 -12 -133q-46 -250 -212 -404t-425 -155q-340 0 -399.5 161.5t-59.5 245.5t13 155q97 543 683 543h1108l-27 -153h-722q53 -106 53 -260zM359 421q-1 -296 337 -296q174 0 286 103t147 304q12 69 12 131q0 142 -58 264h-241q-309 0 -396 -180.5
t-87 -325.5z" />
    <glyph glyph-name="uni14C3" unicode="&#x14c3;" horiz-adv-x="1879" 
d="M1304 667q0 -64 -12 -133q-46 -250 -212 -404t-425 -155q-340 1 -430 245q-29 78 -29 162t13 155q97 543 683 543h1108l-27 -153h-722q53 -106 53 -260zM359 421q-1 -296 337 -296q174 0 286 103t147 304q12 69 12 131q0 142 -58 264h-241q-308 1 -418 -227
q-64 -134 -65 -279zM956 1380q-42 -45 -95 -45q-53 1 -80 29t-27 78t46 92q46 41 95 41q47 -1 75 -29t28 -75q0 -46 -42 -91z" />
    <glyph glyph-name="uni14C4" unicode="&#x14c4;" horiz-adv-x="1879" 
d="M764 411q0 67 13 135q43 244 209 398t408 153q242 0 360 -112t118 -308q0 -58 -13 -134q-95 -543 -682 -543h-1108l26 153h722q-53 106 -53 258zM927 420q0 -140 58 -267h241q309 0 388.5 165.5t87 239.5t6.5 97q0 139 -82 215.5t-256 76.5t-285.5 -103t-145.5 -296
q-12 -68 -12 -128z" />
    <glyph glyph-name="uni14C5" unicode="&#x14c5;" horiz-adv-x="1879" 
d="M764 411q0 67 13 135q43 244 209 398t408 153q242 0 360 -112t118 -308q0 -58 -13 -134q-95 -543 -682 -543h-1108l26 153h722q-53 106 -53 258zM927 420q0 -140 58 -267h241q308 -1 418 227q50 102 62 226q2 26 2 49q0 139 -82 215t-256 77q-174 0 -286 -103t-145 -296
q-12 -68 -12 -128zM1560 1380q-42 -45 -95 -45q-53 1 -80 29t-27 78t46 92q46 41 95 41q47 -1 75 -29t28 -75q0 -46 -42 -91z" />
    <glyph glyph-name="uni14C6" unicode="&#x14c6;" horiz-adv-x="1879" 
d="M764 411q0 67 13 135q43 244 209 398t408 153q242 0 360 -112t118 -308q0 -58 -13 -134q-95 -543 -682 -543h-1108l26 153h722q-53 106 -53 258zM927 420q0 -140 58 -267h241q308 -1 418 227q50 102 62 226q2 26 2 49q0 139 -82 215t-256 77q-174 0 -286 -103t-145 -296
q-12 -68 -12 -128zM1301 1380q-42 -45 -95 -45q-53 1 -80 29t-27 78t46 92q46 41 95 41q48 -1 76 -29t27 -75q0 -46 -42 -91zM1789 1380q-42 -45 -95 -45q-53 1 -80 29t-27 78t46 92q46 41 95 41q48 -1 76 -29t27 -75q0 -46 -42 -91z" />
    <glyph glyph-name="uni14C7" unicode="&#x14c7;" horiz-adv-x="1879" 
d="M702 0q-506 0 -506 401q0 66 14 142q46 251 212 403t431 151q218 0 335.5 -114t117.5 -300t-87 -364q-52 -105 -105 -166h722l-26 -153h-1108zM363 438q0 -285 342 -285h241q196 237 196 505q0 289 -314 289q-212 0 -338.5 -139t-126.5 -370z" />
    <glyph glyph-name="uni14C8" unicode="&#x14c8;" horiz-adv-x="1842" 
d="M702 0q-506 0 -506 401q0 66 14 142q46 251 212 403t431 151q218 0 336 -114q117 -114 117 -300t-87 -364q-52 -105 -105 -166h722l-26 -153h-1108zM363 438q0 -285 342 -285h241q196 237 196 505q0 289 -314 289q-212 0 -339 -139q-126 -139 -126 -370zM1000 1381
q-42 -45 -95 -45t-80 28t-27 79q0 50 46 92q46 41 95 41q47 0 75 -28t28 -76q0 -46 -42 -91z" />
    <glyph glyph-name="uni14C9" unicode="&#x14c9;" horiz-adv-x="2184" 
d="M1672 1080q505 0 505 -400q0 -64 -14 -143q-45 -259 -211 -411t-433 -151q-217 0 -335 112q-117 112 -117 303q0 190 87 371q52 105 105 166h-722l27 153h1108zM1230 415q0 -290 314 -290q190 0 314 112t149 349q3 29 3 56q0 285 -342 285h-241q-197 -242 -197 -512z
M355 714q-42 -45 -95 -45q-53 1 -80 29t-27 78t46 92q46 41 95 41q48 -1 76 -29t27 -75q0 -46 -42 -91z" />
    <glyph glyph-name="uni14CA" unicode="&#x14ca;" horiz-adv-x="2234" 
d="M1367 1080q505 0 505 -400q0 -64 -14 -143q-46 -259 -212 -411t-432 -151q-217 0 -335 112q-117 112 -117 303q0 190 87 371q52 105 105 166h-722l27 153h1108zM925 415q0 -290 314 -290q190 0 314 112t149 349q3 29 3 56q0 285 -342 285h-241q-197 -242 -197 -512z
M2287 713q-42 -45 -95 -45t-80 28t-27 79q0 50 46 92q46 41 95 41q48 0 76 -28t27 -76q0 -46 -42 -91z" />
    <glyph glyph-name="uni14CB" unicode="&#x14cb;" horiz-adv-x="2184" 
d="M1007 0q-506 0 -506 401q0 66 14 142q45 251 211 403t432 151q218 0 336 -114q117 -114 117 -300t-87 -364q-52 -105 -105 -166h722l-26 -153h-1108zM668 438q0 -285 342 -285h241q196 237 196 505q0 289 -314 289q-212 0 -339 -139q-126 -139 -126 -370zM355 714
q-42 -45 -95 -45q-53 1 -80 29t-27 78t46 92q46 41 95 41q48 -1 76 -29t27 -75q0 -46 -42 -91z" />
    <glyph glyph-name="uni14CC" unicode="&#x14cc;" horiz-adv-x="1855" 
d="M702 0q-506 0 -506 401q0 66 14 142q46 251 212 403t431 151q218 0 336 -114q117 -114 117 -300t-87 -364q-52 -105 -105 -166h722l-26 -153h-1108zM363 438q0 -285 342 -285h241q196 237 196 505q0 289 -314 289q-212 0 -339 -139q-126 -139 -126 -370zM1803 713
q-42 -45 -95 -45t-80 28t-27 79q0 50 46 92q46 41 95 41q48 0 76 -28t27 -76q0 -46 -42 -91z" />
    <glyph glyph-name="uni14CD" unicode="&#x14cd;" horiz-adv-x="2184" 
d="M1007 0q-506 0 -506 401q0 66 14 142q45 251 211 403t432 151q218 0 336 -114q117 -114 117 -300t-87 -364q-52 -105 -105 -166h722l-26 -153h-1108zM668 438q0 -285 342 -285h241q196 237 196 505q0 289 -314 289q-212 0 -339 -139q-126 -139 -126 -370zM1305 1380
q-42 -45 -95 -45q-53 1 -80 29t-27 78t46 92q46 41 95 41q48 -1 76 -29t27 -75q0 -46 -42 -91zM355 714q-42 -45 -95 -45q-53 1 -80 29t-27 78t46 92q46 41 95 41q48 -1 76 -29t27 -75q0 -46 -42 -91z" />
    <glyph glyph-name="uni14CE" unicode="&#x14ce;" horiz-adv-x="1879" 
d="M702 0q-506 0 -506 401q0 66 14 142q46 251 212 403t431 151q218 0 336 -114q117 -114 117 -300t-87 -364q-52 -105 -105 -166h722l-26 -153h-1108zM363 438q0 -285 342 -285h241q196 237 196 505q0 289 -314 289q-212 0 -339 -139q-126 -139 -126 -370zM1804 714
q-42 -45 -95 -45q-53 1 -80 29t-27 78t46 92q46 41 95 41q47 -1 75 -29t28 -75q0 -46 -42 -91zM1010 1380q-42 -45 -95 -45q-53 1 -80 29t-27 78t46 92q46 41 95 41q47 -1 75 -29t28 -75q0 -46 -42 -91z" />
    <glyph glyph-name="uni14CF" unicode="&#x14cf;" horiz-adv-x="1879" 
d="M702 0q-506 0 -506 401q0 66 14 142q46 251 212 403t431 151q218 0 336 -114q117 -114 117 -300t-87 -364q-52 -105 -105 -166h722l-26 -153h-1108zM363 438q0 -285 342 -285h241q196 237 196 505q0 289 -314 289q-212 0 -339 -139q-126 -139 -126 -370zM766 1381
q-42 -45 -95 -45t-80 28t-27 79q0 50 46 92q46 41 95 41q47 0 75 -28t28 -76q0 -46 -42 -91zM1238 1378q-42 -45 -95 -45q-53 1 -80 29t-27 78t46 92q46 41 95 41q47 -1 75 -29t28 -75q0 -46 -42 -91z" />
    <glyph glyph-name="uni14D0" unicode="&#x14d0;" horiz-adv-x="1108" 
d="M807 1310q0 142 -153 142q-95 0 -149 -68.5t-54 -178.5q0 -131 132 -131h128q96 94 96 236zM551 944q-117 0 -182 61.5t-65 178.5q0 159 104.5 277.5t276.5 118.5q123 0 191 -66t68 -192t-98 -248h353l-23 -130h-625z" />
    <glyph glyph-name="uni14D1" unicode="&#x14d1;" horiz-adv-x="940" 
d="M417 1001q0 -206 187 -206q143 0 208 81t107 313l67 378h135l-72 -406q-52 -295 -175 -395t-293 -99q-302 0 -302 297q0 81 20 193l72 410h135l-74 -419q-15 -84 -15 -147z" />
    <glyph glyph-name="uni14D2" unicode="&#x14d2;" horiz-adv-x="1108" 
d="M733 1191q0 -70 33 -117h128q88 0 142.5 64.5t54.5 153t-31.5 124.5t-102.5 36q-106 0 -165 -68t-59 -193zM601 1212q0 152 106 260t248 108t213 -70t71 -170q0 -185 -105.5 -290.5t-253.5 -105.5h-625l23 130h353q-30 65 -30 138z" />
    <glyph glyph-name="uni14D3" unicode="&#x14d3;" horiz-adv-x="1788" 
d="M1261 1080q519 0 519 -407q0 -320 -186 -496.5t-517 -176.5h-139l26 153h171q222 0 349 137.5t127 353.5q0 145 -85.5 214t-256.5 69h-1037l27 153h1002z" />
    <glyph glyph-name="uni14D4" unicode="&#x14d4;" horiz-adv-x="1788" 
d="M365 437q0 -284 340 -284h171l-26 -153h-139q-376 0 -480 240q-35 80 -35 210t48 249q48 120 136 205q183 176 496 176h1033l-27 -153h-1017q-239 0 -370 -135q-130 -134 -130 -355zM1174 1634q58 -58 57 -130q0 -127 -89 -213q-89 -87 -190 -87q-100 0 -158 58t-58 136
q0 79 34 134t72 88q83 71 178 71q96 1 154 -57zM946 1290q77 0 127 58t50 124q0 65 -30 99t-71 34q-69 0 -123 -52q-55 -52 -55 -121q0 -70 30 -106t72 -36z" />
    <glyph glyph-name="uni14D5" unicode="&#x14d5;" horiz-adv-x="1788" 
d="M365 437q0 -284 340 -284h171l-26 -153h-139q-376 0 -445.5 160t-69.5 290t48 249.5t184 250t448 130.5h1033l-27 -153h-1017q-239 0 -369.5 -134.5t-130.5 -355.5z" />
    <glyph glyph-name="uni14D6" unicode="&#x14d6;" horiz-adv-x="1788" 
d="M365 437q0 -284 340 -284h171l-26 -153h-139q-376 0 -480 240q-35 80 -35 210t48 249q48 120 136 205q183 176 496 176h1033l-27 -153h-1017q-239 0 -370 -135q-130 -134 -130 -355zM1005 1381q-42 -45 -95 -45t-80 28t-27 79q0 50 46 92q46 41 95 41q48 0 76 -28t27 -76
q0 -46 -42 -91z" />
    <glyph glyph-name="uni14D7" unicode="&#x14d7;" horiz-adv-x="1788" 
d="M1096 153q247 0 381 128.5t134 361.5q0 141 -86.5 212.5t-272.5 71.5h-151l27 153h139q375 0 444.5 -158t69.5 -290t-48 -255t-187 -250t-475 -127h-1002l26 153h1001z" />
    <glyph glyph-name="uni14D8" unicode="&#x14d8;" horiz-adv-x="1788" 
d="M1096 153q247 0 381 129t134 361q-1 141 -87 213t-272 71h-151l27 153h139q375 0 479 -236q35 -80 35 -212t-48 -255q-47 -123 -139 -207q-187 -171 -523 -170h-1002l26 153h1001zM1393 1381q-42 -45 -95 -45t-80 28t-27 79q0 50 46 92q46 41 95 41q48 0 76 -28t27 -76
q0 -46 -42 -91z" />
    <glyph glyph-name="uni14D9" unicode="&#x14d9;" horiz-adv-x="1788" 
d="M1096 153q247 0 381 129t134 361q-1 141 -87 213t-272 71h-151l27 153h139q375 0 479 -236q35 -80 35 -212t-48 -255q-47 -123 -139 -207q-187 -171 -523 -170h-1002l26 153h1001zM1306 1381q-42 -45 -95 -45t-80 28t-27 79q0 50 46 92q46 41 95 41q47 0 75 -28t28 -76
q0 -46 -42 -91zM1853 1383q-42 -45 -95 -45t-80 28t-27 79q0 50 46 92q46 41 95 41q48 0 76 -28t27 -76q0 -46 -42 -91z" />
    <glyph glyph-name="uni14DA" unicode="&#x14da;" horiz-adv-x="1788" 
d="M366 436q0 -283 342 -283h1037l-26 -153h-1002q-519 0 -519 407q0 210 132 441.5t571 231.5h139l-27 -153h-171q-198 0 -315.5 -97.5t-150.5 -286.5q-10 -56 -10 -107z" />
    <glyph glyph-name="uni14DB" unicode="&#x14db;" horiz-adv-x="1788" 
d="M366 436q0 -283 342 -283h1037l-26 -153h-1002q-519 0 -519 407q0 210 92 372q172 301 611 301h139l-27 -153h-171q-198 1 -316 -97t-150 -287q-10 -56 -10 -107zM1090 1381q-42 -45 -95 -45t-80 28t-27 79q0 50 46 92q46 41 95 41q47 0 75 -28t28 -76q0 -46 -42 -91z
" />
    <glyph glyph-name="uni14DC" unicode="&#x14dc;" horiz-adv-x="2043" 
d="M1516 1080q519 0 519 -407q0 -320 -186 -496q-186 -177 -517 -177h-139l26 153h171q222 0 349 138t127 353q0 145 -86 214t-256 69h-1037l27 153h1002zM355 714q-42 -45 -95 -45q-53 1 -80 29t-27 78t46 92q46 41 95 41q48 -1 76 -29t27 -75q0 -46 -42 -91z" />
    <glyph glyph-name="uni14DD" unicode="&#x14dd;" horiz-adv-x="2073" 
d="M1261 1080q519 0 519 -407q0 -320 -186 -496q-186 -177 -517 -177h-139l26 153h171q222 0 349 138t127 353q1 145 -85 214t-257 69h-1037l27 153h1002zM2125 713q-42 -45 -95 -45t-80 28t-27 79q0 50 46 92q46 41 95 41q48 0 76 -28t27 -76q0 -46 -42 -91z" />
    <glyph glyph-name="uni14DE" unicode="&#x14de;" horiz-adv-x="2093" 
d="M624 437q0 -284 340 -284h171l-26 -153h-139q-376 0 -480 240q-35 80 -35 210t48 249q49 120 137 205q183 176 495 176h1033l-27 -153h-1017q-239 0 -370 -135q-130 -134 -130 -355zM355 714q-42 -45 -95 -45q-53 1 -80 29t-27 78t46 92q46 41 95 41q48 -1 76 -29t27 -75
q0 -46 -42 -91z" />
    <glyph glyph-name="uni14DF" unicode="&#x14df;" horiz-adv-x="2123" 
d="M320 437q0 -284 340 -284h171l-26 -153h-139q-376 0 -480 240q-35 80 -35 210t48 249q49 120 137 205q183 176 495 176h1033l-27 -153h-1017q-239 0 -370 -135q-130 -134 -130 -355zM2176 714q-42 -45 -95 -45q-53 1 -80 29t-27 78t46 92q46 41 95 41q47 -1 75 -29
t28 -75q0 -46 -42 -91z" />
    <glyph glyph-name="uni14E0" unicode="&#x14e0;" horiz-adv-x="2163" 
d="M694 437q0 -284 340 -284h171l-26 -153h-139q-376 0 -480 240q-35 80 -35 210t48 249q49 120 137 205q183 176 495 176h1033l-27 -153h-1017q-239 0 -370 -135q-130 -134 -130 -355zM1310 1380q-42 -45 -95 -45q-53 1 -80 29t-27 78t46 92q46 41 95 41q47 -1 75 -29
t28 -75q0 -46 -42 -91zM355 714q-42 -45 -95 -45q-53 1 -80 29t-27 78t46 92q46 41 95 41q48 -1 76 -29t27 -75q0 -46 -42 -91z" />
    <glyph glyph-name="uni14E1" unicode="&#x14e1;" horiz-adv-x="2122" 
d="M320 437q0 -284 340 -284h171l-26 -153h-139q-376 0 -480 240q-35 80 -35 210t48 249q49 120 137 205q183 176 495 176h1033l-27 -153h-1017q-239 0 -370 -135q-130 -134 -130 -355zM959 1380q-42 -45 -95 -45q-53 1 -80 29t-27 78t46 92q46 41 95 41q48 -1 76 -29
t27 -75q0 -46 -42 -91zM2175 714q-42 -45 -95 -45q-53 1 -80 29t-27 78t46 92q46 41 95 41q48 -1 76 -29t27 -75q0 -46 -42 -91z" />
    <glyph glyph-name="uni14E2" unicode="&#x14e2;" horiz-adv-x="1788" 
d="M1096 153q247 0 381 129t134 361q-1 141 -87 213t-272 71h-151l27 153h139q375 0 479 -236q35 -80 35 -212t-48 -255q-47 -123 -139 -207q-187 -171 -523 -170h-1002l26 153h1001zM486 712q-42 -45 -95 -45q-53 1 -80 29t-27 78t46 92q46 41 95 41q47 -1 75 -29t28 -75
q0 -46 -42 -91z" />
    <glyph glyph-name="uni14E3" unicode="&#x14e3;" horiz-adv-x="2144" 
d="M1096 153q247 0 381 129t134 361q-1 141 -87 213t-272 71h-151l27 153h139q375 0 479 -236q35 -80 35 -212t-48 -255q-47 -123 -139 -207q-187 -171 -523 -170h-1002l26 153h1001zM2197 714q-42 -45 -95 -45q-53 1 -80 29t-27 78t46 92q46 41 95 41q48 -1 76 -29t27 -75
q0 -46 -42 -91z" />
    <glyph glyph-name="uni14E4" unicode="&#x14e4;" horiz-adv-x="1788" 
d="M1096 153q247 0 381 129t134 361q-1 141 -87 213t-272 71h-151l27 153h139q375 0 479 -236q35 -80 35 -212t-48 -255q-47 -123 -139 -207q-187 -171 -523 -170h-1002l26 153h1001zM487 714q-42 -45 -95 -45q-53 1 -80 29t-27 78t46 92q46 41 95 41q48 -1 76 -29t27 -75
q0 -46 -42 -91zM1385 1379q-42 -45 -95 -45t-80 28t-27 79q0 50 46 92q46 41 95 41q48 0 76 -28t27 -76q0 -46 -42 -91z" />
    <glyph glyph-name="uni14E5" unicode="&#x14e5;" horiz-adv-x="2143" 
d="M1096 153q247 0 381 129t134 361q-1 141 -87 213t-272 71h-151l27 153h139q375 0 479 -236q35 -80 35 -212t-48 -255q-47 -123 -139 -207q-187 -171 -523 -170h-1002l26 153h1001zM1389 1380q-42 -45 -95 -45q-53 1 -80 29t-27 78t46 92q46 41 95 41q48 -1 76 -29t27 -75
q0 -46 -42 -91zM2196 715q-42 -45 -95 -45t-80 28t-27 79q0 50 46 92q46 41 95 41q47 0 75 -28t28 -76q0 -46 -42 -91z" />
    <glyph glyph-name="uni14E6" unicode="&#x14e6;" horiz-adv-x="2143" 
d="M675 436q0 -283 342 -283h1037l-26 -153h-1002q-519 0 -519 407q1 210 93 372q172 301 610 301h139l-27 -153h-171q-197 1 -315 -97t-151 -287q-10 -56 -10 -107zM355 714q-42 -45 -95 -45q-53 1 -80 29t-27 78t46 92q46 41 95 41q48 -1 76 -29t27 -75q0 -46 -42 -91z
" />
    <glyph glyph-name="uni14E7" unicode="&#x14e7;" horiz-adv-x="1764" 
d="M321 436q0 -283 342 -283h1037l-26 -153h-1002q-519 0 -519 407q1 210 93 372q172 301 610 301h139l-27 -153h-171q-197 1 -315 -97t-151 -287q-10 -56 -10 -107zM1742 714q-42 -45 -95 -45q-53 1 -80 29t-27 78t46 92q46 41 95 41q47 -1 75 -29t28 -75q0 -46 -42 -91z
" />
    <glyph glyph-name="uni14E8" unicode="&#x14e8;" horiz-adv-x="2133" 
d="M665 436q0 -283 342 -283h1037l-26 -153h-1002q-519 0 -519 407q1 210 93 372q172 301 610 301h139l-27 -153h-171q-197 1 -315 -97t-151 -287q-10 -56 -10 -107zM1412 1380q-42 -45 -95 -45q-53 1 -80 29t-27 78t46 92q46 41 95 41q47 -1 75 -29t28 -75q0 -46 -42 -91z
M355 714q-42 -45 -95 -45q-53 1 -80 29t-27 78t46 92q46 41 95 41q48 -1 76 -29t27 -75q0 -46 -42 -91z" />
    <glyph glyph-name="uni14E9" unicode="&#x14e9;" horiz-adv-x="1764" 
d="M321 436q0 -283 342 -283h1037l-26 -153h-1002q-519 0 -519 407q1 210 93 372q172 301 610 301h139l-27 -153h-171q-197 1 -315 -97t-151 -287q-10 -56 -10 -107zM1066 1380q-42 -45 -95 -45q-53 1 -80 29t-27 78t46 92q46 41 95 41q47 -1 75 -29t28 -75q0 -46 -42 -91z
M1742 714q-42 -45 -95 -45q-53 1 -80 29t-27 78t46 92q46 41 95 41q47 -1 75 -29t28 -75q0 -46 -42 -91z" />
    <glyph glyph-name="uni14EA" unicode="&#x14ea;" horiz-adv-x="1020" 
d="M594 974q-218 0 -254.5 79.5t-36.5 153.5q0 163 100.5 261.5t280.5 98.5h108l-23 -130h-115q-202 0 -202 -207q0 -126 147 -126h519l-23 -130h-501z" />
    <glyph glyph-name="uni14EB" unicode="&#x14eb;" horiz-adv-x="913" 
d="M1079 1580h31l-22 -128l-528 -148l479 -127l-18 -103l-525 -138l476 -141l-23 -128h-29l-666 220l18 105l525 131l-479 128l19 105z" />
    <glyph glyph-name="uni14EC" unicode="&#x14ec;" horiz-adv-x="1369" 
d="M1464 1587h12l-29 -167l-905 -306l804 -267l-22 -125l-898 -285l796 -295l-30 -167h-10l-1017 397l24 135l913 276l-818 265l24 135z" />
    <glyph glyph-name="uni14ED" unicode="&#x14ed;" horiz-adv-x="1203" 
d="M525 1247q0 -278 135 -412t442 -134h103l-123 -701h-158l97 555q-501 6 -578 255t-77 407t34 350h159q-34 -182 -34 -320z" />
    <glyph glyph-name="uni14EE" unicode="&#x14ee;" horiz-adv-x="1203" 
d="M347 701q391 0 593 227q178 200 256 639h159q-88 -501 -323 -754t-656 -258l-97 -555h-158l123 701h103zM1506 2182q58 -58 58 -130q0 -127 -89 -213q-89 -87 -190 -87t-159 58t-57 136q-1 79 33 134t72 88q83 71 179 71q95 1 153 -57zM1280 1838q77 0 126 58
q50 58 50 124q0 65 -30 99t-71 34q-69 0 -123 -52q-55 -52 -55 -121q0 -70 30 -106q31 -36 73 -36z" />
    <glyph glyph-name="uni14EF" unicode="&#x14ef;" horiz-adv-x="1203" 
d="M347 701q391 0 580.5 213.5t268.5 652.5h159q-88 -501 -323 -753.5t-656 -258.5l-97 -555h-158l123 701h103z" />
    <glyph glyph-name="uni14F0" unicode="&#x14f0;" horiz-adv-x="1203" 
d="M1410 1798q-42 -45 -95 -45q-53 1 -80 29t-27 78t46 92q46 41 95 41q47 -1 75 -29t28 -75q0 -46 -42 -91zM347 701q391 0 593 227q178 200 256 639h159q-88 -501 -323 -754t-656 -258l-97 -555h-158l123 701h103z" />
    <glyph glyph-name="uni14F1" unicode="&#x14f1;" horiz-adv-x="1203" 
d="M1122 815q-391 0 -579 -201t-260 -614h-159q82 475 315.5 715t653.5 246l107 606h158l-133 -752h-103z" />
    <glyph glyph-name="uni14F2" unicode="&#x14f2;" horiz-adv-x="1203" 
d="M1122 815q-390 1 -590 -213q-176 -189 -249 -602h-159q82 475 315 715t654 246l107 606h158l-133 -752h-103zM1409 1798q-42 -45 -95 -45q-53 1 -80 29t-27 78t46 92q46 41 95 41q48 -1 76 -29t27 -75q0 -46 -42 -91z" />
    <glyph glyph-name="uni14F3" unicode="&#x14f3;" horiz-adv-x="1203" 
d="M1122 815q-390 1 -590 -213q-176 -189 -249 -602h-159q82 475 315 715t654 246l107 606h158l-133 -752h-103zM1415 1798q-42 -45 -95 -45q-53 1 -80 29t-27 78t46 92q46 41 95 41q48 -1 76 -29t27 -75q0 -46 -42 -91zM954 1798q-42 -45 -95 -45q-53 1 -80 29t-27 78
t46 92q46 41 95 41q47 -1 75 -29t28 -75q0 -46 -42 -91z" />
    <glyph glyph-name="uni14F4" unicode="&#x14f4;" horiz-adv-x="1203" 
d="M950 298q0 257 -135.5 387t-447.5 130h-103l133 752h158l-107 -606q508 -9 584.5 -249t76.5 -390t-30 -322h-159q30 175 30 298z" />
    <glyph glyph-name="uni14F5" unicode="&#x14f5;" horiz-adv-x="1203" 
d="M950 298q0 257 -136 387t-447 130h-103l133 752h158l-107 -606q508 -9 623 -369q38 -120 38 -270t-30 -322h-159q30 175 30 298zM612 1798q-42 -45 -95 -45q-53 1 -80 29t-27 78t46 92q46 41 95 41q47 -1 75 -29t28 -75q0 -46 -42 -91z" />
    <glyph glyph-name="uni14F6" unicode="&#x14f6;" horiz-adv-x="1438" 
d="M760 1247q0 -278 135 -412t442 -134h103l-123 -701h-158l97 555q-501 6 -617 381q-38 123 -38 281t34 350h159q-34 -182 -34 -320zM384 713q-42 -45 -95 -45t-80 28t-27 79q0 50 46 92q46 41 95 41q47 0 75 -28t28 -76q0 -46 -42 -91z" />
    <glyph glyph-name="uni14F7" unicode="&#x14f7;" horiz-adv-x="1488" 
d="M525 1247q0 -278 135 -412t442 -134h103l-123 -701h-158l97 555q-501 6 -617 381q-38 123 -38 281t34 350h159q-34 -182 -34 -320zM1540 713q-42 -45 -95 -45t-80 28t-27 79q0 50 46 92q46 41 95 41q47 0 75 -28t28 -76q0 -46 -42 -91z" />
    <glyph glyph-name="uni14F8" unicode="&#x14f8;" horiz-adv-x="1585" 
d="M732 701q390 0 592 227q178 200 257 639h159q-88 -501 -323 -754t-656 -258l-97 -555h-158l123 701h103zM384 713q-42 -45 -95 -45t-80 28t-27 79q0 50 46 92q46 41 95 41q47 0 75 -28t28 -76q0 -46 -42 -91z" />
    <glyph glyph-name="uni14F9" unicode="&#x14f9;" horiz-adv-x="1505" 
d="M347 701q391 0 593 227q178 200 256 639h159q-88 -501 -323 -754t-656 -258l-97 -555h-158l123 701h103zM1557 713q-42 -45 -95 -45t-80 28t-27 79q0 50 46 92q46 41 95 41q48 0 76 -28t27 -76q0 -46 -42 -91z" />
    <glyph glyph-name="uni14FA" unicode="&#x14fa;" horiz-adv-x="1616" 
d="M763 701q391 0 593 227q178 200 256 639h159q-88 -501 -323 -754t-656 -258l-97 -555h-158l123 701h103zM1820 1798q-42 -45 -95 -45q-53 1 -80 29t-27 78t46 92q46 41 95 41q47 -1 75 -29t28 -75q0 -46 -42 -91zM356 552q-42 -45 -95 -45q-53 1 -80 29t-27 78t46 92
q46 41 95 41q47 -1 75 -29t28 -75q0 -46 -42 -91z" />
    <glyph glyph-name="uni14FB" unicode="&#x14fb;" horiz-adv-x="1505" 
d="M347 701q391 0 593 227q178 200 256 639h159q-88 -501 -323 -754t-656 -258l-97 -555h-158l123 701h103zM1558 714q-42 -45 -95 -45q-53 1 -80 29t-27 78t46 92q46 41 95 41q47 -1 75 -29t28 -75q0 -46 -42 -91zM1406 1798q-42 -45 -95 -45q-53 1 -80 29t-27 78t46 92
q46 41 95 41q47 -1 75 -29t28 -75q0 -46 -42 -91z" />
    <glyph glyph-name="uni14FC" unicode="&#x14fc;" horiz-adv-x="1298" 
d="M488 992q-42 -45 -95 -45q-53 1 -80 29t-27 78t46 92q46 41 95 41q47 -1 75 -29t28 -75q0 -46 -42 -91zM1122 815q-390 1 -590 -213q-176 -189 -249 -602h-159q82 475 315 715t654 246l107 606h158l-133 -752h-103z" />
    <glyph glyph-name="uni14FD" unicode="&#x14fd;" horiz-adv-x="1652" 
d="M1122 815q-390 1 -590 -213q-176 -189 -249 -602h-159q82 475 315 715t654 246l107 606h158l-133 -752h-103zM1705 713q-42 -45 -95 -45t-80 28t-27 79q0 50 46 92q46 41 95 41q48 0 76 -28t27 -76q0 -46 -42 -91z" />
    <glyph glyph-name="uni14FE" unicode="&#x14fe;" horiz-adv-x="1298" 
d="M1122 815q-390 1 -590 -213q-176 -189 -249 -602h-159q82 475 315 715t654 246l107 606h158l-133 -752h-103zM1413 1798q-42 -45 -95 -45q-53 1 -80 29t-27 78t46 92q46 41 95 41q48 -1 76 -29t27 -75q0 -46 -42 -91zM488 992q-42 -45 -95 -45q-53 1 -80 29t-27 78t46 92
q46 41 95 41q47 -1 75 -29t28 -75q0 -46 -42 -91z" />
    <glyph glyph-name="uni14FF" unicode="&#x14ff;" horiz-adv-x="1653" 
d="M1122 815q-390 1 -590 -213q-176 -189 -249 -602h-159q82 475 315 715t654 246l107 606h158l-133 -752h-103zM1413 1798q-42 -45 -95 -45q-53 1 -80 29t-27 78t46 92q46 41 95 41q48 -1 76 -29t27 -75q0 -46 -42 -91zM1706 714q-42 -45 -95 -45q-53 1 -80 29t-27 78
t46 92q46 41 95 41q47 -1 75 -29t28 -75q0 -46 -42 -91z" />
    <glyph glyph-name="uni1500" unicode="&#x1500;" horiz-adv-x="1533" 
d="M1280 298q0 257 -136 387t-447 130h-103l133 752h158l-107 -606q508 -9 623 -369q38 -120 38 -270t-30 -322h-159q30 175 30 298zM335 715q-42 -45 -95 -45t-80 28t-27 79q0 50 46 92q46 41 95 41q48 0 76 -28t27 -76q0 -46 -42 -91z" />
    <glyph glyph-name="uni1501" unicode="&#x1501;" horiz-adv-x="1542" 
d="M950 298q0 257 -136 387t-447 130h-103l133 752h158l-107 -606q508 -9 623 -369q38 -120 38 -270t-30 -322h-159q30 175 30 298zM1508 713q-42 -45 -95 -45t-80 28t-27 79q0 50 46 92q46 41 95 41q47 0 75 -28t28 -76q0 -46 -42 -91z" />
    <glyph glyph-name="uni1502" unicode="&#x1502;" horiz-adv-x="1628" 
d="M1281 298q0 257 -136 387t-447 130h-103l133 752h158l-107 -606q508 -9 623 -369q38 -120 38 -270t-30 -322h-159q30 175 30 298zM930 1798q-42 -45 -95 -45q-53 1 -80 29t-27 78t46 92q46 41 95 41q47 -1 75 -29t28 -75q0 -46 -42 -91zM335 714q-42 -45 -95 -45
q-53 1 -80 29t-27 78t46 92q46 41 95 41q48 -1 76 -29t27 -75q0 -46 -42 -91z" />
    <glyph glyph-name="uni1503" unicode="&#x1503;" horiz-adv-x="1456" 
d="M950 298q0 257 -136 387t-447 130h-103l133 752h158l-107 -606q508 -9 623 -369q38 -120 38 -270t-30 -322h-159q30 175 30 298zM1509 714q-42 -45 -95 -45q-53 1 -80 29t-27 78t46 92q46 41 95 41q48 -1 76 -29t27 -75q0 -46 -42 -91zM609 1798q-42 -45 -95 -45
q-53 1 -80 29t-27 78t46 92q46 41 95 41q48 -1 76 -29t27 -75q0 -46 -42 -91z" />
    <glyph glyph-name="uni1504" unicode="&#x1504;" horiz-adv-x="1586" 
d="M1333 298q0 257 -136 387t-447 130h-103l133 752h158l-107 -606q508 -9 623 -369q38 -120 38 -270t-30 -322h-159q30 175 30 298zM433 999q-42 -45 -95 -45t-80 28t-27 79q0 50 46 92q46 41 95 41q48 0 76 -28t27 -76q0 -46 -42 -91zM335 446q-42 -45 -95 -45
q-53 1 -80 29t-27 78t46 92q46 41 95 41q48 -1 76 -29t27 -75q0 -46 -42 -91z" />
    <glyph glyph-name="uni1505" unicode="&#x1505;" horiz-adv-x="731" 
d="M654 815q0 268 -288 268h-86l86 484h136l-65 -365q354 -10 354 -360q0 -77 -17 -174h-135q15 86 15 147z" />
    <glyph glyph-name="uni1506" unicode="&#x1506;" horiz-adv-x="837" 
d="M606 1043h-42q-282 0 -282 190q0 171 122 259.5t288 88.5t305 -31l-25 -138q-150 41 -264 41q-276 0 -276 -181q0 -99 166 -99h60q286 0 286 -193q0 -169 -122.5 -256t-287.5 -87t-304 31l25 138q150 -41 229 -41q144 0 227 36t83 139t-188 103z" />
    <glyph glyph-name="uni1507" unicode="&#x1507;" horiz-adv-x="731" 
d="M191 668q71 390 240.5 460.5t284.5 73.5l65 365h136l-86 -484h-86q-273 -3 -337 -159.5t-82 -255.5h-135z" />
    <glyph glyph-name="uni1508" unicode="&#x1508;" horiz-adv-x="1020" 
d="M481 1390q0 -125 147 -125h519l-23 -130h-501q-218 0 -252 78.5t-34 137.5q0 131 57 229l139 -13q-52 -69 -52 -177z" />
    <glyph glyph-name="uni1509" unicode="&#x1509;" horiz-adv-x="730" 
d="M668 884q0 47 -8 71q-101 0 -121 -43.5t-20 -81.5q0 -61 62 -61q35 0 61 34t26 81zM340 1145h-47l75 422h136l-56 -318q159 0 255.5 -89t96.5 -218t-68 -201.5t-162 -72.5t-140 38t-46 101q0 16 4 36q34 192 252 192q-42 110 -300 110z" />
    <glyph glyph-name="uni150A" unicode="&#x150a;" horiz-adv-x="730" 
d="M366 836q0 -67 51 -67t73 36.5t22 75.5q0 40 -22 57t-84 17q-40 -52 -40 -119zM642 890q0 -112 -77.5 -167t-177.5 -55t-124 57.5t-24 116.5t37 136t143 174t303 97l56 318h136l-75 -422h-47q-258 0 -338 -110q188 0 188 -145z" />
    <glyph glyph-name="uni150B" unicode="&#x150b;" horiz-adv-x="731" 
d="M654 815q0 268 -288 268h-86l86 484h136l-65 -365q354 -10 354 -360q0 -77 -17 -174h-135q15 86 15 147zM692 544q29 0 50 -24t21 -50q0 -46 -34.5 -80.5t-74.5 -34.5t-61.5 22.5t-21.5 40.5q0 87 46 106.5t75 19.5zM498 1880q29 0 49.5 -23t20.5 -49q0 -47 -33.5 -82
t-74.5 -35t-62 23.5t-21 41.5v29q0 29 27 54t46 33t48 8z" />
    <glyph glyph-name="uni150C" unicode="&#x150c;" horiz-adv-x="2288" 
d="M654 815q0 268 -288 268h-86l86 484h136l-65 -365q354 -10 354 -360q0 -77 -17 -174h-135q15 86 15 147zM692 544q29 0 50 -24t21 -50q-1 -46 -35 -80t-74 -35q-40 1 -62 23t-21 40q0 87 73 118q19 8 48 8zM498 1880q30 0 50 -23t20 -49q0 -47 -34 -82t-74 -35
q-41 0 -62 23q-21 24 -21 42v22q0 36 27 61t46 33t48 8zM2423 1581l-29 -167l-1200 -620l-2 -10l979 -632l-29 -167h-18l-1200 788l6 37l1474 771h19z" />
    <glyph glyph-name="uni150D" unicode="&#x150d;" horiz-adv-x="2196" 
d="M654 815q0 268 -288 268h-86l86 484h136l-65 -365q354 -10 354 -360q0 -77 -17 -174h-135q15 86 15 147zM692 544q29 0 50 -24t21 -50q-1 -46 -35 -80t-74 -35q-40 1 -62 23t-21 40q0 87 73 118q19 8 48 8zM498 1880q30 0 50 -23t20 -49q0 -47 -34 -82t-74 -35
q-41 0 -62 23q-21 24 -21 42v22q0 36 27 61t46 33t48 8zM2080 1414q-492 0 -676 -140q-217 -164 -261 -594q-5 -50 -5 -132t32 -166q32 -82 114 -133q152 -96 571 -96h235l-26 -153h-260q-527 0 -714 170q-126 116 -128 377q0 116 26 260q74 415 312 587t778 173h262
l-27 -153h-233z" />
    <glyph glyph-name="uni150E" unicode="&#x150e;" horiz-adv-x="2012" 
d="M654 815q0 268 -288 268h-86l86 484h136l-65 -365q354 -10 354 -360q0 -77 -17 -174h-135q15 86 15 147zM692 544q29 0 50 -24t21 -50q-1 -46 -35 -80t-74 -35q-40 1 -62 23t-21 40q0 87 73 118q19 8 48 8zM498 1880q30 0 50 -23t20 -49q0 -47 -34 -82t-74 -35
q-41 0 -62 23q-21 24 -21 42v22q0 36 27 61t46 33t48 8zM1834 649q0 301 -312 301q-156 0 -302 -47l-62 -348q-17 -96 -17 -170q0 -142 71 -201t217 -59q179 0 292 150t113 374zM1540 1097q215 0 340 -107q124 -107 124 -321q0 -296 -165 -495t-451 -199q-286 1 -376 221
q-30 74 -31 162q0 88 15 174l183 1035h158l-94 -531q187 61 297 61z" />
    <glyph glyph-name="uni150F" unicode="&#x150f;" horiz-adv-x="2064" 
d="M654 815q0 268 -288 268h-86l86 484h136l-65 -365q354 -10 354 -360q0 -77 -17 -174h-135q15 86 15 147zM692 544q29 0 50 -24t21 -50q-1 -46 -35 -80t-74 -35q-40 1 -62 23t-21 40q0 87 73 118q19 8 48 8zM498 1880q30 0 50 -23t20 -49q0 -47 -34 -82t-74 -35
q-41 0 -62 23q-21 24 -21 42v22q0 36 27 61t46 33t48 8zM1142 395q0 -141 75 -206q75 -64 252 -64q175 -1 283 101t147 324l16 86h158l-17 -93q-52 -288 -225 -428t-398 -140q-225 -1 -338 93t-113 299q0 83 18 185l179 1015h158l-182 -1032q-13 -70 -13 -140z" />
    <glyph glyph-name="uni1510" unicode="&#x1510;" horiz-adv-x="1763" 
d="M1020 1210q0 126 -46 178.5t-173 52.5t-207.5 -103.5t-123.5 -355.5l-9 -51h-158l11 64q55 318 198 458q144 139 328 139t260.5 -89t76.5 -267q0 -95 -22 -221l-86 -491q-16 -94 -16 -158q0 -126 47.5 -183t174.5 -57t205.5 105t126.5 367l8 45h158l-10 -54
q-63 -338 -198 -476t-320 -138q-186 0 -268.5 88t-82.5 271q0 93 23 225l87 491q16 95 16 160z" />
    <glyph glyph-name="uni1511" unicode="&#x1511;" horiz-adv-x="1763" 
d="M518 -25q-336 0 -336 376q2 125 24 238l10 54h158l-8 -45q-24 -134 -24 -244t49 -169t139 -59t144.5 25.5t111.5 97.5t92 275l86 491q51 286 171 431q120 146 337 146q249 0 298.5 -141t49.5 -239t-21 -217l-11 -64h-158l9 51q22 128 22 236q0 223 -206 223
q-143 0 -217 -92t-109 -299l-87 -491q-52 -298 -177 -441t-347 -143z" />
    <glyph glyph-name="uni1512" unicode="&#x1512;" horiz-adv-x="1763" 
d="M518 -25q-336 0 -336 376q2 125 24 238l10 54h158l-8 -45q-24 -134 -24 -244t48 -170q48 -58 140 -58q90 0 144 26t94 75q74 94 110 297l86 491q51 286 171 431q120 146 337 146q248 0 322 -210q26 -72 26 -170t-21 -217l-11 -64h-158l9 51q22 128 22 236q0 223 -206 223
q-143 0 -217 -92t-109 -299l-87 -491q-52 -298 -177 -441t-347 -143zM1603 1798q-42 -45 -95 -45q-53 1 -80 29t-27 78t46 92q46 41 95 41q48 -1 76 -29t27 -75q0 -46 -42 -91z" />
    <glyph glyph-name="uni1513" unicode="&#x1513;" horiz-adv-x="1388" 
d="M972 1567q529 0 529 -348q0 -139 -100 -321.5t-539 -182.5h-92q-216 0 -328.5 -78t-112.5 -264q0 -125 93 -172.5t322 -47.5h442l-26 -153h-451q-426 0 -485.5 128t-59.5 215q0 149 56.5 259t152.5 168q161 98 459 98h72q202 0 301.5 59.5t126.5 216.5q6 31 6 73
q0 99 -93.5 148t-312.5 49h-451l27 153h464z" />
    <glyph glyph-name="uni1514" unicode="&#x1514;" horiz-adv-x="1388" 
d="M972 1567q529 0 529 -348q0 -139 -63 -254q-137 -250 -576 -250h-92q-216 0 -329 -78q-112 -78 -112 -264q0 -125 93 -173q93 -47 322 -47h442l-26 -153h-451q-426 0 -515 192q-30 64 -30 151q0 149 56 259t153 168q161 98 459 98h72q202 0 302 59t126 217q6 31 6 73
q0 99 -93 148t-313 49h-451l27 153h464zM1113 1798q-42 -45 -95 -45q-53 1 -80 29t-27 78t46 92q46 41 95 41q48 -1 76 -29t27 -75q0 -46 -42 -91z" />
    <glyph glyph-name="uni1515" unicode="&#x1515;" horiz-adv-x="1388" 
d="M862 868q264 0 391.5 -75.5t127.5 -244.5q0 -214 -82 -310t-128 -128q-161 -110 -492 -110h-451l26 153h442q252 0 362 60t134 153t24 147q0 107 -88 154.5t-258 47.5h-92q-255 0 -374 71.5t-119 238.5q0 272 202 423q160 119 481 119h464l-27 -153h-451
q-270 0 -386.5 -80t-116.5 -267q0 -112 82.5 -155.5t256.5 -43.5h72z" />
    <glyph glyph-name="uni1516" unicode="&#x1516;" horiz-adv-x="1388" 
d="M862 868q264 0 392 -76t127 -244q1 -214 -125 -361q-38 -45 -85 -77q-161 -110 -492 -110h-451l26 153h442q252 0 362 60t146 199q12 47 12 101q0 107 -88 155q-88 47 -258 47h-92q-255 0 -374 71t-119 239q0 272 202 423q160 119 481 119h464l-27 -153h-451
q-270 0 -387 -80q-116 -80 -116 -267q0 -112 82 -155q82 -44 257 -44h72zM1119 1798q-42 -45 -95 -45q-53 1 -80 29t-27 78t46 92q46 41 95 41q48 -1 76 -29t27 -75q0 -46 -42 -91z" />
    <glyph glyph-name="uni1517" unicode="&#x1517;" horiz-adv-x="2048" 
d="M1305 1210q0 126 -46 179q-46 52 -173 52t-208 -103q-80 -103 -123 -356l-9 -51h-158l11 64q55 318 198 458q144 139 328 139q185 0 261 -89t76 -267q0 -95 -22 -221l-86 -491q-16 -94 -16 -158q0 -126 48 -183t174 -57q127 0 206 105t126 367l8 45h158l-10 -54
q-63 -338 -198 -476t-320 -138q-186 0 -268 88t-83 271q0 93 23 225l87 491q16 95 16 160zM385 714q-42 -45 -95 -45q-53 1 -80 29t-27 78t46 92q46 41 95 41q48 -1 76 -29t27 -75q0 -46 -42 -91z" />
    <glyph glyph-name="uni1518" unicode="&#x1518;" horiz-adv-x="2048" 
d="M1020 1210q0 126 -46 179q-46 52 -173 52t-208 -103q-80 -103 -123 -356l-9 -51h-158l11 64q55 318 198 458q144 139 328 139t260 -89t77 -267q0 -95 -22 -221l-86 -491q-16 -94 -16 -158q0 -126 48 -183t174 -57q127 0 206 105t126 367l8 45h158l-10 -54
q-63 -338 -198 -476t-320 -138q-187 0 -269 88t-82 271q0 93 23 225l87 491q16 95 16 160zM2101 714q-42 -45 -95 -45q-53 1 -80 29t-27 78t46 92q46 41 95 41q48 -1 76 -29t27 -75q0 -46 -42 -91z" />
    <glyph glyph-name="uni1519" unicode="&#x1519;" horiz-adv-x="2048" 
d="M803 -25q-336 0 -336 376q2 125 24 238l10 54h158l-8 -45q-24 -134 -24 -244q1 -110 49 -170q48 -58 138 -58t146 26q54 26 94 75q74 94 109 297l86 491q51 286 171 431q120 146 337 146q249 0 323 -210q26 -72 25 -170q0 -98 -21 -217l-11 -64h-158l9 51q22 128 22 236
q0 223 -206 223q-143 0 -217 -92t-109 -299l-87 -491q-52 -298 -177 -441t-347 -143zM385 714q-42 -45 -95 -45q-53 1 -80 29t-27 78t46 92q46 41 95 41q48 -1 76 -29t27 -75q0 -46 -42 -91z" />
    <glyph glyph-name="uni151A" unicode="&#x151a;" horiz-adv-x="2048" 
d="M518 -25q-336 0 -336 376q2 125 24 238l10 54h158l-8 -45q-24 -134 -24 -244t48 -170q48 -58 140 -58q90 0 144 26t94 75q74 94 110 297l86 491q51 286 171 431q120 146 337 146q248 0 322 -210q26 -72 26 -170t-21 -217l-11 -64h-158l9 51q22 128 22 236q0 223 -206 223
q-143 0 -217 -92t-109 -299l-87 -491q-52 -298 -177 -441t-347 -143zM2101 714q-42 -45 -95 -45q-53 1 -80 29t-27 78t46 92q46 41 95 41q48 -1 76 -29t27 -75q0 -46 -42 -91z" />
    <glyph glyph-name="uni151B" unicode="&#x151b;" horiz-adv-x="2048" 
d="M803 -25q-336 0 -336 376q2 125 24 238l10 54h158l-8 -45q-24 -134 -24 -244q1 -110 49 -170q48 -58 138 -58t146 26q54 26 94 75q74 94 109 297l86 491q51 286 171 431q120 146 337 146q249 0 323 -210q26 -72 25 -170q0 -98 -21 -217l-11 -64h-158l9 51q22 128 22 236
q0 223 -206 223q-143 0 -217 -92t-109 -299l-87 -491q-52 -298 -177 -441t-347 -143zM385 714q-42 -45 -95 -45q-53 1 -80 29t-27 78t46 92q46 41 95 41q48 -1 76 -29t27 -75q0 -46 -42 -91zM1882 1798q-42 -45 -95 -45q-53 1 -80 29t-27 78t46 92q46 41 95 41q47 -1 75 -29
t28 -75q0 -46 -42 -91z" />
    <glyph glyph-name="uni151C" unicode="&#x151c;" horiz-adv-x="2048" 
d="M518 -25q-336 0 -336 376q2 125 24 238l10 54h158l-8 -45q-24 -134 -24 -244t48 -170q48 -58 140 -58q90 0 144 26t94 75q74 94 110 297l86 491q51 286 171 431q120 146 337 146q248 0 322 -210q26 -72 26 -170t-21 -217l-11 -64h-158l9 51q22 128 22 236q0 223 -206 223
q-143 0 -217 -92t-109 -299l-87 -491q-52 -298 -177 -441t-347 -143zM2101 714q-42 -45 -95 -45q-53 1 -80 29t-27 78t46 92q46 41 95 41q48 -1 76 -29t27 -75q0 -46 -42 -91zM1598 1798q-42 -45 -95 -45q-53 1 -80 29t-27 78t46 92q46 41 95 41q47 -1 75 -29t28 -75
q0 -46 -42 -91z" />
    <glyph glyph-name="uni151D" unicode="&#x151d;" horiz-adv-x="1673" 
d="M1257 1567q529 0 529 -348q0 -139 -63 -254q-137 -250 -576 -250h-92q-216 0 -329 -78q-112 -78 -112 -264q0 -125 93 -173q93 -47 322 -47h442l-26 -153h-451q-426 0 -515 192q-30 64 -30 151q1 149 57 259t152 168q161 98 459 98h72q202 0 302 59t126 217q6 31 6 73
q0 99 -93 148t-313 49h-451l27 153h464zM385 714q-42 -45 -95 -45q-53 1 -80 29t-27 78t46 92q46 41 95 41q48 -1 76 -29t27 -75q0 -46 -42 -91z" />
    <glyph glyph-name="uni151E" unicode="&#x151e;" horiz-adv-x="1673" 
d="M972 1567q529 0 529 -348q0 -139 -63 -254q-137 -250 -576 -250h-92q-216 0 -329 -78q-112 -78 -112 -264q0 -125 93 -173q93 -47 322 -47h442l-26 -153h-451q-426 0 -515 192q-30 64 -30 151q0 149 56 259t153 168q161 98 459 98h72q202 0 302 59t126 217q6 31 6 73
q0 99 -93 148t-313 49h-451l27 153h464zM1726 714q-42 -45 -95 -45q-53 1 -80 29t-27 78t46 92q46 41 95 41q47 -1 75 -29t28 -75q0 -46 -42 -91z" />
    <glyph glyph-name="uni151F" unicode="&#x151f;" horiz-adv-x="1673" 
d="M1257 1567q529 0 529 -348q0 -139 -63 -254q-137 -250 -576 -250h-92q-216 0 -329 -78q-112 -78 -112 -264q0 -125 93 -173q93 -47 322 -47h442l-26 -153h-451q-426 0 -515 192q-30 64 -30 151q1 149 57 259t152 168q161 98 459 98h72q202 0 302 59t126 217q6 31 6 73
q0 99 -93 148t-313 49h-451l27 153h464zM385 714q-42 -45 -95 -45q-53 1 -80 29t-27 78t46 92q46 41 95 41q48 -1 76 -29t27 -75q0 -46 -42 -91zM1407 1798q-42 -45 -95 -45q-53 1 -80 29t-27 78t46 92q46 41 95 41q48 -1 76 -29t27 -75q0 -46 -42 -91z" />
    <glyph glyph-name="uni1520" unicode="&#x1520;" horiz-adv-x="1673" 
d="M972 1567q529 0 529 -348q0 -139 -63 -254q-137 -250 -576 -250h-92q-216 0 -329 -78q-112 -78 -112 -264q0 -125 93 -173q93 -47 322 -47h442l-26 -153h-451q-426 0 -515 192q-30 64 -30 151q0 149 56 259t153 168q161 98 459 98h72q202 0 302 59t126 217q6 31 6 73
q0 99 -93 148t-313 49h-451l27 153h464zM1726 714q-42 -45 -95 -45q-53 1 -80 29t-27 78t46 92q46 41 95 41q47 -1 75 -29t28 -75q0 -46 -42 -91zM1119 1798q-42 -45 -95 -45q-53 1 -80 29t-27 78t46 92q46 41 95 41q48 -1 76 -29t27 -75q0 -46 -42 -91z" />
    <glyph glyph-name="uni1521" unicode="&#x1521;" horiz-adv-x="1673" 
d="M1147 868q263 0 391 -76t128 -244q0 -214 -126 -361q-38 -45 -84 -77q-161 -110 -492 -110h-451l26 153h442q252 0 362 60t146 199q12 47 12 101q0 107 -88 155q-88 47 -258 47h-92q-255 0 -374 71t-119 239q0 272 202 423q160 119 481 119h464l-27 -153h-451
q-270 0 -387 -80q-116 -80 -116 -267q0 -112 82 -155q82 -44 257 -44h72zM385 714q-42 -45 -95 -45q-53 1 -80 29t-27 78t46 92q46 41 95 41q48 -1 76 -29t27 -75q0 -46 -42 -91z" />
    <glyph glyph-name="uni1522" unicode="&#x1522;" horiz-adv-x="1673" 
d="M862 868q264 0 392 -76t127 -244q1 -214 -125 -361q-38 -45 -85 -77q-161 -110 -492 -110h-451l26 153h442q252 0 362 60t146 199q12 47 12 101q0 107 -88 155q-88 47 -258 47h-92q-255 0 -374 71t-119 239q0 272 202 423q160 119 481 119h464l-27 -153h-451
q-270 0 -387 -80q-116 -80 -116 -267q0 -112 82 -155q82 -44 257 -44h72zM1726 714q-42 -45 -95 -45q-53 1 -80 29t-27 78t46 92q46 41 95 41q47 -1 75 -29t28 -75q0 -46 -42 -91z" />
    <glyph glyph-name="uni1523" unicode="&#x1523;" horiz-adv-x="1673" 
d="M1147 868q263 0 391 -76t128 -244q0 -214 -126 -361q-38 -45 -84 -77q-161 -110 -492 -110h-451l26 153h442q252 0 362 60t146 199q12 47 12 101q0 107 -88 155q-88 47 -258 47h-92q-255 0 -374 71t-119 239q0 272 202 423q160 119 481 119h464l-27 -153h-451
q-270 0 -387 -80q-116 -80 -116 -267q0 -112 82 -155q82 -44 257 -44h72zM385 714q-42 -45 -95 -45q-53 1 -80 29t-27 78t46 92q46 41 95 41q48 -1 76 -29t27 -75q0 -46 -42 -91zM1372 1798q-42 -45 -95 -45q-53 1 -80 29t-27 78t46 92q46 41 95 41q47 -1 75 -29t28 -75
q0 -46 -42 -91z" />
    <glyph glyph-name="uni1524" unicode="&#x1524;" horiz-adv-x="1673" 
d="M862 868q264 0 392 -76t127 -244q1 -214 -125 -361q-38 -45 -85 -77q-161 -110 -492 -110h-451l26 153h442q252 0 362 60t146 199q12 47 12 101q0 107 -88 155q-88 47 -258 47h-92q-255 0 -374 71t-119 239q0 272 202 423q160 119 481 119h464l-27 -153h-451
q-270 0 -387 -80q-116 -80 -116 -267q0 -112 82 -155q82 -44 257 -44h72zM1726 714q-42 -45 -95 -45q-53 1 -80 29t-27 78t46 92q46 41 95 41q47 -1 75 -29t28 -75q0 -46 -42 -91zM1107 1798q-42 -45 -95 -45q-53 1 -80 29t-27 78t46 92q46 41 95 41q48 -1 76 -29t27 -75
q0 -46 -42 -91z" />
    <glyph glyph-name="uni1525" unicode="&#x1525;" horiz-adv-x="1064" 
d="M1087 1288q0 77 -23.5 114t-86.5 37t-102 -54.5t-59 -171.5l-7 -42q-55 -321 -319 -321q-226 0 -226 266q0 157 93 398h141q-96 -221 -96 -385q0 -80 23 -115.5t89 -35.5q65 0 104.5 47.5t57.5 156.5l10 60q54 322 306 324q121 1 177 -70t56 -212t-93 -381h-141
q96 221 96 385z" />
    <glyph glyph-name="uni1526" unicode="&#x1526;" horiz-adv-x="1184" 
d="M1190 690l-121 -690h-158l97 554h-842l11 61l971 987l101 -94l-810 -818h751z" />
    <glyph glyph-name="uni1527" unicode="&#x1527;" horiz-adv-x="1184" 
d="M987 690l-522 818l135 94l623 -987l-11 -61h-842l-97 -554h-158l121 690h751zM616 1836q77 0 126.5 61t49.5 137t-44 97t-72 21q-57 0 -111 -55.5t-54 -122.5t30.5 -102.5t74.5 -35.5zM842.5 2179.5q57.5 -57.5 57.5 -125.5q0 -124 -87 -213t-190 -89t-160.5 56
t-57.5 142q0 121 93 204t190 83t154.5 -57.5z" />
    <glyph glyph-name="uni1528" unicode="&#x1528;" horiz-adv-x="1184" 
d="M987 690l-522 818l135 94l623 -987l-11 -61h-842l-97 -554h-158l121 690h751z" />
    <glyph glyph-name="uni1529" unicode="&#x1529;" horiz-adv-x="1184" 
d="M987 690l-522 818l135 94l623 -987l-11 -61h-842l-97 -554h-158l121 690h751zM671 1799q-42 -45 -95 -45t-80 28t-27 79q0 50 46 92q46 41 95 41q48 0 76 -28t27 -76q0 -46 -42 -91z" />
    <glyph glyph-name="uni152A" unicode="&#x152a;" horiz-adv-x="1184" 
d="M463 824l532 -758l-132 -91l-636 924l11 61h842l107 607h158l-131 -743h-751z" />
    <glyph glyph-name="uni152B" unicode="&#x152b;" horiz-adv-x="1184" 
d="M463 824l532 -758l-132 -91l-636 924l11 61h842l107 607h158l-131 -743h-751zM1397 1798q-42 -45 -95 -45q-53 1 -80 29t-27 78t46 92q46 41 95 41q48 -1 76 -29t27 -75q0 -46 -42 -91z" />
    <glyph glyph-name="uni152C" unicode="&#x152c;" horiz-adv-x="1184" 
d="M463 824l532 -758l-132 -91l-636 924l11 61h842l107 607h158l-131 -743h-751zM1397 1798q-42 -45 -95 -45q-53 1 -80 29t-27 78t46 92q46 41 95 41q48 -1 76 -29t27 -75q0 -46 -42 -91zM902 1798q-42 -45 -95 -45q-53 1 -80 29t-27 78t46 92q46 41 95 41q47 -1 75 -29
t28 -75q0 -46 -42 -91z" />
    <glyph glyph-name="uni152D" unicode="&#x152d;" horiz-adv-x="1184" 
d="M260 824l131 743h158l-107 -607h842l-11 -61l-962 -924l-101 95l801 754h-751z" />
    <glyph glyph-name="uni152E" unicode="&#x152e;" horiz-adv-x="1184" 
d="M260 824l131 743h158l-107 -607h842l-11 -61l-962 -924l-101 95l801 754h-751zM604 1798q-42 -45 -95 -45q-53 1 -80 29t-27 78t46 92q46 41 95 41q47 -1 75 -29t28 -75q0 -46 -42 -91z" />
    <glyph glyph-name="uni152F" unicode="&#x152f;" horiz-adv-x="1539" 
d="M1545 690l-121 -690h-158l97 554h-842l11 61l971 987l101 -94l-810 -818h751zM355 714q-42 -45 -95 -45q-53 1 -80 29t-27 78t46 92q46 41 95 41q48 -1 76 -29t27 -75q0 -46 -42 -91z" />
    <glyph glyph-name="uni1530" unicode="&#x1530;" horiz-adv-x="1539" 
d="M1190 690l-121 -690h-158l97 554h-842l11 61l971 987l101 -94l-810 -818h751zM1592 714q-42 -45 -95 -45q-53 1 -80 29t-27 78t46 92q46 41 95 41q47 -1 75 -29t28 -75q0 -46 -42 -91z" />
    <glyph glyph-name="uni1531" unicode="&#x1531;" horiz-adv-x="1539" 
d="M1342 690l-522 818l135 94l623 -987l-11 -61h-842l-97 -554h-158l121 690h751zM355 714q-42 -45 -95 -45q-53 1 -80 29t-27 78t46 92q46 41 95 41q48 -1 76 -29t27 -75q0 -46 -42 -91z" />
    <glyph glyph-name="uni1532" unicode="&#x1532;" horiz-adv-x="1519" 
d="M987 690l-522 818l135 94l623 -987l-11 -61h-842l-97 -554h-158l121 690h751zM1572 714q-42 -45 -95 -45q-53 1 -80 29t-27 78t46 92q46 41 95 41q47 -1 75 -29t28 -75q0 -46 -42 -91z" />
    <glyph glyph-name="uni1533" unicode="&#x1533;" horiz-adv-x="1539" 
d="M1342 690l-522 818l135 94l623 -987l-11 -61h-842l-97 -554h-158l121 690h751zM355 714q-42 -45 -95 -45q-53 1 -80 29t-27 78t46 92q46 41 95 41q48 -1 76 -29t27 -75q0 -46 -42 -91zM1092 1798q-42 -45 -95 -45q-53 1 -80 29t-27 78t46 92q46 41 95 41q47 -1 75 -29
t28 -75q0 -46 -42 -91z" />
    <glyph glyph-name="uni1534" unicode="&#x1534;" horiz-adv-x="1519" 
d="M987 690l-522 818l135 94l623 -987l-11 -61h-842l-97 -554h-158l121 690h751zM1572 714q-42 -45 -95 -45q-53 1 -80 29t-27 78t46 92q46 41 95 41q47 -1 75 -29t28 -75q0 -46 -42 -91zM731 1798q-42 -45 -95 -45q-53 1 -80 29t-27 78t46 92q46 41 95 41q48 -1 76 -29
t27 -75q0 -46 -42 -91z" />
    <glyph glyph-name="uni1535" unicode="&#x1535;" horiz-adv-x="1539" 
d="M818 824l532 -758l-132 -91l-636 924l11 61h842l107 607h158l-131 -743h-751zM355 714q-42 -45 -95 -45q-53 1 -80 29t-27 78t46 92q46 41 95 41q48 -1 76 -29t27 -75q0 -46 -42 -91z" />
    <glyph glyph-name="uni1536" unicode="&#x1536;" horiz-adv-x="1569" 
d="M463 824l532 -758l-132 -91l-636 924l11 61h842l107 607h158l-131 -743h-751zM1622 714q-42 -45 -95 -45q-53 1 -80 29t-27 78t46 92q46 41 95 41q47 -1 75 -29t28 -75q0 -46 -42 -91z" />
    <glyph glyph-name="uni1537" unicode="&#x1537;" horiz-adv-x="1529" 
d="M808 824l532 -758l-132 -91l-636 924l11 61h842l107 607h158l-131 -743h-751zM1744 1798q-42 -45 -95 -45q-53 1 -80 29t-27 78t46 92q46 41 95 41q47 -1 75 -29t28 -75q0 -46 -42 -91zM355 714q-42 -45 -95 -45q-53 1 -80 29t-27 78t46 92q46 41 95 41q48 -1 76 -29
t27 -75q0 -46 -42 -91z" />
    <glyph glyph-name="uni1538" unicode="&#x1538;" horiz-adv-x="1569" 
d="M463 824l532 -758l-132 -91l-636 924l11 61h842l107 607h158l-131 -743h-751zM1622 714q-42 -45 -95 -45q-53 1 -80 29t-27 78t46 92q46 41 95 41q47 -1 75 -29t28 -75q0 -46 -42 -91zM1399 1798q-42 -45 -95 -45q-53 1 -80 29t-27 78t46 92q46 41 95 41q48 -1 76 -29
t27 -75q0 -46 -42 -91z" />
    <glyph glyph-name="uni1539" unicode="&#x1539;" horiz-adv-x="1509" 
d="M585 824l131 743h158l-107 -607h842l-11 -61l-962 -924l-101 95l801 754h-751zM355 714q-42 -45 -95 -45q-53 1 -80 29t-27 78t46 92q46 41 95 41q48 -1 76 -29t27 -75q0 -46 -42 -91z" />
    <glyph glyph-name="uni153A" unicode="&#x153a;" horiz-adv-x="1568" 
d="M260 824l131 743h158l-107 -607h842l-11 -61l-962 -924l-101 95l801 754h-751zM1621 713q-42 -45 -95 -45t-80 28t-27 79q0 50 46 92q46 41 95 41q48 0 76 -28t27 -76q0 -46 -42 -91z" />
    <glyph glyph-name="uni153B" unicode="&#x153b;" horiz-adv-x="1509" 
d="M585 824l131 743h158l-107 -607h842l-11 -61l-962 -924l-101 95l801 754h-751zM355 714q-42 -45 -95 -45q-53 1 -80 29t-27 78t46 92q46 41 95 41q48 -1 76 -29t27 -75q0 -46 -42 -91zM928 1798q-42 -45 -95 -45q-53 1 -80 29t-27 78t46 92q46 41 95 41q47 -1 75 -29
t28 -75q0 -46 -42 -91z" />
    <glyph glyph-name="uni153C" unicode="&#x153c;" horiz-adv-x="1599" 
d="M260 824l131 743h158l-107 -607h842l-11 -61l-962 -924l-101 95l801 754h-751zM605 1798q-42 -45 -95 -45q-53 1 -80 29t-27 78t46 92q46 41 95 41q48 -1 76 -29t27 -75q0 -46 -42 -91zM1652 714q-42 -45 -95 -45q-53 1 -80 29t-27 78t46 92q46 41 95 41q47 -1 75 -29
t28 -75q0 -46 -42 -91z" />
    <glyph glyph-name="uni153D" unicode="&#x153d;" horiz-adv-x="1587" 
d="M663 824l131 743h158l-107 -607h842l-11 -61l-962 -924l-101 95l801 754h-751zM355 446q-42 -45 -95 -45q-53 1 -80 29t-27 78t46 92q46 41 95 41q48 -1 76 -29t27 -75q0 -46 -42 -91zM452 997q-42 -45 -95 -45t-80 28t-27 79q0 50 46 92q46 41 95 41q47 0 75 -28t28 -76
q0 -46 -42 -91z" />
    <glyph glyph-name="uni153E" unicode="&#x153e;" horiz-adv-x="710" 
d="M271 1127l78 440h135l-59 -332h453l-10 -57l-535 -510l-85 77l410 382h-387z" />
    <glyph glyph-name="uni153F" unicode="&#x153f;" horiz-adv-x="949" 
d="M637 1567v-622l265 622h105l51 -860l-7 -38h-128l-27 636l-289 -637l-66 1v634l-281 -635h-128l7 36l393 863h105z" />
    <glyph glyph-name="uni1540" unicode="&#x1540;" horiz-adv-x="693" 
d="M190 794h237l50 286h119l-50 -286h237l-20 -111h-237l-50 -285h-119l50 285h-237z" />
    <glyph glyph-name="uni1541" unicode="&#x1541;" horiz-adv-x="692" 
d="M95 397l313 351l-165 332h155l100 -242l197 242h155l-296 -328l183 -355h-162l-113 249l-205 -249h-162z" />
    <glyph glyph-name="uni1542" unicode="&#x1542;" horiz-adv-x="1928" 
d="M419 513q0 -118 16.5 -184.5t72.5 -130.5t233 -64q225 0 349 163t190 540l43 243h692l-27 -153h-534l-19 -105q-71 -393 -232 -620q-162 -227 -501 -227t-391 189.5t-52 325.5t33 325l47 265h158l-37 -212q-41 -237 -41 -355z" />
    <glyph glyph-name="uni1543" unicode="&#x1543;" horiz-adv-x="1928" 
d="M1207 -25q-251 0 -354 129t-103 397q2 161 31 321l19 105h-534l27 153h692l-43 -243q-33 -189 -33 -305q0 -215 75.5 -306.5t248.5 -91.5q242 0 357 166t184 568l37 212h158l-47 -265q-76 -432 -246 -636t-469 -204z" />
    <glyph glyph-name="uni1544" unicode="&#x1544;" horiz-adv-x="1928" 
d="M1405 1097q452 0 452 -478q0 -170 -32 -354l-46 -265h-158l37 212q39 228 39 344q0 117 -16 184t-72 132.5t-234 65.5q-225 0 -350 -164q-125 -165 -188 -531l-42 -243h-692l26 153h534l19 105q71 387 231 613t492 226z" />
    <glyph glyph-name="uni1545" unicode="&#x1545;" horiz-adv-x="1928" 
d="M909 1097q251 0 354 -130t103 -397q0 -151 -30 -312l-19 -105h534l-26 -153h-692l42 243q32 184 32 298q0 214 -76 305q-76 92 -248 92q-237 0 -354 -165t-185 -561l-37 -212h-158l46 265q72 419 243 625q171 207 471 207zM1162 1634q58 -58 57 -130q0 -127 -89 -213
q-89 -87 -190 -87q-100 0 -158 58t-58 136q0 79 34 134t72 88q83 71 178 71q96 1 154 -57zM934 1290q77 0 127 58t50 124q0 65 -30 99t-71 34q-69 0 -123 -52q-55 -52 -55 -121q0 -70 30 -106t72 -36z" />
    <glyph glyph-name="uni1546" unicode="&#x1546;" horiz-adv-x="1928" 
d="M909 1097q251 0 354 -130t103 -397q0 -151 -30 -312l-19 -105h534l-26 -153h-692l42 243q32 184 32 298q0 214 -76 305.5t-248 91.5q-237 0 -354 -164.5t-185 -561.5l-37 -212h-158l46 265q72 419 243 625q171 207 471 207z" />
    <glyph glyph-name="uni1547" unicode="&#x1547;" horiz-adv-x="1928" 
d="M909 1097q251 0 354 -130t103 -397q0 -151 -30 -312l-19 -105h534l-26 -153h-692l42 243q32 184 32 298q0 214 -76 305q-76 92 -248 92q-237 0 -354 -165t-185 -561l-37 -212h-158l46 265q72 419 243 625q171 207 471 207zM1069 1381q-42 -45 -95 -45t-80 28t-27 79
q0 50 46 92q46 41 95 41q48 0 76 -28t27 -76q0 -46 -42 -91z" />
    <glyph glyph-name="uni1548" unicode="&#x1548;" horiz-adv-x="1261" 
d="M739 1567q477 0 547 -145.5t70 -220.5t-10 -133q-91 -514 -883 -514h-59l-97 -554h-158l124 707h241q340 0 509 107t169 337q0 144 -114.5 203.5t-366.5 59.5h-313l27 153h314z" />
    <glyph glyph-name="uni1549" unicode="&#x1549;" horiz-adv-x="1261" 
d="M739 1567q477 -1 582 -219q35 -72 35 -147t-10 -133q-91 -514 -883 -514h-59l-97 -554h-158l124 707h241q340 0 509 107t169 337q0 144 -114 203q-114 60 -367 60h-313l27 153h314zM939 1798q-42 -45 -95 -45q-53 1 -80 29t-27 78t46 92q46 41 95 41q48 -1 76 -29t27 -75
q0 -46 -42 -91z" />
    <glyph glyph-name="uni154A" unicode="&#x154a;" horiz-adv-x="1261" 
d="M502 153q301 0 426 88q72 51 116 131.5t44 161.5t-23.5 128.5t-117.5 96t-415 48.5h-241l134 760h158l-107 -607h45q564 0 648 -141t84 -225q0 -152 -61.5 -272t-163.5 -195q-173 -127 -557 -127h-322l26 153h327z" />
    <glyph glyph-name="uni154B" unicode="&#x154b;" horiz-adv-x="1261" 
d="M992 554q-710 0 -710 415q0 231 92.5 334t145.5 139q185 125 554 125h314l-27 -153h-313q-276 0 -419 -77.5t-176 -268.5q-7 -35 -7 -72q0 -149 134 -219t415 -70h241l-124 -707h-158l97 554h-59z" />
    <glyph glyph-name="uni154C" unicode="&#x154c;" horiz-adv-x="1261" 
d="M992 554q-710 0 -710 415q0 231 142 389q44 48 96 84q185 125 554 125h314l-27 -153h-313q-276 0 -419 -77t-176 -269q-7 -35 -7 -72q0 -149 134 -219t415 -70h241l-124 -707h-158l97 554h-59zM1161 1798q-42 -45 -95 -45q-53 1 -80 29t-27 78t46 92q46 41 95 41
q48 -1 76 -29t27 -75q0 -46 -42 -91z" />
    <glyph glyph-name="uni154D" unicode="&#x154d;" horiz-adv-x="1261" 
d="M790 0q-483 0 -547 144t-64 237q0 322 265 465q213 114 634 114h45l107 607h158l-134 -760h-241q-344 0 -506.5 -84.5t-162.5 -302.5q0 -136 103 -201.5t364 -65.5h327l-26 -153h-322z" />
    <glyph glyph-name="uni154E" unicode="&#x154e;" horiz-adv-x="1587" 
d="M1318 554q-710 0 -710 415q0 231 142 389q44 48 96 84q185 125 554 125h314l-27 -153h-313q-276 0 -419 -77t-176 -269q-7 -35 -7 -72q0 -149 134 -219t415 -70h241l-124 -707h-158l97 554h-59zM1486 1795q-44 -43 -95 -43t-78 28t-27 70v10q0 49 46 91q46 41 95 41
q47 0 75 -30t28 -76q0 -48 -44 -91zM355 713q-42 -45 -95 -45t-80 28t-27 79q0 50 46 92q46 41 95 41q48 0 76 -28t27 -76q0 -46 -42 -91z" />
    <glyph glyph-name="uni154F" unicode="&#x154f;" horiz-adv-x="1616" 
d="M992 554q-710 0 -710 415q0 231 142 389q44 48 96 84q185 125 554 125h314l-27 -153h-313q-276 0 -419 -77t-176 -269q-7 -35 -7 -72q0 -149 134 -219t415 -70h241l-124 -707h-158l97 554h-59zM1160 1795q-44 -43 -95 -43t-78 28t-27 70v10q0 49 46 91q46 41 95 41
q47 0 75 -30t28 -76q0 -48 -44 -91zM1669 713q-42 -45 -95 -45t-80 28t-27 79q0 50 46 92q46 41 95 41q48 0 76 -28t27 -76q0 -46 -42 -91z" />
    <glyph glyph-name="uni1550" unicode="&#x1550;" horiz-adv-x="743" 
d="M599 1004q-303 0 -303 212q0 89 38.5 160.5t96.5 114.5q104 76 347 76h131l-22 -126h-168q-210 0 -246 -70.5t-36 -116.5t12.5 -68.5t54 -43.5t176.5 -21h154l-80 -453h-134l60 336h-81z" />
    <glyph glyph-name="uni1551" unicode="&#x1551;" horiz-adv-x="913" 
d="M951 1356l-20 -105l-527 -128l475 -131l-20 -105l-749 -220h-29l25 128l529 141l-473 138l21 103l526 127l-472 148l26 128h31z" />
    <glyph glyph-name="uni1552" unicode="&#x1552;" horiz-adv-x="1369" 
d="M1362 1183l-25 -135l-912 -265l814 -276l-25 -135l-1159 -397h-10l30 167l902 295l-796 285l22 125l900 267l-795 306l30 167h12z" />
    <glyph glyph-name="uni1553" unicode="&#x1553;" horiz-adv-x="1655" 
d="M301 1081q0 94 36.5 195.5t136 208.5t311.5 107q145 0 234 -91t89 -219q0 -238 -164.5 -358t-418.5 -142q99 -240 133 -307t57 -111.5t58 -113.5h12l914 1317h183l-5 -29l-1117 -1553h-31q-254 483 -310.5 616t-77.5 200t-30.5 126.5t-9.5 153.5zM499 863q237 56 340 139
t103 236t-72 185t-134 32t-117 -35.5t-105.5 -116.5t-50.5 -216q0 -136 36 -224z" />
    <glyph glyph-name="uni1554" unicode="&#x1554;" horiz-adv-x="1655" 
d="M184 355q0 247 235 567q139 189 306 366q167 176 286 299h31l569 -1558l-5 -29h-183l-447 1338h-12q-320 -330 -455 -548q215 -6 339 -127q124 -122 124 -286t-109 -283t-309 -119q-370 0 -370 380zM346 369q0 -117 59 -187t154 -70q96 0 171 75q76 75 76 192
q0 118 -92 218t-248 112q-120 -148 -120 -340zM1272 2182q58 -58 58 -130q0 -127 -89 -213q-89 -87 -190 -87t-159 58t-57 136q-1 79 33 134t72 88q83 71 179 71q95 1 153 -57zM1046 1838q77 0 126 58q50 58 50 124q0 65 -30 99t-71 34q-69 0 -123 -52q-55 -52 -55 -121
q0 -70 30 -106q31 -36 73 -36z" />
    <glyph glyph-name="uni1555" unicode="&#x1555;" horiz-adv-x="1655" 
d="M184 355q0 248 187 502.5t354 430.5t286 299h31l569 -1558l-5 -29h-183l-447 1338h-12q-320 -330 -455 -548q215 -6 339 -127.5t124 -285.5t-109 -283t-309 -119q-370 0 -370 380zM346 369q0 -117 58.5 -187t154.5 -70t171.5 74.5t75.5 192.5t-92 218.5t-248 111.5
q-120 -148 -120 -340z" />
    <glyph glyph-name="uni1556" unicode="&#x1556;" horiz-adv-x="1655" 
d="M184 355q0 247 235 567q139 189 306 366q167 176 286 299h31l569 -1558l-5 -29h-183l-447 1338h-12q-320 -330 -455 -548q215 -6 339 -127q124 -122 124 -286t-109 -283t-309 -119q-370 0 -370 380zM346 369q0 -117 59 -187t154 -70q96 0 171 75q76 75 76 192
q0 118 -92 218t-248 112q-120 -148 -120 -340zM1161 1798q-42 -45 -95 -45q-53 1 -80 29t-27 78t46 92q46 41 95 41q48 -1 76 -29t27 -75q0 -46 -42 -91z" />
    <glyph glyph-name="uni1557" unicode="&#x1557;" horiz-adv-x="1759" 
d="M1071 1362q-117 83 -267 83t-225.5 -88.5t-75.5 -198.5q0 -217 191 -217q123 0 230 107t147 314zM422 874q-88 90 -88 221q0 246 133 371.5t362 125.5t449.5 -149t546.5 -518l-6 -30l-1610 -920h-21l17 191l1380 771l2 13q-186 203 -423 364q-58 -311 -206.5 -420.5
t-298.5 -109.5q-149 0 -237 90z" />
    <glyph glyph-name="uni1558" unicode="&#x1558;" horiz-adv-x="1759" 
d="M1071 1362q-117 83 -267 83t-225 -88q-76 -88 -76 -199q0 -217 191 -217q123 0 230 107t147 314zM422 874q-88 90 -88 221q0 246 133 371q133 126 362 126t449 -149q221 -149 547 -518l-6 -30l-1610 -920h-21l17 191l1380 771l2 13q-186 203 -423 364q-58 -311 -246 -449
q-110 -81 -259 -81t-237 90zM950 1798q-42 -45 -95 -45q-53 1 -80 29t-27 78t46 92q46 41 95 41q47 -1 75 -29t28 -75q0 -46 -42 -91z" />
    <glyph glyph-name="uni1559" unicode="&#x1559;" horiz-adv-x="1759" 
d="M1768.5 1491.5q97.5 -100.5 97.5 -263.5q0 -162 -127 -303t-326 -141t-284 117t-85 300q0 61 8 121q-275 -167 -547 -389l-2 -13l1091 -761l-33 -184h-21l-1286 920l6 30q513 417 784 542t449 125t275.5 -100.5zM1158 1261q0 -133 60.5 -226.5t204.5 -93.5
q109 0 182 90.5t73 199.5q0 137 -103 185.5t-227.5 17t-184.5 -65.5q-5 -58 -5 -107z" />
    <glyph glyph-name="uni155A" unicode="&#x155a;" horiz-adv-x="1759" 
d="M1601 1798q-42 -45 -95 -45q-53 1 -80 29t-27 78t46 92q46 41 95 41q48 -1 76 -29t27 -75q0 -46 -42 -91zM1768 1491q98 -101 98 -263t-127 -303t-326 -141t-291 126q-78 108 -78 291q0 61 8 121q-275 -167 -547 -389l-2 -13l1091 -761l-33 -184h-21l-1286 920l6 30
q513 417 830 563q225 104 403 104q177 0 275 -101zM1158 1261q0 -133 54 -217q67 -104 211 -103q109 0 182 90t73 200q0 137 -116 192q-90 42 -256 0q-82 -21 -143 -55q-5 -58 -5 -107z" />
    <glyph glyph-name="uni155B" unicode="&#x155b;" horiz-adv-x="2044" 
d="M2053 1491q98 -101 98 -263t-127 -303t-326 -141t-291 126q-78 108 -78 291q0 61 8 121q-275 -167 -547 -389l-2 -13l1091 -761l-33 -184h-21l-1286 920l6 30q513 417 830 563q225 104 403 104q177 0 275 -101zM1443 1261q0 -133 54 -217q67 -104 211 -103q109 0 182 90
t73 200q-1 137 -117 192q-90 42 -256 0q-82 -21 -142 -55q-5 -58 -5 -107zM1904 1795q-44 -43 -95 -43t-78 28t-27 70v10q0 49 46 91q46 41 95 41q47 0 75 -30t28 -76q0 -48 -44 -91zM384 713q-42 -45 -95 -45t-80 28t-27 79q0 50 46 92q46 41 95 41q47 0 75 -28t28 -76
q0 -46 -42 -91z" />
    <glyph glyph-name="uni155C" unicode="&#x155c;" horiz-adv-x="2023" 
d="M1768 1491q98 -101 98 -263t-127 -303t-326 -141t-291 126q-78 108 -78 291q0 61 8 121q-275 -167 -547 -389l-2 -13l1091 -761l-33 -184h-21l-1286 920l6 30q513 417 830 563q225 104 403 104q177 0 275 -101zM1158 1261q0 -133 54 -217q67 -104 211 -103q109 0 182 90
t73 200q0 137 -116 192q-90 42 -256 0q-82 -21 -143 -55q-5 -58 -5 -107zM1618 1795q-44 -43 -95 -43t-78 28t-27 70v10q0 49 46 91q46 41 95 41q47 0 75 -30t28 -76q0 -48 -44 -91zM2076 713q-42 -45 -95 -45t-80 28t-27 79q0 50 46 92q46 41 95 41q47 0 75 -28t28 -76
q0 -46 -42 -91z" />
    <glyph glyph-name="uni155D" unicode="&#x155d;" horiz-adv-x="999" 
d="M954 1580q135 0 165.5 -66t30.5 -118t-23 -103t-61.5 -87t-87.5 -55.5t-123 -19.5t-119.5 42.5t-45.5 105.5q0 64 32 126q-17 -7 -38 -18.5t-47 -25.5l-187 -95l-2 -12l563 -445l-25 -143h-12l-723 573l7 39l401 205q190 97 295 97zM1029 1388q0 85 -104 85
q-50 0 -95 -22q-26 -65 -26 -116q0 -97 89 -97q61 0 98.5 41t37.5 109z" />
    <glyph glyph-name="uni155E" unicode="&#x155e;" horiz-adv-x="1714" 
d="M822 1456q-124 0 -206 -90t-144 -451l-3 -16q300 0 400 73q133 97 133 294q0 95 -47 142.5t-133 47.5zM441 593q0 -211 106.5 -336t314.5 -125t359 115t229 345t153 654l57 321h158l-61 -346q-69 -387 -147 -641q-79 -253 -266 -429t-512 -176q-235 -1 -359 105t-161 225
t-37 285q-1 166 51 453q52 288 185.5 418.5t338.5 130.5q153 0 235 -87t82 -220q0 -35 -6 -72q-36 -207 -182 -317t-521 -110q-17 -94 -17 -193z" />
    <glyph glyph-name="uni155F" unicode="&#x155f;" horiz-adv-x="1714" 
d="M970 1116q0 206 152 358q118 118 294 118q356 0 356 -362q0 -141 -47.5 -345.5t-89.5 -326.5q-43 -122 -125 -248q-82 -124 -242 -230t-396 -105q-325 0 -451 176q-115 160 -115 389v117.5t81 563.5l61 346h158l-57 -321q-77 -436 -77 -662t110 -339t318 -113
q253 0 417 183t215 471q-326 0 -429 70.5t-118 138.5t-15 121zM1600 1202q0 95 -13.5 137.5t-49 79.5t-136.5 37q-100 0 -170.5 -68t-94.5 -204q-6 -34 -6 -76q0 -105 86.5 -157t344.5 -52q39 208 39 303z" />
    <glyph glyph-name="uni1560" unicode="&#x1560;" horiz-adv-x="1714" 
d="M565 -25q-349 0 -349 362q0 144 48.5 344.5t87.5 316.5t123 248q84 134 245 240t397 106q325 0 445 -170t121 -395v-120t-80 -561l-61 -346h-158l56 321q77 444 77 667t-109.5 335t-317.5 112q-252 -1 -418 -191t-215 -463q321 0 441.5 -80.5t120.5 -249.5
q0 -207 -152 -359q-117 -117 -302 -117zM388 362q0 -93 25 -172t175 -79q100 0 170.5 68t94.5 204q6 35 6 77q0 106 -88 157t-343 51q-40 -213 -40 -306z" />
    <glyph glyph-name="uni1561" unicode="&#x1561;" horiz-adv-x="1714" 
d="M1167 111q123 0 206 91t144 450l3 16q-300 0 -400 -73q-133 -97 -133 -294q0 -95 47 -142.5t133 -47.5zM1547 964q0 208 -106 339.5t-313 131.5q-206 1 -358 -115t-232 -351t-152 -648l-56 -321h-158l61 346q67 380 145 636q78 258 266 434t513 176q235 0 359 -105
t160 -235q37 -130 37 -281.5t-51 -442.5q-51 -292 -184.5 -422.5t-338.5 -130.5q-153 0 -235.5 86.5t-82.5 219.5q0 29 7 73q36 206 182 316t521 111q16 90 16 183z" />
    <glyph glyph-name="uni1562" unicode="&#x1562;" horiz-adv-x="1714" 
d="M565 -25q-349 0 -349 362q0 143 70 433q27 112 66 228t123 248q84 134 245 240t397 106q325 0 445 -170t121 -395v-22q0 -207 -80 -659l-61 -346h-158l56 321q77 444 77 667q1 223 -109 335t-318 112q-252 -1 -418 -191t-215 -463q321 0 441 -80t121 -250
q0 -207 -152 -359q-117 -117 -302 -117zM388 362q0 -94 14 -136q37 -116 186 -115q100 0 170 68t95 204q6 35 6 77q0 106 -79 152q-97 56 -352 56q-40 -213 -40 -306zM1251 1795q-44 -43 -95 -43t-78 28t-27 70v10q0 49 46 91q46 41 95 41q48 0 76 -30t27 -76q0 -48 -44 -91
z" />
    <glyph glyph-name="uni1563" unicode="&#x1563;" horiz-adv-x="1714" 
d="M1167 111q123 0 206 91t144 450l3 16q-300 0 -400 -73q-133 -97 -133 -294q0 -95 47 -143t133 -47zM1547 964q0 208 -106 339q-106 132 -313 132q-206 1 -358 -115t-232 -351t-152 -648l-56 -321h-158l61 346q67 380 145 636q78 258 266 434t513 176q235 0 359 -105
t160 -235q37 -130 37 -282q0 -151 -51 -442q-50 -292 -184 -422t-339 -131q-153 0 -236 86q-82 86 -82 220q0 29 7 73q36 206 182 316t521 111q16 90 16 183zM1289 1795q-44 -43 -95 -43t-78 28t-27 70v10q0 49 46 91q46 41 95 41q48 0 76 -30t27 -76q0 -48 -44 -91z" />
    <glyph glyph-name="uni1564" unicode="&#x1564;" horiz-adv-x="1535" 
d="M982 1440h-127q-263 0 -317.5 -116t-54.5 -175q0 -108 50.5 -159.5t139.5 -51.5t204.5 49.5t157.5 445.5q-42 7 -53 7zM664 781q-244 0 -297 114.5t-53 218.5t49 208t130 167q133 103 417 103t464.5 -89t200.5 -231.5t20 -241.5t-34 -289q-59 -343 -235 -509t-386 -199
t-512 -33h-288l26 153h260q329 0 511 40.5t292 156.5t158 391q30 169 30 275q0 187 -69.5 281.5t-194.5 123.5q-11 -126 -16 -151q-42 -239 -166 -364t-307 -125z" />
    <glyph glyph-name="uni1565" unicode="&#x1565;" horiz-adv-x="1535" 
d="M950 1440h-95q-263 0 -335 -153q-37 -79 -37 -138q0 -108 51 -159q51 -52 139 -52q89 0 147 25q173 74 215 470q-42 7 -85 7zM664 781q-244 0 -324 171q-26 58 -26 162t49 208t130 167q133 103 417 103t442 -78q203 -100 236 -335q7 -50 7 -149t-34 -289
q-59 -343 -235 -509t-386 -199t-512 -33h-288l26 153h260q329 0 511 40q182 41 292 157t158 391q30 169 30 275q0 187 -70 281q-70 95 -194 124q-11 -126 -16 -151q-42 -239 -166 -364t-307 -125zM1056 1795q-44 -43 -95 -43t-78 28t-27 70v10q0 49 46 91q46 41 95 41
q47 0 75 -30t28 -76q0 -48 -44 -91z" />
    <glyph glyph-name="uni1566" unicode="&#x1566;" horiz-adv-x="1535" 
d="M1145 781q-154 0 -234.5 87t-80.5 255q0 101 18 171t34 127q-168 -37 -290 -179t-184 -501q-20 -113 -20 -219t44.5 -182.5t139 -118t240.5 -55t349 -13.5h260l-26 -153h-288q-303 0 -487 31t-295 155.5t-111 342.5q0 105 20 212q64 361 180 527t300 246q186 78 465 78
q362 0 410.5 -116.5t48.5 -216.5t-41 -194t-143.5 -189t-308.5 -95zM1469 1253q0 88 -61.5 137.5t-221.5 49.5h-69q-69 0 -113 -7q-40 -163 -40 -277q0 -218 213 -218q121 0 206.5 82t85.5 233z" />
    <glyph glyph-name="uni1567" unicode="&#x1567;" horiz-adv-x="1535" 
d="M1145 781q-155 0 -235 87t-80 255q0 101 18 171t34 127q-168 -37 -290 -179t-184 -501q-20 -113 -20 -219t44 -182t140 -118q94 -42 240 -56t349 -13h260l-26 -153h-288q-303 0 -487 31t-295 155q-111 125 -111 343q0 105 20 212q64 361 180 527t300 246q186 78 465 78
q362 0 435 -176q24 -58 24 -157q0 -100 -41 -194t-109 -157q-137 -127 -343 -127zM1469 1253q0 88 -61 137q-61 50 -222 50h-80q-58 0 -102 -7q-40 -163 -40 -277q0 -218 213 -218q121 0 207 82q85 82 85 233zM1334 1795q-44 -43 -95 -43t-78 28t-27 70v10q0 49 46 91
q46 41 95 41q47 0 75 -30t28 -76q0 -48 -44 -91z" />
    <glyph glyph-name="uni1568" unicode="&#x1568;" horiz-adv-x="1820" 
d="M1430 781q-154 0 -234 87t-81 255q0 101 18 171t34 127q-167 -37 -289 -179t-185 -501q-20 -113 -20 -219q1 -106 45 -182t138 -118t241 -56q146 -14 349 -13h260l-26 -153h-288q-303 0 -487 31t-295 155q-111 125 -111 343q0 105 20 212q63 361 179 527t302 246
q186 78 464 78q362 0 435 -176q24 -58 24 -157q0 -100 -41 -194t-109 -157q-137 -127 -343 -127zM1754 1253q0 88 -61 137q-61 50 -222 50h-80q-58 0 -102 -7q-40 -163 -40 -277q0 -218 213 -218q121 0 207 82q85 82 85 233zM1607 1795q-44 -43 -95 -43t-78 28t-27 70v10
q0 49 46 91q46 41 95 41q48 0 76 -30t27 -76q0 -48 -44 -91zM384 713q-42 -45 -95 -45t-80 28t-27 79q0 50 46 92q46 41 95 41q47 0 75 -28t28 -76q0 -46 -42 -91z" />
    <glyph glyph-name="uni1569" unicode="&#x1569;" horiz-adv-x="1820" 
d="M1145 781q-155 0 -235 87t-80 255q0 101 18 171t34 127q-168 -37 -290 -179t-184 -501q-20 -113 -20 -219t44 -182t140 -118q94 -42 240 -56t349 -13h260l-26 -153h-288q-303 0 -487 31t-295 155q-111 125 -111 343q0 105 20 212q64 361 180 527t300 246q186 78 465 78
q362 0 435 -176q24 -58 24 -157q0 -100 -41 -194t-109 -157q-137 -127 -343 -127zM1469 1253q0 88 -61 137q-61 50 -222 50h-80q-58 0 -102 -7q-40 -163 -40 -277q0 -218 213 -218q121 0 207 82q85 82 85 233zM1334 1795q-44 -43 -95 -43t-78 28t-27 70v10q0 49 46 91
q46 41 95 41q47 0 75 -30t28 -76q0 -48 -44 -91zM1873 713q-42 -45 -95 -45t-80 28t-27 79q0 50 46 92q46 41 95 41q48 0 76 -28t27 -76q0 -46 -42 -91z" />
    <glyph glyph-name="uni156A" unicode="&#x156a;" horiz-adv-x="937" 
d="M798 1106q-78 0 -127.5 50.5t-49.5 141.5t38 157q-94 -21 -152 -90t-91 -259q-7 -38 -7 -84q0 -114 84.5 -170t343.5 -56h144l-23 -128h-169q-277 0 -370.5 50.5t-121.5 126t-28 135.5t18 159q41 227 168 333t361 107t264.5 -67t30.5 -126t-23.5 -113t-64 -92t-94 -56
t-131.5 -19zM955.5 1443q-33.5 25 -94.5 25q-62 0 -102 -3q-29 -41 -29 -112q0 -134 102 -134t129.5 57t27.5 100q0 42 -33.5 67z" />
    <glyph glyph-name="uni156B" unicode="&#x156b;" horiz-adv-x="1672" 
d="M826 -25q-292 0 -416 146q-123 146 -122 441q1 296 66 657l62 348h158l-56 -316q-72 -405 -72 -653t97 -360q97 -113 311 -113q296 0 458 220t283 909l55 313h158l-62 -351q-124 -700 -326 -970t-594 -271zM1196 1567l-159 -899h-135l159 899h135z" />
    <glyph glyph-name="uni156C" unicode="&#x156c;" horiz-adv-x="1672" 
d="M1426 297q75 432 75 634t-34 292q-85 219 -377 219t-454 -220t-286 -922l-52 -300h-158l58 332q123 699 321 980q199 280 592 280q296 0 422 -144t126 -469q0 -254 -68 -644l-59 -335h-158zM1073 900l-159 -899h-135l159 899h135z" />
    <glyph glyph-name="uni156D" unicode="&#x156d;" horiz-adv-x="1437" 
d="M295 845h780l-23 -130h-780zM653 1567q468 0 657 -130q98 -68 142 -178t44 -267q0 -542 -292 -778q-266 -214 -829 -214h-260l26 153h235q491 1 707 177q233 190 233 643q0 169 -60 259q-96 143 -408 172q-108 10 -251 10h-233l27 153h262z" />
    <glyph glyph-name="uni156E" unicode="&#x156e;" horiz-adv-x="1437" 
d="M1338 1414q-492 0 -676 -140q-217 -164 -261 -594q-5 -50 -5 -132t32 -166q32 -82 114 -133q152 -96 571 -96h235l-26 -153h-260q-527 0 -714 170q-126 116 -128 377q0 116 26 260q74 415 312 587t778 173h262l-27 -153h-233zM658 843h780l-23 -130h-780z" />
    <glyph glyph-name="uni156F" unicode="&#x156f;" horiz-adv-x="2379" 
d="M2427 873l-470 -335l349 -336l-115 -116l-287 303l-60 -389h-151l78 395l-403 -312l-76 116l463 338l-349 336l118 115l296 -309l63 401h151l-78 -395l393 304zM1279 873l-470 -335l349 -336l-115 -116l-287 303l-60 -389h-151l78 395l-403 -312l-76 116l463 338
l-349 336l118 115l296 -309l63 401h151l-78 -395l393 304z" />
    <glyph glyph-name="uni1570" unicode="&#x1570;" horiz-adv-x="1672" 
d="M826 -25q-292 0 -415.5 145.5t-122.5 441.5t66 657l62 348h158l-56 -316q-72 -405 -72 -653t97.5 -360.5t310.5 -112.5q296 0 458 220t283 909l55 313h158l-62 -351q-124 -700 -326 -970t-594 -271zM969 781q-125 0 -210 86t-85 254q0 72 17 174l48 272h142l-50 -281
q-14 -79 -14 -137q0 -115 49 -170t114 -55q257 0 332 403l43 240h143l-47 -268q-48 -272 -182 -395t-300 -123z" />
    <glyph glyph-name="uni1571" unicode="&#x1571;" horiz-adv-x="1672" 
d="M1086 1442q-288 0 -452 -225t-281 -901l-55 -316h-158l61 348q119 679 318 961q199 283 592 283q295 0 421.5 -145t126.5 -469q0 -237 -66 -627l-61 -351h-158l55 313q72 409 72 657t-97.5 360t-317.5 112zM1136 394q0 124 -53.5 186.5t-137.5 62.5q-163 0 -219 -134.5
t-72 -227.5l-49 -281h-142l47 272q45 268 179 391q133 123 281 123q219 0 267.5 -128.5t48.5 -210.5t-17 -179l-47 -268h-143l42 240q15 88 15 154z" />
    <glyph glyph-name="uni1572" unicode="&#x1572;" horiz-adv-x="1437" 
d="M260 464q180 0 281.5 81t114 204t12.5 165q0 98 -71.5 143.5t-225.5 45.5h-64l23 130h82q206 0 302 -79.5t96 -236.5q0 -228 -73 -333.5t-110 -138.5q-128 -111 -405 -111h-52l23 130h67zM653 1567q467 0 655 -124.5t188 -392.5q0 -122 -21 -243q-83 -467 -328 -637
t-772 -170h-260l26 153h235q490 -1 675 139t246 495q19 104 19 210q0 229 -150.5 323t-568.5 94h-233l27 153h262z" />
    <glyph glyph-name="uni1573" unicode="&#x1573;" horiz-adv-x="1437" 
d="M1338 1414q-492 0 -676 -140q-217 -164 -241.5 -404t-24.5 -322t32.5 -165t149 -156.5t535.5 -73.5h235l-26 -153h-260q-527 0 -714 170q-126 116 -128 377q0 116 26 260q74 415 312 587t778 173h262l-27 -153h-233zM1331 334q-234 0 -330 76t-96 243q1 62 17 156
q74 424 537 424h82l-23 -130h-64q-183 0 -280.5 -70.5t-111.5 -196.5t-14 -169q0 -203 291 -203h67l-23 -130h-52z" />
    <glyph glyph-name="uni1574" unicode="&#x1574;" horiz-adv-x="1600" 
d="M746 530q-218 0 -337.5 103.5t-119.5 293.5q0 65 13 136q42 237 206 383t390 146q181 0 292.5 -106t111.5 -310q0 -77 -17 -174l-143 -810l427 354l92 -119l-557 -427h-153l102 583q-189 -53 -307 -53zM814 677q124 0 261 31l48 271q16 94 16 166q0 154 -70 225.5
t-222 71.5t-269.5 -128t-117.5 -340t115 -254.5t239 -42.5z" />
    <glyph glyph-name="uni1575" unicode="&#x1575;" horiz-adv-x="1600" 
d="M1036 677q136 0 218.5 38.5t172 141t89.5 313.5q0 126 -71.5 199t-195.5 73q-172 0 -278.5 -111t-149.5 -352l-48 -271q127 -31 263 -31zM1683 1184q0 -51 -11 -121q-46 -263 -216 -398t-390 -135q-144 0 -315 53l-102 -583h-153l-407 427l134 119l301 -354l143 810
q53 298 217 444t368 146t317.5 -110.5t113.5 -297.5z" />
    <glyph glyph-name="uni1576" unicode="&#x1576;" horiz-adv-x="1600" 
d="M1036 677q136 1 219 39q82 38 140 104q121 139 121 350q0 126 -72 199t-195 73q-173 0 -279 -111t-149 -352l-48 -271q127 -31 263 -31zM1683 1184q0 -51 -11 -121q-46 -263 -216 -398t-390 -135q-144 0 -315 53l-102 -583h-153l-407 427l134 119l301 -354l143 810
q53 298 217 444t368 146t317 -111q114 -110 114 -297zM1395 1798q-42 -45 -95 -45q-53 1 -80 29t-27 78t46 92q46 41 95 41q48 -1 76 -29t27 -75q0 -46 -42 -91z" />
    <glyph glyph-name="uni1577" unicode="&#x1577;" horiz-adv-x="1572" 
d="M808 950q-174 0 -286.5 -110t-150.5 -324q-11 -59 -11 -121q0 -129 72.5 -199.5t194.5 -70.5q172 0 274 88t147 342l62 348q-128 47 -302 47zM613 -25q-302 0 -361 151.5t-59 233.5t14 164q53 302 231 438t402 135q126 0 293 -61l94 531h153l374 -452l-137 -113l-265 380
l-150 -850q-50 -286 -212 -422t-377 -135z" />
    <glyph glyph-name="uni1578" unicode="&#x1578;" horiz-adv-x="1572" 
d="M808 950q-174 0 -286 -110t-151 -324q-11 -59 -11 -121q0 -129 73 -200q73 -70 194 -70q172 0 274 88t147 342l62 348q-128 47 -302 47zM613 -25q-302 -1 -391 227q-29 74 -29 158q0 82 14 164q53 302 231 438t402 135q126 0 293 -61l94 531h153l374 -452l-137 -113
l-265 380l-150 -850q-50 -286 -212 -422t-377 -135zM1439 1798q-42 -45 -95 -45q-53 1 -80 29t-27 78t46 92q46 41 95 41q48 -1 76 -29t27 -75q0 -46 -42 -91z" />
    <glyph glyph-name="uni1579" unicode="&#x1579;" horiz-adv-x="1572" 
d="M1102 1097q214 0 338 -103.5t124 -308.5q0 -74 -15 -161q-47 -265 -206 -407t-394 -142q-287 0 -347.5 147.5t-60.5 235.5t15 174l150 850l-399 -380l-97 113l534 452h153l-94 -531q189 61 299 61zM1394 649q0 301 -235 301t-379 -47l-62 -348q-17 -94 -17 -169
q0 -143 70.5 -202t217.5 -59q229 0 317 176.5t88 347.5z" />
    <glyph glyph-name="uni157A" unicode="&#x157a;" horiz-adv-x="1572" 
d="M1102 1097q214 0 338 -104t124 -308q0 -74 -15 -161q-47 -265 -206 -407t-394 -142q-287 1 -377 221q-30 74 -31 162q0 88 15 174l150 850l-399 -380l-97 113l534 452h153l-94 -531q189 61 299 61zM1394 649q0 301 -312 301q-158 0 -302 -47l-62 -348q-17 -94 -17 -169
q0 -143 71 -202t217 -59q229 -1 339 219q66 134 66 305zM950 1798q-42 -45 -95 -45q-53 1 -80 29t-27 78t46 92q46 41 95 41q47 -1 75 -29t28 -75q0 -46 -42 -91z" />
    <glyph glyph-name="uni157B" unicode="&#x157b;" horiz-adv-x="1010" 
d="M842 1281q130 0 204.5 -61.5t74.5 -157.5q0 -178 -110.5 -286t-272.5 -108q-196 0 -236.5 83.5t-40.5 135.5t9 102l75 426l-222 -223l-88 89l343 286h129l-57 -321q111 35 192 35zM981 1032q0 132 -169 132q-82 0 -180 -22l-21 -117q-8 -46 -8 -81q0 -148 155 -148
t189 90t34 146z" />
    <glyph glyph-name="uni157C" unicode="&#x157c;" horiz-adv-x="1460" 
d="M448 1567h170l-124 -702h776l124 702h170l-276 -1567h-170l129 735h-776l-129 -735h-170z" />
    <glyph glyph-name="uni157D" unicode="&#x157d;" horiz-adv-x="682" 
d="M175 884l313 351l-165 332h155l100 -242l197 242h155l-296 -328l183 -355h-162l-113 249l-205 -249h-162z" />
    <glyph glyph-name="uni157E" unicode="&#x157e;" horiz-adv-x="2024" 
d="M599 1004q-303 0 -303 212q0 88 38 160t97 115q104 76 347 76h131l-22 -126h-168q-210 0 -262 -102q-20 -39 -20 -85q1 -46 13 -68q12 -23 53 -44t177 -21h154l-80 -453h-134l60 336h-81zM1402 677q138 1 220 39t140 104q121 139 121 350q0 126 -72 199t-195 73
q-172 0 -278 -111t-150 -352l-48 -271q124 -31 262 -31zM2050 1184q0 -279 -174 -466q-174 -188 -443 -188q-142 0 -315 53l-102 -583h-158l176 1002q53 298 217 444t368 146t317 -111q114 -110 114 -297zM1884 2182q58 -58 57 -128q0 -127 -89 -214t-190 -87
q-100 -1 -158 57t-58 137t34 134t72 88q83 71 178 71q96 0 154 -58zM1656 1839q77 0 127 58t50 124q0 65 -30 99t-71 34q-69 0 -123 -52q-55 -52 -55 -121t30 -105t72 -37z" />
    <glyph glyph-name="uni157F" unicode="&#x157f;" horiz-adv-x="2024" 
d="M599 1004q-303 0 -303 212q0 88 38 160t97 115q104 76 347 76h131l-22 -126h-168q-210 0 -262 -102q-20 -39 -20 -85q1 -46 13 -68q12 -23 53 -44t177 -21h154l-80 -453h-134l60 336h-81zM1402 677q138 1 220 39t140 104q121 139 121 350q0 126 -72 199t-195 73
q-172 0 -278 -111t-150 -352l-48 -271q124 -31 262 -31zM2050 1184q0 -279 -174 -466q-174 -188 -443 -188q-142 0 -315 53l-102 -583h-158l176 1002q53 298 217 444t368 146t317 -111q114 -110 114 -297z" />
    <glyph glyph-name="uni1580" unicode="&#x1580;" horiz-adv-x="2024" 
d="M599 1004q-303 0 -303 212q0 88 38 160t97 115q104 76 347 76h131l-22 -126h-168q-210 0 -262 -102q-20 -39 -20 -85q1 -46 13 -68q12 -23 53 -44t177 -21h154l-80 -453h-134l60 336h-81zM1821 1798q-42 -45 -95 -45q-53 1 -80 29t-27 78t46 92q46 41 95 41q48 -1 76 -29
t27 -75q0 -46 -42 -91zM1402 677q138 1 220 39t140 104q121 139 121 350q0 126 -72 199t-195 73q-172 0 -278 -111t-150 -352l-48 -271q124 -31 262 -31zM2050 1184q0 -279 -174 -466q-174 -188 -443 -188q-142 0 -315 53l-102 -583h-158l176 1002q53 298 217 444t368 146
t317 -111q114 -110 114 -297z" />
    <glyph glyph-name="uni1581" unicode="&#x1581;" horiz-adv-x="2024" 
d="M599 1004q-303 0 -303 212q0 88 38 160t97 115q104 76 347 76h131l-22 -126h-168q-210 0 -262 -102q-20 -39 -20 -85q1 -46 13 -68q12 -23 53 -44t177 -21h154l-80 -453h-134l60 336h-81zM1147 401q0 -276 289 -276q173 0 267 108q95 108 132 322l62 348q-129 47 -261 47
q-237 0 -363 -153t-126 -396zM1400 -25q-301 1 -391 249q-29 80 -29 206t45 253q45 126 129 218q179 196 473 196q128 0 293 -61l94 531h158l-183 -1035q-50 -286 -196 -422t-393 -135z" />
    <glyph glyph-name="uni1582" unicode="&#x1582;" horiz-adv-x="2024" 
d="M599 1004q-303 0 -303 212q0 88 38 160t97 115q104 76 347 76h131l-22 -126h-168q-210 0 -262 -102q-20 -39 -20 -85q1 -46 13 -68q12 -23 53 -44t177 -21h154l-80 -453h-134l60 336h-81zM1147 401q0 -276 289 -276q173 0 267 108q95 108 132 322l62 348q-129 47 -261 47
q-237 0 -363 -153t-126 -396zM1400 -25q-301 1 -391 249q-29 80 -29 206t45 253q45 126 129 218q179 196 473 196q128 0 293 -61l94 531h158l-183 -1035q-50 -286 -196 -422t-393 -135zM2182 1798q-42 -45 -95 -45q-53 1 -80 29t-27 78t46 92q46 41 95 41q47 -1 75 -29
t28 -75q0 -46 -42 -91z" />
    <glyph glyph-name="uni1583" unicode="&#x1583;" horiz-adv-x="2024" 
d="M599 1004q-303 0 -303 212q0 88 38 160t97 115q104 76 347 76h131l-22 -126h-168q-210 0 -262 -102q-20 -39 -20 -85q1 -46 13 -68q12 -23 53 -44t177 -21h154l-80 -453h-134l60 336h-81zM1846 649q0 301 -312 301q-156 0 -302 -47l-62 -348q-17 -96 -17 -170
q0 -142 71 -201t217 -59q179 0 292 150t113 374zM1552 1097q215 0 340 -107q124 -107 124 -321q0 -296 -165 -495t-451 -199q-286 1 -376 221q-30 74 -31 162q0 88 15 174l183 1035h158l-94 -531q187 61 297 61z" />
    <glyph glyph-name="uni1584" unicode="&#x1584;" horiz-adv-x="2024" 
d="M599 1004q-303 0 -303 212q0 88 38 160t97 115q104 76 347 76h131l-22 -126h-168q-210 0 -262 -102q-20 -39 -20 -85q1 -46 13 -68q12 -23 53 -44t177 -21h154l-80 -453h-134l60 336h-81zM1846 649q0 301 -312 301q-156 0 -302 -47l-62 -348q-17 -96 -17 -170
q0 -142 71 -201t217 -59q179 0 292 150t113 374zM1552 1097q215 0 340 -107q124 -107 124 -321q0 -296 -165 -495t-451 -199q-286 1 -376 221q-30 74 -31 162q0 88 15 174l183 1035h158l-94 -531q187 61 297 61zM1408 1798q-42 -45 -95 -45q-53 1 -80 29t-27 78t46 92
q46 41 95 41q47 -1 75 -29t28 -75q0 -46 -42 -91z" />
    <glyph glyph-name="uni1585" unicode="&#x1585;" horiz-adv-x="1535" 
d="M599 1004q-303 0 -303 212q0 88 38 160t97 115q104 76 347 76h131l-22 -126h-168q-210 0 -262 -102q-20 -39 -20 -85q1 -46 13 -68q12 -23 53 -44t177 -21h154l-80 -453h-134l60 336h-81zM1367 1281q131 0 205 -61q74 -62 74 -158q0 -178 -111 -286t-272 -108
q-196 0 -256 124q-21 44 -21 95q0 52 9 102l102 578h135l-57 -321q111 35 192 35zM1506 1032q0 132 -169 132q-82 0 -180 -22l-21 -117q-8 -46 -8 -81q0 -148 155 -148t207 136q16 44 16 100z" />
    <glyph glyph-name="uni1586" unicode="&#x1586;" 
d="M779 677q180 0 306 86l45 255q12 66 12 122q0 141 -70.5 218t-224.5 77t-270.5 -127.5t-116.5 -336.5q0 -208 114.5 -251t204.5 -43zM290 934q0 60 12 129q43 245 203 387t393 142q182 0 295 -109.5t113 -301.5q0 -59 -13 -137l-184 -1044h-158l110 625
q-86 -61 -187.5 -78t-155.5 -17t-104 8l-372 -538h-185l416 594q-183 111 -183 340z" />
    <glyph glyph-name="uni1587" unicode="&#x1587;" 
d="M565 559q-85 29 -125 66l-110 -625h-158l184 1044q45 256 209 402t370 146t318 -106.5t112 -293.5q0 -60 -12 -129q-59 -335 -337 -469l208 -594h-185l-184 538q-52 -8 -128 -8q-77 0 -162 29zM753 677q197 0 320.5 139.5t123.5 347.5q0 124 -71.5 197.5t-177.5 73.5
q-189 0 -296.5 -109.5t-142.5 -307.5l-45 -255q93 -86 289 -86z" />
    <glyph glyph-name="uni1588" unicode="&#x1588;" 
d="M999 1051q85 -29 125 -66l103 582h158l-184 -1044q-45 -257 -209 -403t-371 -145q-206 0 -316.5 108.5t-110.5 302.5q0 70 13 141q61 347 341 489l-215 551h185l191 -492q65 5 135 5t155 -29zM1099 842q-91 91 -288 91t-323 -149.5t-126 -369.5q0 -132 71.5 -207
t176.5 -75q189 0 297 117.5t145 323.5z" />
    <glyph glyph-name="uni1589" unicode="&#x1589;" 
d="M784 933q-182 0 -306 -91l-47 -269q-14 -76 -14 -136q0 -146 70 -225.5t224 -79.5t272 136.5t118 356.5t-114 264t-203 44zM1272 668q0 -65 -14 -141q-46 -255 -206 -403t-394 -149q-182 0 -294.5 109t-112.5 300q0 70 13 139l184 1044h158l-103 -582q86 61 188 78
t149 17t110 -5l365 492h185l-409 -551q181 -112 181 -348z" />
    <glyph glyph-name="uni158A" unicode="&#x158a;" horiz-adv-x="1652" 
d="M1198 1172q0 141 -75.5 205.5t-251.5 64.5t-284 -101.5t-147 -323.5l-15 -86h-158l16 93q49 284 223 426t399 142q224 0 338 -93.5t114 -299.5q0 -82 -18 -184l-145 -823l427 354l92 -119l-558 -427h-152l181 1032q14 78 14 140z" />
    </font>
</defs>
</svg>
