<?xml version="1.0" encoding="utf-8"?>
<!-- Generator: Adobe Illustrator 20.0.0, SVG Export Plug-In . SVG Version: 6.00 Build 0)  -->
<svg version="1.1" id="Layer_1" xmlns="http://www.w3.org/2000/svg" xmlns:xlink="http://www.w3.org/1999/xlink" x="0px" y="0px"
	 viewBox="0 0 1340.3 1138.4" style="enable-background:new 0 0 1340.3 1138.4;" xml:space="preserve">
<style type="text/css">
	.st0{fill:#282780;stroke:#282780;stroke-width:2;stroke-miterlimit:10;}
	.st1{fill:#282780;stroke:#282780;stroke-width:11;stroke-miterlimit:10;}
	.st2{fill:#282780;stroke:#282780;stroke-width:15;stroke-miterlimit:10;}
</style>
<title>ISC_Logo</title>
<path class="st0" d="M21.8,355.1V10h37.4v345.1L21.8,355.1z"/>
<path class="st0" d="M162.7,355.1h-37.4V10h93.6c36.6,0,64.2,8.7,82.8,26.1c18.6,17.4,28,41,28,70.8c0,22-7.2,41.6-21.7,58.8
	c-14.5,17.2-31.1,28.6-49.9,34.1l96.5,155.2H310l-89-148c-1.9,0.3-21.4,0.6-58.4,0.9L162.7,355.1z M162.7,179.6h35.9
	c29.5,0,52.3-6.7,68.4-20s24.1-30.5,24.1-51.5c0-24.1-6.7-41.5-20.1-52.2c-13.4-10.7-35.6-16.1-66.4-16.1h-41.8L162.7,179.6z"/>
<path class="st0" d="M584.6,10h39.6L511.1,355.1H475L365.7,10h40.5L495,301.2L584.6,10z"/>
<path class="st0" d="M664.1,355.1V10h37.4v345.1L664.1,355.1z"/>
<path class="st0" d="M804.9,71.7v283.4h-37.2L767.4,10h37.4l171.5,284.7V10h37.4v345.1h-35.9L804.9,71.7z"/>
<path class="st0" d="M1220.2,328.9c27.3,0,50.8-3.5,70.5-10.6V217.7h-48.4v-28.6h85.8v143.8c-34.2,18.3-72.4,27.8-111.2,27.8
	c-46.1,0-81.2-17.2-105.2-51.8s-36-77.6-36-129.3c0-51.2,13.1-93.8,39.2-127.7S1176.4,1,1221,1c42.1,0,74.5,12.8,97.1,38.5
	l-24.2,25.1c-18.1-21.3-42.8-31.9-74.2-31.9c-30.5,0-55.6,12.6-75.2,37.8c-19.6,25.2-29.4,59.6-29.4,103.4
	c0,44.5,9.3,81.4,27.9,110.9C1161.6,314.2,1187.3,328.9,1220.2,328.9z"/>
<path class="st1" d="M169.3,1097.2c-18.1,23.8-42.3,35.7-72.8,35.7c-29.7,0-52.4-11.1-67.8-33.4c-15.5-22.3-23.2-50.1-23.2-83.4
	c0-33.1,8.4-60.5,25.3-82.4s39.7-32.8,68.5-32.8c27.2,0,48.1,8.3,62.7,24.9l-15.6,16.2c-11.6-13.7-27.6-20.6-47.9-20.6
	c-19.7,0-35.9,8.1-48.5,24.4c-12.6,16.2-19,38.5-19,66.7c0,28.7,6,52.5,18,71.5s28.3,28.5,49,28.5c22.5,0,41.2-9.5,56.3-28.6
	L169.3,1097.2z"/>
<path class="st1" d="M296.6,1132.9c-31.5,0-55.7-10.9-72.7-32.7c-17-21.8-25.5-50.6-25.5-86.5c0-32.4,9.6-59.3,28.8-80.7
	s42.9-32.1,71.1-32.1c30.8,0,54.6,10.7,71.5,32.1s25.3,49.7,25.3,84.8c0,32.7-9.3,60-28,82.1C348.4,1121.9,325,1132.9,296.6,1132.9z
	 M297.9,1112.4c18.5,0,35-8.5,49.7-25.6c14.6-17.1,22-42.2,22-75.4c0-21.2-5.7-41.6-17.2-61s-29.3-29.1-53.5-29.1
	c-23.3,0-41.6,8.7-54.9,26.1c-13.3,17.4-19.9,39.5-20,66.4c0,31.6,7,56,21,73C259,1103.9,276.6,1112.4,297.9,1112.4L297.9,1112.4z"
	/>
<path class="st1" d="M537.9,1129.3h-22.2l-56.4-167.8v167.8h-24.2V906.7h25l66.6,197.8l65.8-197.8h24.9v222.7h-24.2V961.5
	L537.9,1129.3z"/>
<path class="st1" d="M684.7,1035.7v93.6h-24.2V906.7h60.4c22.8,0,40.5,5.6,52.9,16.8c12.5,11.2,18.7,27.1,18.7,47.7
	c0,17.1-7.2,32.2-21.7,45.1s-35.1,19.4-62,19.4L684.7,1035.7z M684.7,1017.2h23.4c18.2,0,32.6-4.3,43.3-12.9s16.1-20.2,16.1-34.7
	c0-15.3-4.3-26.6-13-33.8c-8.7-7.2-22.8-10.7-42.3-10.7h-27.6V1017.2z"/>
<path class="st1" d="M865.7,906.7h23.4l73.9,222.7h-26.7l-23.7-75.9h-75.2l-23.9,75.9h-24L865.7,906.7z M842.4,1036.3h65.2
	l-32-101.7L842.4,1036.3z"/>
<path class="st1" d="M1012,946.5v182.9h-24l-0.1-222.7h24.1l110.7,183.7V906.7h24.2v222.7h-23.2L1012,946.5z"/>
<path class="st1" d="M1240.4,1129.3v-101.6L1175,906.7h26.1l51.7,100l51.9-100h26.1l-66,118.7v104H1240.4z"/>
<path class="st2" d="M45.8,738.2c11.1,12.2,24.1,22.5,38.4,30.7c15.2,8.8,32.6,13.2,52.3,13.2c22.7,0,40.8-5.3,54.3-15.9
	c13.5-10.6,20.3-25.8,20.3-45.7c0-19.4-6.2-33.8-18.6-43.3c-12.4-9.4-31-18.7-55.7-27.8l-19-8c-26.6-9.4-48.8-22.1-66.6-38
	c-17.8-15.9-26.7-36.9-26.7-63.1c0-26.6,10.3-47.8,30.8-63.5c20.5-15.7,46.3-23.5,77.4-23.5c23.8,0,43.7,3.6,59.6,10.7
	c16.4,7.5,31.2,17.9,43.7,30.8L214,519.9c-10.2-9.3-21.4-17.3-33.4-23.9c-12.7-7.1-28.5-10.7-47.3-10.7c-20.2,0-37,4.8-50.4,14.3
	c-13.5,9.6-20.2,21.9-20.2,36.9c0,18.4,7.5,32.8,22.6,43.2c14.4,10,30,18.3,46.5,24.6l32.7,13.7c33.7,12.7,56.5,26.2,68.5,40.7
	s18,33.5,18,57c0,31.3-11,55.5-33.1,72.6c-22.1,17.1-49.2,25.6-81.4,25.6c-12.1,0.1-24.2-0.8-36.1-2.8c-10.6-1.7-21-4.7-30.9-8.7
	c-9.7-4-18.8-9.1-27.3-15.2c-9-6.6-17.4-14.1-24.9-22.3L45.8,738.2z"/>
<path class="st2" d="M526.1,494.3H418.6v314.1h-37.5V494.3H274v-31.8h252L526.1,494.3z"/>
<path class="st2" d="M632.2,462.5h36.4l114.8,345.8h-41.5L705,690.5H588.3l-37.1,117.9h-37.3L632.2,462.5z M596,663.8h101.3
	l-49.7-158L596,663.8z"/>
<path class="st2" d="M962.6,782.1c27.4,0,50.9-3.5,70.6-10.6V670.6h-48.6v-28.7h86.1v144.1c-34.3,18.3-72.6,27.9-111.5,27.8
	c-46.2,0-81.3-17.3-105.4-51.9c-24.1-34.6-36.1-77.8-36.1-129.6c0-51.3,13.1-94,39.3-128s61.7-51,106.4-51
	c42.2,0,74.7,12.9,97.3,38.6l-24.3,25.2c-18.1-21.3-42.9-32-74.4-32c-30.6,0-55.7,12.6-75.4,37.8s-29.5,59.8-29.5,103.6
	c0,44.6,9.3,81.6,27.9,111.1C903.9,767.3,929.7,782.1,962.6,782.1z"/>
<path class="st2" d="M1306.7,493h-147.2v117.8h117.4v28.9h-117.4v138.2h153.8v30.5H1122V462.5h184.7V493z"/>
</svg>
