<svg id="Layer_1" data-name="Layer 1" xmlns="http://www.w3.org/2000/svg" viewBox="0 0 1340.27 1138.4"><defs><style>.cls-1,.cls-2,.cls-3{fill:#fff;stroke:#fff;stroke-miterlimit:10;}.cls-1{stroke-width:2px;}.cls-2{stroke-width:11px;}.cls-3{stroke-width:15px;}</style></defs><title>ISC_Logo</title><path class="cls-1" d="M-552.26-219.24V-564.32h37.44v345.08Z" transform="translate(574.03 574.35)"/><path class="cls-1" d="M-411.33-219.24h-37.44V-564.32h93.59q54.83,0,82.8,26.1t28,70.8q0,33-21.69,58.8T-316-374.49l96.45,155.25H-264l-89-148q-2.86.44-58.36.88Zm0-175.51h35.9q44.26,0,68.38-20t24.11-51.53q0-36.11-20.15-52.19t-66.39-16.08h-41.84Z" transform="translate(574.03 574.35)"/><path class="cls-1" d="M10.6-564.32H50.24L-62.95-219.24H-99.06L-208.29-564.32h40.52L-79-273.19Z" transform="translate(574.03 574.35)"/><path class="cls-1" d="M90.1-219.24V-564.32h37.44v345.08Z" transform="translate(574.03 574.35)"/><path class="cls-1" d="M230.82-502.66v283.42H193.6l-.22-345.08h37.44L402.37-279.58V-564.32H439.8v345.08H403.91Z" transform="translate(574.03 574.35)"/><path class="cls-1" d="M646.14-245.45q41,0,70.47-10.57V-356.65H668.17v-28.63H754v143.8a235.16,235.16,0,0,1-111.21,27.75q-69.15,0-105.15-51.75t-36-129.27q0-76.85,39.2-127.72T647-573.35q63.2,0,97.11,38.54l-24.22,25.1q-27.09-31.93-74.21-31.93-45.81,0-75.2,37.77T541.1-400.48q0,66.73,27.86,110.88T646.14-245.45Z" transform="translate(574.03 574.35)"/><path class="cls-2" d="M-404.7,522.89q-27.14,35.67-72.75,35.67-44.62,0-67.85-33.39t-23.23-83.41q0-49.59,25.29-82.41t68.49-32.82q40.78,0,62.66,24.87l-15.63,16.2Q-445.19,347-475.6,347q-29.56,0-48.52,24.37t-19,66.71q0,43.05,18,71.54t49,28.49q33.68,0,56.27-28.56Z" transform="translate(574.03 574.35)"/><path class="cls-2" d="M-277.39,558.55q-47.18,0-72.68-32.68t-25.5-86.53q0-48.59,28.77-80.71t71.12-32.11q46.18,0,71.47,32.11t25.29,84.83q0,49-28,82.06T-277.39,558.55Zm1.28-20.46q27.71,0,49.66-25.58t22-75.45q0-31.83-17.19-61T-275.11,347q-35,0-54.92,26.07t-20,66.43q0,47.46,21,73T-276.11,538.09Z" transform="translate(574.03 574.35)"/><path class="cls-2" d="M-36.12,555H-58.28l-56.41-167.81V555h-24.16V332.35h25L-47.2,530.13,18.59,332.35H43.45V555H19.3V387.19Z" transform="translate(574.03 574.35)"/><path class="cls-2" d="M110.66,461.36V555H86.51V332.35h60.39q34.24,0,52.93,16.84t18.68,47.67q0,25.72-21.67,45.11t-62,19.4Zm0-18.47h23.45q27.28,0,43.34-12.93t16.06-34.67q0-23-13-33.75t-42.27-10.73H110.66Z" transform="translate(574.03 574.35)"/><path class="cls-2" d="M291.68,332.35h23.44L389,555H362.3l-23.73-75.88H263.41L239.54,555h-24Zm-23.3,129.59H333.6l-32-101.74Z" transform="translate(574.03 574.35)"/><path class="cls-2" d="M438,372.13V555H414l-.14-222.65H438L548.72,516.07V332.35h24.16V555H549.72Z" transform="translate(574.03 574.35)"/><path class="cls-2" d="M666.37,555V453.41L601,332.35h26.14l51.72,100,51.86-100h26.14L690.81,451V555Z" transform="translate(574.03 574.35)"/><path class="cls-3" d="M-528.2,163.82a157.94,157.94,0,0,0,38.4,30.68q22.73,13.24,52.31,13.24,34,0,54.29-15.89t20.3-45.69q0-29.13-18.65-43.26t-55.73-27.81l-19-7.95Q-496.2,53-522.9,29.19t-26.71-63.12q0-39.94,30.79-63.45t77.36-23.5q35.75,0,59.59,10.7a144.77,144.77,0,0,1,43.7,30.79L-360-54.46a175.94,175.94,0,0,0-33.44-23.95q-19.09-10.7-47.34-10.7-30.24,0-50.43,14.35t-20.19,36.86q0,27.59,22.62,43.15a219.23,219.23,0,0,0,46.46,24.61l32.66,13.68q50.54,19,68.53,40.72t18,57.05q0,47-33.11,72.61t-81.44,25.6a218.78,218.78,0,0,1-36.08-2.76,142.89,142.89,0,0,1-30.9-8.72,132.19,132.19,0,0,1-27.26-15.23,172.63,172.63,0,0,1-24.94-22.29Z" transform="translate(574.03 574.35)"/><path class="cls-3" d="M-47.95-80.06H-155.43V234h-37.52V-80.06H-300v-31.78h252Z" transform="translate(574.03 574.35)"/><path class="cls-3" d="M58.21-111.84H94.63L209.39,234H167.9L131,116.14H14.29L-22.79,234h-37.3ZM22,89.44h101.3l-49.66-158Z" transform="translate(574.03 574.35)"/><path class="cls-3" d="M388.6,207.74q41.05,0,70.63-10.59V96.28H410.67V67.59h86.07V211.71a235.68,235.68,0,0,1-111.46,27.81q-69.3,0-105.39-51.87T243.82,58.1q0-77,39.29-128t106.38-51q63.34,0,97.33,38.62L462.54-57.11q-27.15-32-74.38-32-45.91,0-75.37,37.85T283.33,52.36q0,66.87,27.92,111.12T388.6,207.74Z" transform="translate(574.03 574.35)"/><path class="cls-3" d="M732.68-81.38H585.47V36.47H702.88V65.38H585.47V203.54H739.3V234H548V-111.84H732.68Z" transform="translate(574.03 574.35)"/></svg>